<?xml version="1.0" encoding="utf-8"?>
<!-- Generator: Adobe Illustrator 20.1.0, SVG Export Plug-In . SVG Version: 6.00 Build 0)  -->
<svg version="1.1"
	 id="Layer_1" xmlns:cc="http://creativecommons.org/ns#" xmlns:dc="http://purl.org/dc/elements/1.1/" xmlns:inkscape="http://www.inkscape.org/namespaces/inkscape" xmlns:rdf="http://www.w3.org/1999/02/22-rdf-syntax-ns#" xmlns:sodipodi="http://sodipodi.sourceforge.net/DTD/sodipodi-0.dtd" xmlns:svg="http://www.w3.org/2000/svg"
	 xmlns="http://www.w3.org/2000/svg" xmlns:xlink="http://www.w3.org/1999/xlink" x="0px" y="0px" width="64.5px" height="93.3px"
	 viewBox="0 0 64.5 93.3" style="enable-background:new 0 0 64.5 93.3;" xml:space="preserve">
<style type="text/css">
	.st0{fill:#FFFFFF;}
</style>
<path class="st0" d="M32.9,19.9c-0.2,0-0.4,0-0.7,0c-3.5,0.4-7,3.4-6.7,8c0,0.4,0.1,0.8,0.1,1.1c-0.3,0-0.6,0-0.9,0
	c-1,0-1.8,1-1.7,1.9c0,1,1,1.8,1.9,1.7h1c0.1,0.7,0.1,1.3,0.1,1.8c0,1.6-0.3,2.7-1.4,4.4c-0.4,0.5-0.4,1.3-0.1,1.9
	c0.3,0.6,1,1,1.6,1h12.2c1,0,1.9-0.9,1.9-1.8s-0.9-1.8-1.9-1.8H29c0.4-1.2,0.7-2.4,0.7-3.6c0-0.6,0-1.2-0.1-1.9h4.4
	c1,0,1.9-0.9,1.9-1.8c0-1-0.9-1.8-1.9-1.8h-4.8c0-0.4-0.1-0.9-0.1-1.3c0,0,0,0,0,0c-0.2-2.7,1.5-3.9,3.5-4.1c1-0.1,1.9,0.1,2.6,0.6
	c0.7,0.5,1.2,1.2,1.3,2.6c0.1,1,1,1.7,2,1.7c1-0.1,1.7-1,1.7-2c-0.2-2.3-1.3-4.1-2.8-5.2C36,20.3,34.5,19.8,32.9,19.9z"/>
<path class="st0" d="M26.7,66.8c1,0,2.1-0.2,3-0.5L19.4,92.2c-0.3,0.8-1.4,0.9-1.8,0.1l-4.9-8.6c-0.2-0.3-0.5-0.4-0.8-0.3l-9.2,2.9
	c-0.8,0.3-1.6-0.5-1.2-1.3l9.8-24.5c1.3,0.6,2.8,1,4.3,1c0.6,0,1.2-0.1,1.8-0.2h0.2l0.1,0.2C19.4,64.7,22.9,66.8,26.7,66.8z
	 M54.4,60.6c-1.3,0.6-2.8,1-4.4,1c-0.6,0-1.2-0.1-1.8-0.2H48l-0.1,0.2c-1.8,3.3-5.3,5.3-9,5.3c-1,0-2-0.2-3-0.5l10.4,26
	c0.3,0.8,1.4,0.9,1.8,0.1l4.9-8.6c0.2-0.3,0.5-0.4,0.8-0.3l9.2,2.9c0.8,0.3,1.6-0.5,1.2-1.3L54.4,60.6z"/>
<path class="st0" d="M62.7,28.5c1.9,1.7,1.9,4.6,0,6.2l-1.2,1.1c-1.3,1.2-1.8,3.1-1.1,4.7L61,42c1,2.3-0.3,4.9-2.7,5.6L56.7,48
	c-1.7,0.5-2.9,2-3,3.8l-0.1,1.6c-0.1,2.5-2.4,4.3-4.9,3.9L47.1,57c-1.7-0.3-3.5,0.5-4.4,2.1l-0.8,1.4c-1.2,2.2-4,2.8-6.1,1.4l-1.3-1
	c-1.4-1-3.4-1-4.8,0l-1.3,0.9c-2,1.4-4.9,0.8-6-1.4L21.6,59c-0.8-1.6-2.6-2.4-4.3-2.1l-1.6,0.3c-2.5,0.4-4.7-1.4-4.8-3.9l-0.1-1.6
	c-0.1-1.8-1.3-3.3-3-3.8l-1.6-0.4c-2.4-0.7-3.6-3.3-2.7-5.6l0.6-1.5c0.7-1.6,0.3-3.5-1.1-4.7l-1.2-1.1c-1.9-1.7-1.9-4.6,0-6.2
	L3,27.3c1.3-1.2,1.8-3.1,1.1-4.7l-0.6-1.5c-1-2.3,0.3-4.9,2.7-5.6l1.6-0.4c1.7-0.5,2.9-2,3-3.8l0.1-1.6c0.1-2.5,2.4-4.3,4.9-3.9
	l1.6,0.3c1.7,0.3,3.5-0.5,4.4-2.1l0.8-1.4c1.2-2.2,4-2.8,6.1-1.4l1.3,1c1.4,1,3.4,1,4.8,0l1.3-0.9c2-1.4,4.9-0.8,6,1.4l0.8,1.4
	c0.8,1.6,2.6,2.4,4.3,2.1l1.6-0.3c2.5-0.4,4.7,1.4,4.8,3.9l0.1,1.6c0.1,1.8,1.3,3.3,3,3.8l1.6,0.4c2.4,0.7,3.6,3.3,2.7,5.6l-0.6,1.5
	c-0.7,1.6-0.3,3.5,1.1,4.7L62.7,28.5z M52.6,31.6c0-11.2-9.1-20.3-20.3-20.3S12,20.4,12,31.6s9.1,20.3,20.3,20.3
	S52.6,42.8,52.6,31.6z"/>
</svg>
