<svg id="DCLOGO" xmlns="http://www.w3.org/2000/svg" width="872.031" height="142" viewBox="0 0 872.031 142">
  <defs>
    <style>
      .cls-1 {
        fill: #fff;
      }

      .cls-1, .cls-2, .cls-3, .cls-4, .cls-5, .cls-6 {
        fill-rule: evenodd;
      }

      .cls-2 {
        fill: #4dacf0;
      }

      .cls-3 {
        fill: #cdcdcd;
      }

      .cls-4 {
        fill: #64bfff;
      }

      .cls-5 {
        fill: #ffa100;
      }

      .cls-6 {
        fill: #ffdb16;
      }
    </style>
  </defs>
  <path class="cls-1" d="M457.529-2672.85V2823.26m0.234-5496.11V2823.26M382.432,96.653a30.415,30.415,0,0,1-2.79-12.721h0A30.528,30.528,0,0,1,397.5,56.149h0a30.542,30.542,0,0,1,12.726-2.787h0a30.59,30.59,0,0,1,27.825,17.831h0a2.674,2.674,0,0,1,.08,2.075h0a2.71,2.71,0,0,1-1.415,1.519h0L388.634,96.8a25.19,25.19,0,0,0,21.62,12.246h0a25.056,25.056,0,0,0,10.464-2.284h0A25,25,0,0,0,433.408,93.7h0.009a2.708,2.708,0,0,1,3.553-1.447h0a2.718,2.718,0,0,1,1.448,3.556h0A30.483,30.483,0,0,1,422.984,111.7h0a30.583,30.583,0,0,1-12.73,2.774h0a30.592,30.592,0,0,1-27.822-17.816h0Zm17.322-35.565a25.082,25.082,0,0,0-14.677,22.844h0a24.922,24.922,0,0,0,1.293,7.932h0l45.476-20.818a25.2,25.2,0,0,0-21.625-12.262h0a25.076,25.076,0,0,0-10.467,2.3h0ZM561.4,96.653a30.422,30.422,0,0,1-2.8-12.721h0a30.533,30.533,0,0,1,17.861-27.784h0a30.54,30.54,0,0,1,12.721-2.787h0A30.608,30.608,0,0,1,617.02,71.193h0a2.709,2.709,0,0,1,.075,2.075h0a2.7,2.7,0,0,1-1.416,1.519h0L567.6,96.8a25.176,25.176,0,0,0,21.62,12.246h0a25.112,25.112,0,0,0,10.466-2.284h0a25.024,25.024,0,0,0,12.7-13.057h0a2.711,2.711,0,0,1,3.555-1.441h0a2.71,2.71,0,0,1,1.447,3.55h0A30.5,30.5,0,0,1,601.945,111.7h0a30.536,30.536,0,0,1-12.724,2.774h0A30.584,30.584,0,0,1,561.4,96.653h0Zm17.324-35.565a25.083,25.083,0,0,0-14.685,22.844h0a24.93,24.93,0,0,0,1.3,7.935h0l45.479-20.821a25.2,25.2,0,0,0-21.629-12.262h0a25.068,25.068,0,0,0-10.462,2.3h0ZM105.609,96.653a30.5,30.5,0,0,1-2.79-12.713h0a30.554,30.554,0,0,1,17.86-27.791h0A30.532,30.532,0,0,1,133.4,53.362h0A30.592,30.592,0,0,1,161.23,71.193h0a2.7,2.7,0,0,1,.079,2.075h0a2.707,2.707,0,0,1-1.415,1.519h0L111.817,96.8a25.189,25.189,0,0,0,21.62,12.246h0a25.083,25.083,0,0,0,10.464-2.284h0A25,25,0,0,0,156.592,93.7H156.6a2.712,2.712,0,0,1,3.556-1.447h0a2.711,2.711,0,0,1,1.441,3.556h0A30.48,30.48,0,0,1,146.166,111.7h0a30.575,30.575,0,0,1-12.729,2.774h0a30.606,30.606,0,0,1-27.828-17.816h0Zm17.329-35.565A25.108,25.108,0,0,0,108.254,83.94h0a24.892,24.892,0,0,0,1.3,7.928h0L155.03,71.047A25.2,25.2,0,0,0,133.4,58.785h0a25.073,25.073,0,0,0-10.464,2.3h0ZM623.35,111.505V80.9a27.539,27.539,0,0,1,27.556-27.526h0a2.717,2.717,0,0,1,2.718,2.715h0a2.717,2.717,0,0,1-2.718,2.708h0A22.148,22.148,0,0,0,628.78,80.9h0l0.006,30.608a2.726,2.726,0,0,1-2.718,2.72h0a2.719,2.719,0,0,1-2.718-2.72h0ZM248.669,83.923a30.569,30.569,0,0,1,30.59-30.552h0a30.6,30.6,0,0,1,28.153,18.575h0a2.717,2.717,0,0,1-1.434,3.556h0a2.721,2.721,0,0,1-3.569-1.432h0a25.181,25.181,0,0,0-23.15-15.276h0A25.17,25.17,0,0,0,254.1,83.923h0a25.174,25.174,0,0,0,25.156,25.123h0A25.16,25.16,0,0,0,302.435,93.7h0.008A2.708,2.708,0,0,1,306,92.258h0a2.712,2.712,0,0,1,1.449,3.55h0a30.619,30.619,0,0,1-28.187,18.664h0a30.575,30.575,0,0,1-30.59-30.549h0Zm196,0a30.571,30.571,0,0,1,30.585-30.552h0a30.581,30.581,0,0,1,28.14,18.575h0a2.71,2.71,0,0,1-1.432,3.556h0a2.722,2.722,0,0,1-3.568-1.432h0a25.175,25.175,0,0,0-23.14-15.276h0A25.172,25.172,0,0,0,450.1,83.923h0a25.176,25.176,0,0,0,25.15,25.123h0A25.153,25.153,0,0,0,498.422,93.7h0.007a2.712,2.712,0,0,1,3.554-1.438h0a2.713,2.713,0,0,1,1.441,3.55h0a30.582,30.582,0,0,1-28.171,18.664h0a30.577,30.577,0,0,1-30.585-30.549h0ZM344.288,53.372a27.5,27.5,0,0,0-22.122,11.161V34.718a2.718,2.718,0,0,0-5.435,0V80.834c0,0.023,0,.041,0,0.063,0,0.006,0,.01,0,0.016v30.6a2.718,2.718,0,0,0,5.435,0V80.838a22.147,22.147,0,0,1,22.1-22.043c0.009,0,.015.006,0.024,0.006V58.795a22.149,22.149,0,0,1,22.126,22.1v30.608a2.718,2.718,0,1,0,5.436,0V80.9A27.546,27.546,0,0,0,344.288,53.372ZM236.267,111.508V34.718A2.718,2.718,0,0,1,238.984,32h0a2.713,2.713,0,0,1,2.718,2.714h0v76.791a2.713,2.713,0,0,1-2.718,2.714h0a2.717,2.717,0,0,1-2.717-2.714h0Zm322.246-2.262-0.006-.006-38.2-25.129,38.2-25.129a2.711,2.711,0,1,0-2.984-4.528l-38.349,25.22V34.718a2.719,2.719,0,0,0-5.437,0v76.791a2.719,2.719,0,0,0,5.437,0V88.551l38.343,25.226a2.689,2.689,0,0,0,1.484.445,2.743,2.743,0,0,0,2.284-1.22A2.711,2.711,0,0,0,558.513,109.246ZM227.406,83.923a30.6,30.6,0,1,0-5.435,17.358v10.227a2.718,2.718,0,0,0,5.435,0V83.926h0v0Zm-30.591,25.123a25.126,25.126,0,1,1,25.156-25.123A25.177,25.177,0,0,1,196.815,109.046ZM97.183,83.834V34.718a2.715,2.715,0,0,0-5.43,0V66.564a30.523,30.523,0,1,0,5.435,17.36C97.188,83.892,97.183,83.862,97.183,83.834ZM66.6,109.046A25.126,25.126,0,1,1,91.752,83.923,25.173,25.173,0,0,1,66.6,109.046Z" transform="translate(-36 -32)"/>
  <path id="Rounded_Rectangle_1" data-name="Rounded Rectangle 1" class="cls-2" d="M-2277.36,75.3H3226.05m-5503.41-5.364H3226.05m-5503.41,3.743H3226.05m-5503.41-5.811H3226.05M723.321,83.926a30.57,30.57,0,0,1,30.6-30.555h0A30.562,30.562,0,0,1,784.5,83.926h0a30.563,30.563,0,0,1-30.582,30.543h0a30.576,30.576,0,0,1-30.6-30.543h0Zm5.437,0a25.171,25.171,0,0,0,25.16,25.117h0a25.172,25.172,0,0,0,25.149-25.117h0a25.175,25.175,0,0,0-25.149-25.132h0a25.174,25.174,0,0,0-25.16,25.132h0ZM850.031,53.375a2.711,2.711,0,0,0-2.715,2.705L847.31,86.7a22.139,22.139,0,0,1-22.12,22.1h0v0A22.193,22.193,0,0,1,803.061,86.7V56.08a2.717,2.717,0,0,0-5.433,0h0V86.7a27.56,27.56,0,0,0,55.12,0V56.08A2.713,2.713,0,0,0,850.031,53.375Zm-191.9,30.549a30.57,30.57,0,0,1,30.592-30.552h0a30.586,30.586,0,0,1,28.145,18.575h0A2.707,2.707,0,0,1,715.43,75.5h0a2.713,2.713,0,0,1-3.562-1.432h0a25.185,25.185,0,0,0-23.15-15.276h0a25.179,25.179,0,0,0-25.162,25.129h0a25.183,25.183,0,0,0,25.162,25.123h0A25.176,25.176,0,0,0,711.9,93.7h0a2.718,2.718,0,0,1,3.556-1.438h0a2.71,2.71,0,0,1,1.444,3.55h0a30.6,30.6,0,0,1-28.181,18.664h0a30.576,30.576,0,0,1-30.592-30.549h0ZM906.8,109.243h-0.007L868.582,84.111l38.206-25.126a2.714,2.714,0,1,0-2.983-4.534l-38.35,25.217V34.721a2.717,2.717,0,0,0-5.434,0v76.79a2.717,2.717,0,0,0,5.434,0V88.551L903.8,113.78A2.718,2.718,0,0,0,906.8,109.243ZM-2277.36,96.1H3226.05M654.871,110.563a3.665,3.665,0,1,0-3.669,3.662A3.662,3.662,0,0,0,654.871,110.563Zm139.44,0a3.664,3.664,0,1,0-3.662,3.662A3.659,3.659,0,0,0,794.311,110.563ZM-2277.36,103.4H3226.05" transform="translate(-36 -32)"/>
  <path id="we_search_you_save" data-name="we search, you save" class="cls-3" d="M409.165,145.332h-2.23l5.469,18.755H414.2l4.18-12.827,0.748-3.033h0.105l0.749,3.033,4.266,12.827h1.777l5.485-18.755h-2.229L425.917,158l-0.818,3.536h-0.1L424.123,158l-4-12.671h-1.794l-4,12.671-0.871,3.432h-0.1L412.613,158Zm37.4,18.434a7.714,7.714,0,0,0,2.6-1.724l-0.888-1.422a6.9,6.9,0,0,1-2.4,1.517,8.649,8.649,0,0,1-3.17.563,5.363,5.363,0,0,1-4.5-2.114,8.465,8.465,0,0,1-1.628-5.322v-0.572h13.113V153.08a8.792,8.792,0,0,0-1.872-5.9,6.593,6.593,0,0,0-5.3-2.193,7.3,7.3,0,0,0-5.721,2.635,9.788,9.788,0,0,0-2.307,6.691v0.953a9.6,9.6,0,0,0,2.281,6.613,7.561,7.561,0,0,0,5.938,2.574A9.824,9.824,0,0,0,446.562,163.766Zm-0.279-15.392a6.329,6.329,0,0,1,1.315,4.117v0.433H436.8l-0.052-.1a7.377,7.377,0,0,1,1.811-4.351,5.09,5.09,0,0,1,3.953-1.716A4.576,4.576,0,0,1,446.283,148.374ZM472.552,161.7a5.714,5.714,0,0,1-3.569,1,6.96,6.96,0,0,1-3.631-.918,3.431,3.431,0,0,1-1.663-2.947h-1.916l-0.035.1a4.608,4.608,0,0,0,1.855,3.883,8.18,8.18,0,0,0,5.39,1.629,8.054,8.054,0,0,0,5.041-1.465,4.579,4.579,0,0,0,1.907-3.8,4.182,4.182,0,0,0-1.7-3.5,12.812,12.812,0,0,0-5.007-2.028,9.692,9.692,0,0,1-3.927-1.482,2.672,2.672,0,0,1-.983-2.123,2.967,2.967,0,0,1,1.149-2.306,5.116,5.116,0,0,1,3.413-.988A5.227,5.227,0,0,1,472.4,147.9a3.447,3.447,0,0,1,1.333,2.687h1.933l0.034-.1a4.674,4.674,0,0,0-1.793-3.909,7.554,7.554,0,0,0-5.033-1.586,7.359,7.359,0,0,0-4.815,1.491,4.546,4.546,0,0,0-1.82,3.64,3.953,3.953,0,0,0,1.628,3.371,12.909,12.909,0,0,0,4.972,1.9,8.938,8.938,0,0,1,3.927,1.6,3,3,0,0,1,1.089,2.3A2.967,2.967,0,0,1,472.552,161.7Zm19.2,2.071a7.714,7.714,0,0,0,2.6-1.724l-0.888-1.422a6.9,6.9,0,0,1-2.4,1.517,8.649,8.649,0,0,1-3.17.563,5.363,5.363,0,0,1-4.5-2.114,8.465,8.465,0,0,1-1.628-5.322v-0.572h13.113V153.08a8.792,8.792,0,0,0-1.872-5.9,6.593,6.593,0,0,0-5.3-2.193,7.3,7.3,0,0,0-5.721,2.635,9.788,9.788,0,0,0-2.307,6.691v0.953a9.6,9.6,0,0,0,2.281,6.613,7.561,7.561,0,0,0,5.938,2.574A9.824,9.824,0,0,0,491.752,163.766Zm-0.279-15.392a6.323,6.323,0,0,1,1.315,4.117v0.433h-10.8l-0.052-.1a7.377,7.377,0,0,1,1.811-4.351,5.09,5.09,0,0,1,3.953-1.716A4.576,4.576,0,0,1,491.473,148.374ZM513.2,164.087a12.025,12.025,0,0,1-.374-1.855,15.9,15.9,0,0,1-.113-1.924v-9.221a5.571,5.571,0,0,0-1.881-4.524,7.493,7.493,0,0,0-4.98-1.578,7.586,7.586,0,0,0-5.024,1.6,4.43,4.43,0,0,0-1.82,3.718l0.035,0.1h1.933a3.207,3.207,0,0,1,1.314-2.618,5.414,5.414,0,0,1,3.457-1.04,5.245,5.245,0,0,1,3.614,1.144,4.016,4.016,0,0,1,1.279,3.155v2.323h-4.632a9.751,9.751,0,0,0-5.746,1.56,4.775,4.775,0,0,0-2.212,4.073,5.257,5.257,0,0,0,1.524,3.978,5.938,5.938,0,0,0,4.292,1.465,8.044,8.044,0,0,0,4.04-1,7.619,7.619,0,0,0,2.734-2.522,10.856,10.856,0,0,0,.1,1.456q0.1,0.711.288,1.7H513.2Zm-12.007-2.444a3.322,3.322,0,0,1-1.053-2.565,3.521,3.521,0,0,1,1.654-2.9,6.948,6.948,0,0,1,4.2-1.205h4.649v3.589a5.671,5.671,0,0,1-2.385,2.92,7.506,7.506,0,0,1-4.162,1.136A4.118,4.118,0,0,1,501.19,161.643Zm25.939-16.467a4.842,4.842,0,0,0-.575-0.13,4.2,4.2,0,0,0-.731-0.061,5.532,5.532,0,0,0-3.274.971,6.744,6.744,0,0,0-2.194,2.7v-0.208l-0.262-3.12h-1.828v18.755h2.09V151.139a6.056,6.056,0,0,1,1.8-3.025,4.736,4.736,0,0,1,3.23-1.1l1.481,0.1Zm5.45,15.366a9.63,9.63,0,0,1-1.445-5.469v-0.728a9.576,9.576,0,0,1,1.445-5.425,4.934,4.934,0,0,1,4.406-2.167,5.191,5.191,0,0,1,3.622,1.344,4.617,4.617,0,0,1,1.481,3.6h1.863l0.035-.1a5.932,5.932,0,0,0-1.951-4.784,7.263,7.263,0,0,0-5.05-1.82,7.044,7.044,0,0,0-5.851,2.635,10.491,10.491,0,0,0-2.09,6.725v0.728a10.488,10.488,0,0,0,2.1,6.743,7.068,7.068,0,0,0,5.86,2.635,7.517,7.517,0,0,0,4.928-1.751,5.226,5.226,0,0,0,2.055-4.35l-0.035-.1h-1.863a3.891,3.891,0,0,1-1.542,3.276A5.67,5.67,0,0,1,537,162.7,4.957,4.957,0,0,1,532.579,160.542Zm17.972-23.5h-2.09v27.041h2.09V150.705a6.143,6.143,0,0,1,2.081-2.851,5.85,5.85,0,0,1,3.613-1.066,4.288,4.288,0,0,1,3.335,1.326q1.21,1.326,1.211,4.377v11.6h2.089V152.525q0-3.864-1.593-5.7a5.723,5.723,0,0,0-4.571-1.838,6.746,6.746,0,0,0-6.165,3.536V137.046Zm19.73,23.782h-2.072v2.9l-1.2,4.836h1.428l1.846-4.784v-2.947Zm13.705-15.5H581.67l7.279,18.512-0.992,2.531a8.393,8.393,0,0,1-1.393,2.47,2.715,2.715,0,0,1-2.177.962q-0.208,0-.671-0.043c-0.307-.029-0.531-0.055-0.67-0.078l-0.244,1.733a4.44,4.44,0,0,0,.766.165,6.184,6.184,0,0,0,.889.078,4.29,4.29,0,0,0,3.413-1.335,10.709,10.709,0,0,0,1.9-3.241l8.185-21.754h-2.334l-5.694,15.912h-0.1l-0.662-2.236ZM599.833,155a10.041,10.041,0,0,0,2.282,6.8,8.258,8.258,0,0,0,12.111,0A10.066,10.066,0,0,0,616.5,155v-0.572a10.054,10.054,0,0,0-2.281-6.795,8.23,8.23,0,0,0-12.1,0,10.049,10.049,0,0,0-2.282,6.795V155Zm2.09-.572a8.9,8.9,0,0,1,1.654-5.443,5.827,5.827,0,0,1,9.178,0,8.836,8.836,0,0,1,1.672,5.443V155a8.872,8.872,0,0,1-1.664,5.478,5.864,5.864,0,0,1-9.186,0A8.9,8.9,0,0,1,601.923,155v-0.572Zm31.433,9.655H635.2V145.332h-2.09v13.4a5.564,5.564,0,0,1-1.976,2.869,6.123,6.123,0,0,1-3.753,1.048,4,4,0,0,1-3.335-1.49q-1.176-1.491-1.176-4.923v-10.9h-2.089V156.2q0,4.23,1.689,6.24a5.765,5.765,0,0,0,4.667,2.011,7.069,7.069,0,0,0,3.613-.884,6.436,6.436,0,0,0,2.43-2.531Zm26-2.392a5.717,5.717,0,0,1-3.57,1,6.959,6.959,0,0,1-3.63-.918,3.434,3.434,0,0,1-1.664-2.947h-1.915l-0.035.1a4.605,4.605,0,0,0,1.855,3.883,8.179,8.179,0,0,0,5.389,1.629,8.055,8.055,0,0,0,5.042-1.465,4.579,4.579,0,0,0,1.907-3.8,4.182,4.182,0,0,0-1.7-3.5,12.812,12.812,0,0,0-5.007-2.028,9.692,9.692,0,0,1-3.927-1.482,2.672,2.672,0,0,1-.984-2.123,2.965,2.965,0,0,1,1.15-2.306,5.116,5.116,0,0,1,3.413-.988,5.227,5.227,0,0,1,3.526,1.144,3.45,3.45,0,0,1,1.333,2.687h1.932l0.035-.1a4.677,4.677,0,0,0-1.793-3.909,7.554,7.554,0,0,0-5.033-1.586,7.359,7.359,0,0,0-4.815,1.491,4.546,4.546,0,0,0-1.82,3.64,3.953,3.953,0,0,0,1.628,3.371,12.909,12.909,0,0,0,4.972,1.9,8.938,8.938,0,0,1,3.927,1.6,3,3,0,0,1,1.088,2.3A2.966,2.966,0,0,1,659.355,161.7Zm22.291,2.392a12.028,12.028,0,0,1-.375-1.855,16.109,16.109,0,0,1-.113-1.924v-9.221a5.571,5.571,0,0,0-1.881-4.524,7.493,7.493,0,0,0-4.98-1.578,7.586,7.586,0,0,0-5.024,1.6,4.43,4.43,0,0,0-1.82,3.718l0.035,0.1h1.933a3.206,3.206,0,0,1,1.315-2.618,5.409,5.409,0,0,1,3.456-1.04,5.245,5.245,0,0,1,3.614,1.144,4.017,4.017,0,0,1,1.28,3.155v2.323h-4.632a9.754,9.754,0,0,0-5.747,1.56,4.775,4.775,0,0,0-2.212,4.073,5.257,5.257,0,0,0,1.524,3.978,5.942,5.942,0,0,0,4.293,1.465,8.049,8.049,0,0,0,4.04-1,7.635,7.635,0,0,0,2.734-2.522,10.856,10.856,0,0,0,.1,1.456q0.094,0.711.287,1.7h2.177Zm-12.008-2.444a3.322,3.322,0,0,1-1.053-2.565,3.521,3.521,0,0,1,1.654-2.9,6.948,6.948,0,0,1,4.2-1.205h4.65v3.589a5.678,5.678,0,0,1-2.386,2.92,7.506,7.506,0,0,1-4.162,1.136A4.118,4.118,0,0,1,669.638,161.643Zm16.988-16.311h-2.159l7.174,18.755h1.672l7.158-18.755h-2.16l-5.12,14.058-0.661,2.2h-0.105l-0.609-2.2Zm28.063,18.434a7.709,7.709,0,0,0,2.6-1.724l-0.888-1.422a6.9,6.9,0,0,1-2.4,1.517,8.643,8.643,0,0,1-3.169.563,5.365,5.365,0,0,1-4.5-2.114,8.471,8.471,0,0,1-1.628-5.322v-0.572h13.113V153.08a8.787,8.787,0,0,0-1.872-5.9,6.592,6.592,0,0,0-5.3-2.193,7.3,7.3,0,0,0-5.72,2.635,9.783,9.783,0,0,0-2.308,6.691v0.953a9.6,9.6,0,0,0,2.282,6.613,7.56,7.56,0,0,0,5.938,2.574A9.818,9.818,0,0,0,714.689,163.766Zm-0.278-15.392a6.328,6.328,0,0,1,1.314,4.117v0.433h-10.8l-0.053-.1a7.384,7.384,0,0,1,1.811-4.351,5.092,5.092,0,0,1,3.953-1.716A4.578,4.578,0,0,1,714.411,148.374Z" transform="translate(-36 -32)"/>
  <path id="Shape_8_copy" data-name="Shape 8 copy" class="cls-4" d="M780.873,155.427a0.011,0.011,0,0,1-.006.006c-0.448,1.006-3.46,2.291-3.46,2.291H765.7l-9.482,16.281h-3.532l3.532-16.281h-10.6l-7.064,6.95,1.956-9.3,0.022-1.22-1.978-7.942,7.064,6.949h10.6l-3.532-17.373h3.532l9.839,17.193,11.354,0.18S781.512,154.108,780.873,155.427Z" transform="translate(-36 -32)"/>
  <path id="Shape_9_copy" data-name="Shape 9 copy" class="cls-5" d="M806,148.661c0-2.271.914-5.967,4.426-5.967,3.96,0,4.858,4.648,4.858,6.92s-0.888,5.558-2.965,5.558S806,150.936,806,148.661Zm30.334,6.405H815.144v-5.382c0-1.623,2.156-3.474,3.533-3.474h14.128c1.376,0,3.532,1.851,3.532,3.474v5.382Zm7.064-8.856v20.847h-3.532v-6.951h-35.32v6.951h-3.532v-27.8h3.532v17.372h35.32V146.21H843.4Z" transform="translate(-36 -32)"/>
  <path id="Shape_10_copy_2" data-name="Shape 10 copy 2" class="cls-6" d="M883.9,165.616v4.8a1.888,1.888,0,0,0,3.775,0v-4.8a11.184,11.184,0,0,1-1.887.162A11.3,11.3,0,0,1,883.9,165.616Zm3.775-21.441v-4.8a1.888,1.888,0,0,0-3.775,0v4.8A11.077,11.077,0,0,1,887.673,144.175ZM868.119,154.9a1.871,1.871,0,0,0,1.887,1.856h4.882a10.527,10.527,0,0,1,0-3.713h-4.882A1.872,1.872,0,0,0,868.119,154.9Zm35.333,0a1.872,1.872,0,0,0-1.887-1.857h-4.882a10.527,10.527,0,0,1,0,3.713h4.882A1.871,1.871,0,0,0,903.452,154.9Zm-30.159-12.286a1.833,1.833,0,0,0,0,2.624l3.455,3.4a11.1,11.1,0,0,1,2.669-2.623l-3.455-3.4A1.9,1.9,0,0,0,873.293,142.609Zm18.862,21.178,3.454,3.4a1.909,1.909,0,0,0,2.669,0,1.833,1.833,0,0,0,0-2.624l-3.456-3.4A11.146,11.146,0,0,1,892.155,163.787Zm-15.407-2.627-3.455,3.4a1.833,1.833,0,0,0,0,2.624,1.909,1.909,0,0,0,2.669,0l3.455-3.4A11.136,11.136,0,0,1,876.748,161.16Zm18.861-18.551-3.454,3.4a11.111,11.111,0,0,1,2.667,2.623l3.456-3.4a1.833,1.833,0,0,0,0-2.624A1.9,1.9,0,0,0,895.609,142.609Zm-13.685,5.863a7.6,7.6,0,0,0-2.669,2.624,7.359,7.359,0,0,0,0,7.6,7.555,7.555,0,0,0,2.669,2.624,7.677,7.677,0,0,0,1.974.808,7.482,7.482,0,0,0,3.775,0,7.677,7.677,0,0,0,1.974-.808,7.555,7.555,0,0,0,2.669-2.624,7.349,7.349,0,0,0,0-7.6,7.6,7.6,0,0,0-4.642-3.43A7.679,7.679,0,0,0,881.924,148.472Z" transform="translate(-36 -32)"/>
  <path id="Shape_10_copy_2-2" data-name="Shape 10 copy 2" class="cls-6" d="M883.9,165.616v4.8a1.888,1.888,0,0,0,3.775,0v-4.8a11.184,11.184,0,0,1-1.887.162A11.3,11.3,0,0,1,883.9,165.616Zm3.775-21.441v-4.8a1.888,1.888,0,0,0-3.775,0v4.8A11.077,11.077,0,0,1,887.673,144.175ZM868.119,154.9a1.871,1.871,0,0,0,1.887,1.856h4.882a10.527,10.527,0,0,1,0-3.713h-4.882A1.872,1.872,0,0,0,868.119,154.9Zm35.333,0a1.872,1.872,0,0,0-1.887-1.857h-4.882a10.527,10.527,0,0,1,0,3.713h4.882A1.871,1.871,0,0,0,903.452,154.9Zm-30.159-12.286a1.833,1.833,0,0,0,0,2.624l3.455,3.4a11.1,11.1,0,0,1,2.669-2.623l-3.455-3.4A1.9,1.9,0,0,0,873.293,142.609Zm18.862,21.178,3.454,3.4a1.909,1.909,0,0,0,2.669,0,1.833,1.833,0,0,0,0-2.624l-3.456-3.4A11.146,11.146,0,0,1,892.155,163.787Zm-15.407-2.627-3.455,3.4a1.833,1.833,0,0,0,0,2.624,1.909,1.909,0,0,0,2.669,0l3.455-3.4A11.136,11.136,0,0,1,876.748,161.16Zm18.861-18.551-3.454,3.4a11.111,11.111,0,0,1,2.667,2.623l3.456-3.4a1.833,1.833,0,0,0,0-2.624A1.9,1.9,0,0,0,895.609,142.609Zm-13.685,5.863a7.6,7.6,0,0,0-2.669,2.624,7.359,7.359,0,0,0,0,7.6,7.555,7.555,0,0,0,2.669,2.624,7.677,7.677,0,0,0,1.974.808,7.482,7.482,0,0,0,3.775,0,7.677,7.677,0,0,0,1.974-.808,7.555,7.555,0,0,0,2.669-2.624,7.349,7.349,0,0,0,0-7.6,7.6,7.6,0,0,0-4.642-3.43A7.679,7.679,0,0,0,881.924,148.472Z" transform="translate(-36 -32)"/>
</svg>
