<?xml version="1.0" encoding="utf-8"?>
<!-- Generator: Adobe Illustrator 20.1.0, SVG Export Plug-In . SVG Version: 6.00 Build 0)  -->
<svg version="1.1" id="Layer_1" xmlns="http://www.w3.org/2000/svg" xmlns:xlink="http://www.w3.org/1999/xlink" x="0px" y="0px"
	 width="50.3px" height="5000px" viewBox="0 0 50.3 5000" enable-background="new 0 0 50.3 5000" xml:space="preserve">
<title>HeadSprite</title>
<rect x="0.1" fill="none" width="50" height="5000"/>
<path fill="#3BADFF" d="M25.1,821c-5.4,0-25-16.6-25-16.6v0.3c0-2.6,2.5-4.7,5.6-4.7h38.9c3.1,0,5.6,2.1,5.6,4.7l0,0
	C50.1,804.7,30.8,821,25.1,821z M25.1,825.1c5.9,0,25-15.7,25-15.7v24.5c0,2.6-2.5,4.7-5.6,4.7H5.7c-3.1,0-5.6-2.1-5.6-4.7v-24.5
	C0.1,809.4,19.7,825.1,25.1,825.1L25.1,825.1z"/>
<path fill="#3BADFF" d="M49.4,732.2c-2.5-0.7-4.9-1.7-7-3.2c-1.7,0.5-3.4,0.8-5.2,0.8c-4.3,0-8-1.5-10.2-3.7
	c7.1-2.1,12-6.8,12.5-12.5c5.6,0.7,9.9,4.1,9.9,8.1c-0.1,2.3-1.3,4.4-3.3,5.6c0.1,0.9,0.5,2.2,3.4,4.5
	C50,731.8,50.6,732.4,49.4,732.2z M18.9,725.2c-2.2,0-4.4-0.3-6.5-0.8c-3.3,2-7,3.4-10.7,4.3c-2.2,0.5-1.5-0.2-1-0.6
	c3.4-2.7,5-4.6,5.8-6.1c-3.9-2.3-6.3-5.6-6.3-9.4c0-7,8.4-12.6,18.8-12.6s18.7,5.6,18.7,12.6S29.3,725.2,18.9,725.2L18.9,725.2z"/>
<path fill="#FFFFFF" d="M50.1,1.8L50.1,1.8c0.3,1.4-1.8,3.9-1.8,3.9l-11.2,7.7l0.5,25.9l-3,1.8l-5.1-18.6L27.3,20l-13.2,9.1
	l-1.4,10.3L12.1,40l-3.6-9h-1H7.3l0.1-0.3l0.3-0.9l-7.6-6.4L0.9,23l10.4,2.1L24.5,16l-1.6-2.9L6.7,2.2L9.4,0l24.7,9.2l11.2-7.7
	C45.3,1.5,49.8,0,50.1,1.8z"/>
<path fill="#FFFFFF" d="M38.6,103.5c0.3,0,0.6,0.1,0.8,0.2l-0.5,0.4c-0.6-0.1-1.1,0-1.7,0.2c0.4,0,0.8,0.1,1.2,0.3l-0.3,0.3
	c-0.5-0.1-1-0.1-1.5,0c0.4,0.1,0.8,0.2,1.1,0.4l-0.4,0.5c-0.4-0.2-0.9-0.2-1.3,0c0.4,0.1,0.7,0.3,1,0.4c-0.3,0.3-0.5,0.7-0.8,1
	c2.9-1.1,8.1-1.9,13.8,3c0,0-1.5,0.2-3.7,0.3c0-0.6-0.3-1.1-0.8-1.4c0.1,0.5,0.2,1,0.2,1.5h-1c0-0.5-0.3-1-0.7-1.3
	c0.1,0.4,0.1,0.9,0.1,1.3h-1c0-0.6-0.7-1.3-0.7-1.3c0.1,0.4,0.2,0.9,0.2,1.3h-1c0-0.5-0.2-1-0.7-1.2c0.1,0.4,0.1,0.9,0.1,1.3
	c-1.2,0-2.4-0.1-3.5-0.2c2.1,0.6,8.4,2.2,10.2,11.2c0,0-1-0.5-2.4-1.3c0.3-0.5,0.3-1.1,0-1.6c-0.1,0.4-0.2,0.9-0.5,1.3l-0.7-0.4
	c0.2-0.6,0.3-1.2,0-1.8c-0.1,0.5-0.3,1-0.5,1.4l-1-0.7c0.4-0.4,0.5-1,0.3-1.6c-0.2,0.4-0.5,0.9-0.8,1.3l-0.8-0.6
	c0.4-0.5,0.5-1.1,0.3-1.7c-0.2,0.5-0.4,1-0.8,1.4c-1.1-0.9-2.1-1.8-3-2.9c0.7,2,1.8,7.3,1.4,9.8c-1-0.8-1.8-1.8-2.5-2.8
	c0.2-0.4,0.6-1,0.6-1c-0.4,0.1-0.7,0.3-0.8,0.7c-0.2-0.3-0.4-0.6-0.5-0.9c0.3-0.3,0.6-0.6,0.9-0.9c-0.4,0-0.8,0.1-1.1,0.4l-0.3-0.6
	c0.2-0.4,0.6-0.7,1-0.8c-0.5-0.1-0.9,0-1.3,0.3c-0.1-0.3-0.3-0.6-0.4-1c0.4-0.3,0.9-0.5,1.4-0.6c-0.5-0.3-1.1-0.2-1.5,0.1
	c-0.1-0.3-0.2-0.6-0.3-1c0.5-0.2,1-0.3,1.6-0.3c-0.5-0.5-1.2-0.5-1.7-0.2c-0.2-0.9-0.4-1.7-0.5-2.6c-6.8,9.9-7.5,27.5-7.6,33
	c4.3,1,8.3,2.9,11.7,5.7H8.7c0,0,1.8-3.6,7.9-5.2c-0.4-3.6-1.7-13.1-5.6-19.4c-0.4,1-0.7,2.1-1,3.2c-0.4-0.1-1-0.4-1-0.4
	c0.3,0.3,0.6,0.6,0.9,0.9l-0.2,0.8c-0.3-0.1-0.5-0.3-0.7-0.4c0.2,0.3,0.4,0.6,0.6,0.9l-0.2,0.6c-0.2-0.2-0.4-0.4-0.6-0.6
	c0.1,0.3,0.3,0.7,0.6,0.9c-0.3,1.1-0.5,1.9-0.5,1.9c-1-2-1.5-4.2-1.3-6.4l-1.1,1.6l-0.6-0.1c0.1,0.2,0.3,0.3,0.4,0.4L5.9,131
	c-0.3-0.1-0.5-0.2-0.8-0.3c0.1,0.3,0.3,0.5,0.6,0.6l-0.4,0.6c-0.3-0.1-0.7-0.2-0.7-0.2c0.1,0.2,0.3,0.4,0.5,0.6l-0.3,0.5
	c-0.2-0.1-0.5-0.2-0.7-0.4c0.1,0.3,0.3,0.5,0.5,0.7l-0.3,0.5c-0.2-0.1-0.4-0.3-0.6-0.4c0.1,0.3,0.2,0.5,0.4,0.7l-1,1.6
	c-0.5-5.6,1.8-8.7,3.7-10.4c-0.7,0-1.4,0-2.1,0c-0.1-0.3-0.3-0.6-0.4-0.9c-0.1,0.3-0.1,0.6,0,0.9H3.8c-0.1-0.3-0.2-0.6-0.3-1
	c-0.2,0.3-0.3,0.6-0.2,0.9l-0.6-0.1c-0.1-0.3-0.1-0.5-0.1-0.8c-0.2,0.2-0.3,0.5-0.2,0.7l-0.6-0.1c0-0.2,0-0.4,0-0.7
	c-0.2,0.1-0.3,0.3-0.4,0.6c-0.8-0.2-1.3-0.3-1.3-0.3c3.8-3,6.4-2.9,8.2-2.4c-0.1-2.4,1-4.8,2.9-6.3c0,0-0.2,1-0.4,2.4
	c-0.2,0.2-0.4,0.4-0.6,0.6c0.2-0.1,0.3-0.2,0.5-0.3c0,0.1,0,0.3,0,0.4c-0.3,0.2-0.5,0.5-0.6,0.8c0.2-0.2,0.4-0.3,0.6-0.3v0.3
	c-0.2,0.2-0.4,0.4-0.6,0.6c0.2-0.1,0.4-0.2,0.6-0.2c0,0.2,0,0.3,0,0.5c-0.2,0.1-0.5,0.2-0.6,0.4c0.2-0.1,0.4-0.1,0.6-0.1
	c0,0.3,0,0.6,0,0.9c1-1.9,3.4-4.7,8.5-4.8c0,0-0.7,0.8-1.8,1.8c-0.2-0.2-0.6-0.4-0.8-0.3c0.2,0.2,0.3,0.4,0.5,0.6l-0.5,0.5
	c-0.2-0.1-0.5-0.2-0.7-0.3c0.2,0.1,0.3,0.3,0.4,0.6l-0.5,0.5c-0.2-0.1-0.5-0.2-0.7-0.3c0.2,0.1,0.3,0.3,0.4,0.5l-0.5,0.4
	c-0.2-0.2-0.5-0.4-0.8-0.4c0.2,0.2,0.4,0.4,0.5,0.7c-0.6,0.5-1.3,1-1.9,1.5c1.4-0.6,5.3-2.7,10.1,1.1c0,0-0.7,0.2-1.8,0.4
	c-0.1-0.3-0.3-0.8-0.6-0.9c0.1,0.3,0.2,0.6,0.2,0.9l-0.5,0.1c-0.1-0.3-0.4-0.6-0.6-0.8c0.1,0.3,0.2,0.6,0.3,0.9l-0.8,0.1
	c0-0.4-0.2-0.7-0.5-1c0.1,0.3,0.1,0.7,0.1,1l-0.7,0.1c0-0.4-0.2-0.7-0.5-0.9c0.1,0.3,0.1,0.7,0.1,1c-0.9,0.1-1.9,0-2.8-0.1
	c1.9,1.2,3.6,2.7,5,4.4c-0.9,0-1.7-0.1-2.5-0.3c-0.1-0.2-0.1-0.4-0.2-0.7c-0.1,0.2-0.1,0.4-0.1,0.6l-0.7-0.2c0-0.3,0-0.6,0-0.8
	c-0.2,0.2-0.3,0.4-0.4,0.7l-0.4-0.2c0-0.3,0-0.6,0-0.9c-0.2,0.2-0.3,0.4-0.3,0.7l-0.6-0.3c0-0.3,0.1-0.6,0.1-0.8
	c-0.3,0.1-0.4,0.4-0.4,0.7l-0.6-0.4c0.1-0.3,0.2-0.5,0.4-0.8c-0.3,0-0.6,0.4-0.7,0.6c-0.4-0.3-0.8-0.6-1.1-0.9
	c5.5,7,7.3,16.2,7.9,19.9c0.6-0.1,1.2-0.1,1.8-0.1c0.1-5.2,1.1-19.8,8.7-31.3c-1,0.6-1.9,1.2-2.9,1.9c-0.3-0.5-0.6-1-0.8-1.6
	c-0.1,0.7,0,1.4,0.1,2l-1,0.7c-0.1-0.7-0.3-1.9-0.3-1.9c-0.3,0.7-0.4,1.5-0.3,2.3l-0.8,0.6c-0.1-0.7-0.2-1.8-0.2-1.8
	c-0.3,0.7-0.3,1.4-0.2,2.1c-1.3,1-2.2,1.7-2.2,1.7c0.6-3.2,2.1-6.1,4.4-8.4l-2.7,0.7c-0.2-0.4-0.4-0.8-0.6-1.2
	c-0.1,0.4,0,0.9,0.1,1.3l-0.8,0.2c-0.3-0.5-0.7-1.4-0.7-1.4c-0.1,0.5-0.1,1,0.1,1.5l-1,0.3c-0.2-0.4-0.4-0.8-0.6-1.2
	c-0.1,0.4-0.1,0.9,0,1.3l-0.8,0.2c-0.2-0.4-0.3-0.9-0.3-1.4c-0.2,0.5-0.3,1-0.2,1.5l-0.8,0.2c-0.1-0.4-0.2-0.8-0.2-1.2
	c-0.2,0.4-0.2,0.9-0.2,1.3l-2.5,0.8c4.5-6.7,10-8,13.7-7.9c-0.8-0.6-1.6-1.3-2.3-2c0.2-0.5,0.4-1,0.7-1.5c-0.5,0.2-0.9,0.6-1.1,1.1
	l-0.5-0.6c0.2-0.5,0.4-1,0.7-1.4c-0.5,0.1-1,0.4-1.2,0.9l-0.6-0.7c0.2-0.4,0.5-0.7,0.8-1c-0.5,0-0.9,0.2-1.2,0.6l-0.6-0.7
	c0.2-0.3,1-0.7,1-0.7c-0.5,0-0.9,0.1-1.3,0.3c-0.7-1-1.2-1.6-1.2-1.6c7,0.4,9.7,3,11.3,5.4c2.1-2.8,5.5-4.4,9-4.3
	c0,0-1.2,0.9-2.6,2.3C39.4,103.3,39,103.3,38.6,103.5z"/>
<path fill="#FFFFFF" d="M44.4,338.5v-3.9H5.9v3.9H0.1V327h50v11.5H44.4z M5.9,315.4h3.8l1.9,1.9h9.6l1.9-1.9h4l1.9,1.9h9.6l1.9-1.9
	h3.8l5.8,9.6h-50L5.9,315.4z M40.5,313.5l-1.9-5.8H29l-1.9,5.8h-3.9l-1.9-5.8h-9.6l-1.9,5.8H5.9L4,300l3.9,1.9h34.6l3.8-1.9
	l-1.9,13.5H40.5z"/>
<path fill="#FFFFFF" d="M50.1,414.5l-14.6,7.9H7.6l-7.5-7.9H50.1z M8,409.2h25l4,4H4.1L8,409.2z M12,405.3h13.1l2.6,2.6H9.3
	L12,405.3z M14.6,400h2.6v4h-2.6V400z M18.6,400h2.6v4h-2.6V400z"/>
<path fill="#FFFFFF" d="M48.5,512.4c-0.6-0.5-0.5-1.2-1-1.8c-0.5-0.6-1.2-0.9-2-1h-0.1c-0.1,0-0.1,0.2-0.1,0.3l0,0
	c1.1,1.8,2.8,3.1,4.8,3.6c0,0.6-0.1,1.2-0.1,2c0,0.1,0,0.1-0.1,0.2c-0.4,0.3-0.6,0.7-0.6,1.2c0,0.1-0.1,0.2-0.2,0.2l-3.5,0.3
	c0-0.3,0.1-0.5,0.1-0.8c-0.1-2.8-2.5-5-5.4-4.9c-2.7,0.1-4.8,2.2-4.9,4.9c0,0.3,0,0.6,0.1,0.9H16.2c0.1-0.3,0.1-0.6,0.1-0.9
	c-0.1-2.8-2.3-5-5.1-4.9l0,0c-2.8-0.1-5.1,2.1-5.1,4.9l0,0c0,0.3,0,0.6,0.1,0.9H5.4H5.3l-1.4-0.7c-0.3,0-1.6-0.1-1.6-0.9
	c0-0.1-0.5,0-0.5-0.2c-2.3-1.5-1.6-3.2-1.6-3.2c0-0.1,0.1-0.1,0.1-0.1h1.8c0.6,0,0.6-1.3,0.5-1.6c-0.2-1-1.1-1.2-1.3-1
	s-0.1,0.9,0.1,1.6c0.1,0.3,0.2,0.6-0.3,0.6H0.7c-0.3-1-1-3.5,0.4-5.5c1.4-1.8,5.6-5.3,6.9-5.6c2.7-0.6,5.5-0.8,11.3-0.8
	c1.5,0,2.9,0.2,4.4,0.4c3.8,1.4,7.3,3.3,10.4,5.7c7,0.7,13.6,2.1,15,4.1l0.7,1.4c0.2,0.4,0.3,0.9,0.3,1.4
	C49.5,512.9,49,512.7,48.5,512.4z M31.2,506.7c-0.6-0.8-5.9-4.5-7.7-4.9c-2.5-0.5-3.5-0.8-11.8,0c-1.4,0.3-2.7,1.1-3.4,2.4
	c-1,1.2-1.6,2.4,0,2.4c3.1,0,21.8,1.1,22.5,1.1S31.6,507.1,31.2,506.7L31.2,506.7z M11.2,512.4c2.3-0.2,4.2,1.6,4.4,3.8
	s-1.6,4.2-3.8,4.4c-0.2,0-0.4,0-0.6,0c-2.3,0.2-4.2-1.6-4.4-3.8s1.6-4.2,3.8-4.4C10.8,512.4,11,512.4,11.2,512.4z M11.2,518.9
	c1.3-0.1,2.4-1.2,2.3-2.6s-1.2-2.4-2.6-2.3c-1.3,0.1-2.3,1.1-2.3,2.4C8.7,517.8,9.8,518.9,11.2,518.9L11.2,518.9z M11.2,514.4
	c1.1,0.1,2,1,1.9,2.1s-1,2-2.1,1.9s-1.9-1-1.9-2S10,514.4,11.2,514.4L11.2,514.4z M40.6,512.4c2.3,0.1,4,2,3.9,4.3s-2,4-4.3,3.9
	c-2.2-0.1-4-1.9-3.9-4.1C36.4,514.2,38.3,512.3,40.6,512.4L40.6,512.4z M40.6,518.9c1.3-0.1,2.4-1.2,2.3-2.5
	c-0.1-1.3-1.2-2.4-2.5-2.3c-1.3,0.1-2.3,1.1-2.3,2.4C38.1,517.9,39.2,518.9,40.6,518.9L40.6,518.9z M40.6,514.4c1.1,0.1,2,1,1.9,2.1
	s-1,2-2.1,1.9s-1.9-1-1.9-2C38.5,515.3,39.4,514.4,40.6,514.4L40.6,514.4z"/>
<path fill="#FFFFFF" d="M25.1,600c-0.6,0-1.2,0.4-1.5,1l-6.1,14.7L1.6,617c-0.6,0.1-1.2,0.5-1.4,1.1s0,1.3,0.5,1.7l12.1,10.4
	l-3.7,15.6c-0.1,0.5,0,0.9,0.3,1.3c0.5,0.7,1.4,0.8,2.1,0.4l13.6-8.3l13.6,8.3c0.7,0.5,1.7,0.2,2.2-0.5c0.2-0.4,0.3-0.8,0.2-1.2
	l-3.7-15.5l12.1-10.4c0.7-0.6,0.8-1.6,0.2-2.2c-0.3-0.3-0.7-0.5-1.1-0.6l-16-1.3l-6-14.8C26.4,600.4,25.8,600,25.1,600z"/>
<path fill="#FF6D00" d="M50.1,51.8L50.1,51.8c0.3,1.3-1.8,3.9-1.8,3.9l-11.2,7.7l0.5,25.9l-3,1.8l-5.1-18.6L27.3,70l-13.2,9.1
	l-1.4,10.4L12.1,90l-3.6-9l-1-0.1H7.3l0.1-0.3l0.3-0.9l-7.6-6.4L0.9,73l10.4,2.1L24.5,66l-1.6-2.9l-16.1-11L9.4,50l24.7,9.2
	l11.2-7.7C45.3,51.5,49.8,50,50.1,51.8z"/>
<path fill="#FF6D00" d="M38.6,203.5c0.3,0,0.6,0.1,0.8,0.2l-0.5,0.4c-0.6-0.1-1.1,0-1.7,0.1c0.4,0,0.8,0.1,1.2,0.3l-0.3,0.4
	c-0.5-0.1-1-0.1-1.5,0c0.4,0.1,0.8,0.2,1.1,0.4l-0.4,0.5c-0.4-0.2-0.9-0.2-1.3,0c0.4,0.1,0.7,0.3,1,0.4c-0.3,0.3-0.5,0.7-0.8,1
	c2.9-1.1,8.1-1.9,13.8,3c0,0-1.5,0.2-3.7,0.3c0-0.6-0.3-1.1-0.8-1.4c0.1,0.5,0.2,1,0.2,1.5h-1c0-0.5-0.3-1-0.7-1.3
	c0.1,0.4,0.1,0.9,0.1,1.3h-1c0-0.6-0.7-1.3-0.7-1.3c0.1,0.4,0.2,0.9,0.2,1.4h-1c0-0.5-0.2-1-0.7-1.2c0.1,0.4,0.1,0.9,0.1,1.3
	c-1.2,0-2.4-0.1-3.5-0.2c2.1,0.6,8.4,2.2,10.2,11.1c0,0-1-0.5-2.4-1.4c0.3-0.5,0.3-1.1,0-1.6c-0.1,0.4-0.2,0.9-0.5,1.3l-0.7-0.4
	c0.2-0.6,0.3-1.2,0-1.8c-0.1,0.5-0.3,1-0.5,1.4l-1-0.7c0.4-0.4,0.5-1,0.3-1.6c-0.2,0.4-0.5,0.9-0.8,1.3l-0.8-0.6
	c0.4-0.5,0.5-1.1,0.3-1.7c-0.2,0.5-0.4,1-0.8,1.4c-1.1-0.9-2.1-1.8-3-2.9c0.7,2,1.8,7.3,1.4,9.8c-1-0.8-1.8-1.8-2.5-2.8
	c0.2-0.4,0.6-1,0.6-1c-0.4,0.1-0.7,0.3-0.8,0.7c-0.2-0.3-0.4-0.6-0.5-0.9c0.3-0.3,0.6-0.6,0.9-0.9c-0.4,0-0.8,0.1-1.1,0.4l-0.3-0.6
	c0.2-0.4,0.6-0.7,1-0.9c-0.5-0.1-0.9,0-1.3,0.3c-0.1-0.3-0.3-0.6-0.4-1c0.4-0.3,0.9-0.5,1.4-0.6c-0.5-0.3-1.1-0.2-1.5,0.1
	c-0.1-0.3-0.2-0.6-0.3-1c0.5-0.2,1-0.3,1.6-0.3c-0.5-0.5-1.2-0.5-1.7-0.2c-0.2-0.9-0.4-1.7-0.5-2.6c-6.8,9.9-7.5,27.5-7.6,33
	c4.3,1,8.3,2.9,11.7,5.7H8.7c0,0,1.8-3.6,7.9-5.2c-0.4-3.6-1.7-13.1-5.6-19.4c-0.4,1-0.7,2.1-1,3.2c-0.4-0.1-1-0.4-1-0.4
	c0.3,0.3,0.6,0.6,0.9,0.9l-0.2,0.8c-0.3-0.1-0.5-0.3-0.7-0.4c0.2,0.3,0.4,0.6,0.6,0.9l-0.2,0.6c-0.2-0.2-0.4-0.4-0.6-0.6
	c0.1,0.3,0.3,0.7,0.6,0.9c-0.3,1.3-0.5,2.1-0.5,2.1c-1-2-1.5-4.2-1.3-6.4l-1.1,1.6l-0.6-0.1c0.1,0.2,0.3,0.3,0.4,0.4L5.9,231
	c-0.3-0.1-0.5-0.2-0.8-0.3c0.1,0.3,0.3,0.5,0.6,0.6l-0.4,0.6c-0.3-0.1-0.7-0.2-0.7-0.2c0.1,0.2,0.3,0.4,0.5,0.6l-0.3,0.5
	c-0.2-0.1-0.5-0.2-0.7-0.4c0.1,0.3,0.3,0.5,0.5,0.7l-0.3,0.5c-0.2-0.1-0.4-0.3-0.6-0.4c0.1,0.3,0.2,0.5,0.4,0.7l-1,1.6
	c-0.5-5.6,1.8-8.7,3.7-10.4c-0.7,0-1.4,0-2.1,0c-0.1-0.3-0.3-0.6-0.4-0.9c-0.1,0.3-0.1,0.6,0,0.9H3.8c-0.1-0.3-0.2-0.6-0.3-0.9
	c-0.2,0.3-0.3,0.6-0.2,0.9L2.7,225c-0.1-0.3-0.1-0.5-0.1-0.8c-0.2,0.2-0.3,0.5-0.2,0.7l-0.6-0.1c0-0.2,0-0.4,0-0.6
	c-0.2,0.1-0.3,0.3-0.4,0.6c-0.8-0.2-1.3-0.3-1.3-0.3c3.8-3,6.4-2.9,8.2-2.4c-0.1-2.4,1-4.8,2.9-6.3c0,0-0.2,1-0.4,2.4
	c-0.2,0.2-0.4,0.4-0.6,0.6c0.2-0.1,0.3-0.2,0.5-0.3c0,0.1,0,0.3,0,0.4c-0.3,0.2-0.5,0.5-0.6,0.8c0.2-0.2,0.4-0.3,0.6-0.4v0.3
	c-0.2,0.2-0.4,0.4-0.6,0.6c0.2-0.1,0.4-0.2,0.6-0.2c0,0.1,0,0.3,0,0.5c-0.2,0.1-0.5,0.2-0.6,0.4c0.2-0.1,0.4-0.1,0.6-0.1
	c0,0.3,0,0.6,0,0.9c1-1.9,3.4-4.7,8.5-4.8c0,0-0.7,0.8-1.8,1.9c-0.2-0.2-0.6-0.4-0.8-0.3c0.2,0.2,0.3,0.4,0.5,0.6l-0.5,0.5
	c-0.2-0.1-0.5-0.2-0.7-0.3c0.2,0.1,0.3,0.3,0.4,0.6l-0.5,0.5c-0.2-0.1-0.5-0.2-0.7-0.3c0.2,0.1,0.3,0.3,0.4,0.5L15,221
	c-0.2-0.2-0.5-0.4-0.8-0.4c0.2,0.2,0.4,0.4,0.5,0.6c-0.6,0.5-1.3,1-1.9,1.5c1.4-0.6,5.3-2.7,10.1,1.1c0,0-0.7,0.2-1.8,0.4
	c-0.1-0.3-0.3-0.8-0.6-0.9c0.1,0.3,0.2,0.6,0.2,0.9l-0.5,0.1c-0.1-0.3-0.4-0.6-0.6-0.8c0.1,0.3,0.2,0.6,0.3,0.9l-0.8,0.1
	c0-0.4-0.2-0.7-0.5-1c0.1,0.3,0.1,0.7,0.1,1l-0.7,0.1c0-0.4-0.2-0.7-0.5-0.9c0.1,0.3,0.1,0.7,0.1,1c-0.9,0.1-1.9,0-2.8-0.1
	c1.9,1.2,3.6,2.7,5,4.4c-0.9,0-1.7-0.1-2.5-0.3c-0.1-0.2-0.1-0.4-0.2-0.7c-0.1,0.2-0.1,0.4-0.1,0.6l-0.7-0.2c0-0.3,0-0.6,0-0.8
	c-0.2,0.2-0.3,0.4-0.4,0.7l-0.4-0.2c0-0.3,0-0.6,0-0.9c-0.2,0.2-0.3,0.4-0.3,0.7l-0.6-0.3c0-0.3,0.1-0.6,0.1-0.8
	c-0.3,0.1-0.4,0.4-0.4,0.7l-0.6-0.4c0.1-0.3,0.2-0.5,0.4-0.8c-0.3,0-0.6,0.4-0.7,0.6c-0.4-0.3-0.8-0.6-1.1-0.9
	c5.5,7,7.3,16.2,7.9,19.9c0.6-0.1,1.2-0.1,1.8-0.1c0.1-5.2,1.1-19.8,8.7-31.3c-1,0.6-1.9,1.2-2.9,1.9c-0.3-0.5-0.6-1-0.8-1.6
	c-0.1,0.7,0,1.4,0.1,2l-1,0.7c-0.1-0.7-0.3-1.9-0.3-1.9c-0.3,0.7-0.4,1.5-0.3,2.3l-0.8,0.6c-0.1-0.7-0.2-1.8-0.2-1.8
	c-0.3,0.7-0.3,1.4-0.2,2.1c-1.3,1-2.2,1.7-2.2,1.7c0.6-3.2,2.1-6.1,4.4-8.4l-2.7,0.7c-0.2-0.4-0.4-0.8-0.6-1.1
	c-0.1,0.4,0,0.9,0.1,1.3l-0.8,0.2c-0.3-0.5-0.7-1.4-0.7-1.4c-0.1,0.5-0.1,1,0.1,1.5l-1,0.3c-0.2-0.4-0.4-0.8-0.6-1.2
	c-0.1,0.4-0.1,0.9,0,1.3l-0.8,0.2c-0.2-0.4-0.3-0.9-0.3-1.4c-0.2,0.5-0.3,1-0.2,1.5l-0.8,0.2c-0.1-0.4-0.2-0.8-0.2-1.2
	c-0.2,0.4-0.2,0.9-0.2,1.3l-2.5,0.8c4.5-6.7,10-8,13.7-7.9c-0.8-0.6-1.6-1.3-2.3-2c0.2-0.5,0.4-1,0.7-1.5c-0.5,0.2-0.9,0.6-1.1,1.1
	l-0.5-0.6c0.2-0.5,0.4-1,0.7-1.4c-0.5,0.1-1,0.4-1.2,0.9l-0.6-0.7c0.2-0.4,0.5-0.7,0.8-1c-0.5,0-0.9,0.2-1.2,0.6l-0.6-0.7
	c0.2-0.3,1-0.7,1-0.7c-0.5,0-0.9,0.1-1.3,0.3c-0.7-1-1.2-1.6-1.2-1.6c7,0.4,9.7,3,11.3,5.4c2.1-2.8,5.5-4.4,9-4.3
	c0,0-1.2,0.9-2.6,2.3C39.4,203.3,39,203.3,38.6,203.5z"/>
<path fill="#FF6D00" d="M49.4,782.2c-2.5-0.7-4.9-1.7-7-3.2c-1.7,0.5-3.4,0.8-5.2,0.8c-4.3,0-8-1.5-10.2-3.7
	c7.1-2.1,12-6.8,12.5-12.5c5.6,0.7,9.9,4.1,9.9,8.1c-0.1,2.3-1.3,4.4-3.3,5.6c0.1,0.9,0.5,2.2,3.4,4.5
	C50,781.8,50.6,782.4,49.4,782.2z M18.9,775.2c-2.2,0-4.4-0.3-6.5-0.8c-3.3,2-7,3.4-10.7,4.3c-2.2,0.5-1.5-0.2-1-0.6
	c3.4-2.7,5-4.6,5.8-6.1c-3.9-2.3-6.3-5.6-6.3-9.4c0-7,8.4-12.6,18.8-12.6s18.7,5.6,18.7,12.6S29.3,775.2,18.9,775.2L18.9,775.2z"/>
<path fill="#FF6D00" d="M44.4,388.5v-3.9H5.9v3.9H0.1V377h50v11.5H44.4z M5.9,365.4h3.8l1.9,1.9h9.6l1.9-1.9h4l1.9,1.9h9.6l1.9-1.9
	h3.8l5.8,9.6h-50L5.9,365.4z M40.5,363.5l-1.9-5.8H29l-1.9,5.8h-3.9l-1.9-5.8h-9.6l-1.9,5.8H5.9L4,350l3.9,1.9h34.6l3.8-1.9
	l-1.9,13.5H40.5z"/>
<path fill="#FF6D00" d="M50.1,464.5l-14.6,7.9H7.6l-7.5-7.9H50.1z M8,459.2h25l4,4H4.1L8,459.2z M12,455.3h13.1l2.6,2.6H9.3
	L12,455.3z M14.6,450h2.6v4h-2.6V450z M18.6,450h2.6v4h-2.6V450z"/>
<path fill="#FF6D00" d="M48.5,562.4c-0.6-0.5-0.5-1.2-1-1.8s-1.2-0.9-2-1h-0.1c-0.1,0-0.1,0.2-0.1,0.3l0,0c1.1,1.8,2.8,3.1,4.8,3.6
	c0,0.6-0.1,1.2-0.1,2c0,0.1,0,0.1-0.1,0.2c-0.4,0.3-0.6,0.7-0.6,1.2c0,0.1-0.1,0.2-0.2,0.2l-3.5,0.3c0-0.3,0.1-0.5,0.1-0.8
	c-0.1-2.8-2.5-5-5.4-4.9c-2.7,0.1-4.8,2.2-4.9,4.9c0,0.3,0,0.6,0.1,0.9H16.2c0.1-0.3,0.1-0.6,0.1-0.9c-0.1-2.8-2.3-5-5.1-4.9l0,0
	c-2.8-0.1-5.1,2.1-5.1,4.9l0,0c0,0.3,0,0.6,0.1,0.9H5.4H5.3l-1.4-0.7c-0.3,0-1.6-0.1-1.6-0.9c0-0.1-0.5,0-0.5-0.2
	c-2.3-1.5-1.6-3.2-1.6-3.2c0-0.1,0.1-0.1,0.1-0.1h1.8c0.6,0,0.6-1.3,0.5-1.7c-0.2-1-1.1-1.2-1.3-1s-0.1,0.9,0.1,1.6
	c0.1,0.3,0.2,0.6-0.3,0.6H0.7c-0.3-1-1-3.5,0.4-5.5c1.4-1.8,5.6-5.3,6.9-5.6c2.7-0.7,5.5-0.8,11.3-0.8c1.5,0,2.9,0.2,4.4,0.4
	c3.8,1.4,7.3,3.3,10.4,5.7c7,0.7,13.6,2.2,15,4.1l0.7,1.4c0.2,0.4,0.3,0.9,0.3,1.4C49.5,562.9,49,562.7,48.5,562.4z M31.2,556.7
	c-0.6-0.8-5.9-4.5-7.7-4.9c-2.5-0.5-3.5-0.8-11.8,0c-1.4,0.3-2.7,1.1-3.4,2.3c-1,1.2-1.6,2.4,0,2.4c3.1,0,21.8,1.1,22.5,1.1
	S31.6,557.1,31.2,556.7L31.2,556.7z M11.2,562.4c2.3-0.2,4.2,1.6,4.4,3.8s-1.6,4.2-3.8,4.4c-0.2,0-0.4,0-0.6,0
	c-2.3,0.2-4.2-1.6-4.4-3.8s1.6-4.2,3.8-4.4C10.8,562.4,11,562.4,11.2,562.4z M11.2,568.9c1.3-0.1,2.4-1.2,2.3-2.6s-1.2-2.4-2.6-2.3
	c-1.3,0.1-2.3,1.1-2.3,2.4C8.7,567.8,9.8,568.9,11.2,568.9L11.2,568.9z M11.2,564.4c1.1,0.1,2,1,1.9,2.1s-1,2-2.1,1.9s-1.9-1-1.9-2
	S10,564.4,11.2,564.4L11.2,564.4z M40.6,562.4c2.3,0.1,4,2,3.9,4.3s-2,4-4.3,3.9c-2.2-0.1-4-1.9-3.9-4.1
	C36.4,564.2,38.3,562.3,40.6,562.4L40.6,562.4z M40.6,568.9c1.3-0.1,2.4-1.2,2.3-2.5c-0.1-1.3-1.2-2.4-2.5-2.3
	c-1.3,0.1-2.3,1.1-2.3,2.4C38.1,567.9,39.2,568.9,40.6,568.9L40.6,568.9z M40.6,564.4c1.1,0.1,2,1,1.9,2.1s-1,2-2.1,1.9
	s-1.9-1-1.9-2C38.5,565.3,39.4,564.4,40.6,564.4L40.6,564.4z"/>
<path fill="#FF6D00" d="M25.1,650c-0.6,0-1.2,0.4-1.5,1l-6.1,14.7L1.6,667c-0.6,0.1-1.2,0.5-1.4,1.1s0,1.3,0.5,1.7l12.1,10.4
	l-3.7,15.6c-0.1,0.5,0,0.9,0.3,1.3c0.5,0.7,1.4,0.8,2.1,0.4l13.6-8.3l13.6,8.3c0.7,0.5,1.7,0.2,2.2-0.5c0.2-0.4,0.3-0.8,0.2-1.2
	l-3.7-15.5l12.1-10.4c0.7-0.6,0.8-1.6,0.2-2.2c-0.3-0.3-0.7-0.5-1.1-0.6l-16-1.3l-6-14.8C26.4,650.4,25.8,650,25.1,650z"/>
<path fill="#FFFFFF" d="M49.4,949.3c-1,1-2.5,1-3.5,0l-9.7-9.7c-0.7-0.7-0.9-1.7-0.6-2.5l-4.4-4.4l-0.1,0.2
	c-7.8,6.8-19.6,6-26.4-1.8s-6-19.6,1.8-26.4s19.6-6,26.4,1.8c3,3.4,4.6,7.8,4.6,12.3c0,4.2-1.4,8.3-4.1,11.6
	c-0.3,0.4-0.5,0.7-0.7,0.9l4.4,4.4c0.9-0.3,1.9-0.1,2.5,0.6l9.7,9.7C50.4,946.8,50.4,948.3,49.4,949.3L49.4,949.3z M34.9,918.7
	c0-8.8-7.2-16-16-16s-16,7.2-16,16s7.2,16,16,16S34.9,927.6,34.9,918.7z"/>
<path fill="#FFFFFF" d="M50,1020.5L27.5,1001c-1.2-1.3-3.3-1.4-4.6-0.1l-0.1,0.1l-22.5,19.5c-1.3,1.4,8.8,2.9,8.8,2.9v17.6h11.7
	v-14.6h8.8v14.6h11.7v-17.6C41.1,1023.4,51.3,1021.8,50,1020.5z"/>
<path fill="#225BAF" d="M50.1,1075l-23.8,23.8l-0.7-0.7l23.1-23.1l-23.1-23.2l0.7-0.7L50.1,1075z"/>
<path fill="#FFFFFF" d="M50.1,1125l-23.8,23.8l-0.7-0.7l23.1-23.1l-23.1-23.2l0.7-0.7L50.1,1125z"/>
<path fill="#FF6D00" d="M50.1,1175l-23.8,23.8l-0.7-0.7l23.1-23.1l-23.1-23.2l0.7-0.7L50.1,1175z"/>
<path fill="#FF6D00" d="M21.6,1301.7L21.6,1301.7v0.2V1301.7z M11.7,1345.9c-10.8-7.4-13.6-22.1-6.2-32.9c0.8-1.2,1.8-2.4,2.8-3.4
	c0.1-0.7,0.3-1.3,0.4-2c-10.4,9-11.5,24.7-2.5,35c1.6,1.8,3.4,3.4,5.4,4.7C11.6,1346.8,11.6,1346.4,11.7,1345.9L11.7,1345.9z
	 M29.6,1349.5c-2.7,0.5-5.4,0.6-8.1,0.2c0,0.4-0.1,0.8-0.2,1.2c2.8,0.5,5.7,0.4,8.5-0.2C29.6,1350.4,29.6,1350,29.6,1349.5
	L29.6,1349.5z M23.1,1302.8c0.6-0.1,1.3-0.1,1.9-0.1c2.2,0,4.3,0.3,6.4,0.9c0.2-0.4,0.4-0.8,0.5-1.1c-2.3-0.7-4.6-1-7-1
	c-0.8,0-1.5,0-2.2,0.1C22.9,1302,23,1302.4,23.1,1302.8L23.1,1302.8z M38.2,1305.3v1.4c10.8,7.3,13.7,22,6.4,32.8
	c-1.5,2.2-3.3,4.1-5.4,5.7c0,0.5,0.1,1,0.1,1.4c11.2-7.9,13.9-23.4,6.1-34.6C43.5,1309.4,41,1307.1,38.2,1305.3L38.2,1305.3z
	 M37,1300.3c0,0,0.4,18.1,0.5,32.2c0.1,8.9,0.9,16.3,0.9,16.9c0.1,1.1-0.3,2.1-1.1,2.8c-0.7,0.7-1.7,1-2.7,1l0,0c-1,0-1.9-0.3-2.7-1
	s-1.2-1.8-1.1-2.8c0-1.3,1.4-17.1,1.4-17.1s0-0.6-1.3-1.2c-2.6-1.2-3.1-3.3-3.1-6.3c0-5.1,4.1-24.4,8-24.4L37,1300.3z M19.7,1322.8
	c-1.5,0.7-1.4,1.3-1.4,1.3s1.9,23.7,1.9,25.3c0.1,1.1-0.3,2.1-1.1,2.8c-0.7,0.7-1.7,1-2.7,1l0,0c-1,0-1.9-0.3-2.7-1
	s-1.2-1.8-1.1-2.8c0-1.3,1.9-25.3,1.9-25.3s0-0.6-1.4-1.2c-2.7-1.2-4.4-3.9-4.4-6.9c0-5.1,1.8-11.1,2.8-15.9h1v13.9
	c0,0.7,0.4,1.3,1.1,1.3c0.6,0,1.1-0.5,1.1-1.2l0,0v-0.1l1-13.9h1l1.2,13.9v0.1c0.1,0.7,0.4,1.2,1,1.2s1.1-0.6,1.1-1.3v-14h1l0,0
	c1.1,4.8,2.9,10.7,2.9,15.9C24.1,1318.8,22.4,1321.5,19.7,1322.8L19.7,1322.8z"/>
<path fill="#FF6D00" d="M43.4,1468.7c-1.3,0-2.5-0.3-3.6-1l-0.3-0.2c-0.4-0.2-0.7-0.5-1-0.8c-0.9-0.9-1.7-2.6-0.9-5.5
	c0.3-1.2,1.3-2.2,2.6-2.3c1.4-0.2,2.9,0.4,3.7,1.6c0.6,1,0.5,2.3-0.5,3.6l1.1,0.8c1.7-2.4,1-4.2,0.5-5.1c-1.1-1.6-3.1-2.5-5-2.2
	c-1.8,0.1-3.4,1.5-3.7,3.3c-0.4,3.3-0.5,5.2,1.3,6.9h-25c1.8-1.8,2.1-4.3,1.3-6.9c-0.4-1.8-1.9-3.1-3.7-3.3c-1.9-0.3-3.9,0.6-5,2.2
	c-0.5,0.8-1.2,2.7,0.5,5.1l1.1-0.8c-0.9-1.3-1.1-2.6-0.5-3.6c0.8-1.2,2.2-1.8,3.7-1.6c1.3,0.1,2.3,1.1,2.6,2.3
	c0.8,2.9,0,4.5-0.9,5.5c-0.3,0.3-0.6,0.6-1,0.8l-0.3,0.2c-3.2,2-7.3,1-9.3-2.1c-2-3.2-1-7.3,2.1-9.3c1-0.7,2.2-1,3.5-1h36.8
	c3.7,0,6.7,3.1,6.7,6.8C50.2,1465.8,47.1,1468.8,43.4,1468.7L43.4,1468.7z M10.9,1450h28.6c2,0,3.6,1.6,3.6,3.6H7.3
	C7.3,1453.6,8.9,1450,10.9,1450z M12.6,1469.6h25c2,0,3.6,1.6,3.6,3.6s-1.6,3.6-3.6,3.6h-25c-2,0-3.6-1.6-3.6-3.6
	C9.1,1471.2,10.7,1469.6,12.6,1469.6z M37.6,1496.8h-3.5v-12.9h-3.6v12.9h-3.6v-12.9h-3.6v12.9h-3.6v-12.9h-3.6v12.9h-3.6v-18.2h25
	v18.2H37.6z"/>
<path fill="#FF6D00" d="M8.1,1645.2c-0.4-0.4-0.7-0.7-1.1-1.1l-2.5,4.3c-1,1.7-0.4,3.8,1.3,4.8c0.5,0.3,1.1,0.5,1.8,0.5
	c1.2,0,2.4-0.7,3-1.7l1.9-3.3C10.9,1647.6,9.4,1646.5,8.1,1645.2z M42.1,1610.8c1.8,1.7,3.2,3.7,4.4,5.9c4.1-3.2,4.8-9.1,1.6-13.1
	c-3.2-4.1-9.1-4.8-13.1-1.6c-1,0.8-1.9,1.8-2.5,3C36.1,1606.1,39.4,1608.1,42.1,1610.8z M3.8,1616.7c3-5.6,8-9.8,14-11.7
	c-2.4-4.6-8-6.4-12.6-4s-6.4,8-4,12.6C1.8,1614.8,2.7,1615.9,3.8,1616.7z M23.2,1605.7c-11.7,1-20.6,10.8-20.5,22.5
	c0.2,12.3,10.1,22.1,22.4,22.1h0.2c12.4-0.2,22.2-10.4,22.1-22.7c-0.2-11.5-9-21-20.4-22 M26,1609.9v20.1l0.1-0.1l-11-16.2
	c1.2-1.6,2.8-2.7,4.7-3.3C21.8,1609.7,23.9,1609.5,26,1609.9L26,1609.9z M43.2,1644c-0.3,0.3-0.5,0.6-0.8,0.9
	c-1.4,1.4-2.9,2.6-4.6,3.7l1.9,3.3c0.6,1.1,1.8,1.7,3,1.7c0.6,0,1.2-0.2,1.7-0.5c1.7-0.9,2.2-3.1,1.3-4.7l0,0L43.2,1644z"/>
<path fill="#FF6D00" d="M25.5,1826.4l8.5-17.1l13.9-9.3l2.2,3.3l-13,8.7l-7.2,14.4H25.5z M38.7,1817.6l-1.8,3.6
	c1.6,0.9,2.6,2,2.6,3.3c0,2.9-5.6,5.3-12.9,5.8l-3.6,5.9v-5.8h-0.7l-4,12.6v-13c-6-0.8-10.3-3-10.3-5.5c0-3.3,7-5.9,15.8-5.9
	c0.4,0,0.8,0,1.3,0l1.9-3.9c-1-0.1-2.1-0.1-3.2-0.1c-13.1,0-23.6,4.5-23.6,19.7s10.6,27.6,23.6,27.6s23.6-12.3,23.6-27.6
	C47.4,1825.6,44,1820.5,38.7,1817.6L38.7,1817.6z"/>
<path fill="#FF6D00" d="M0.1,2084.4l7.7,3.1l6.1,2.4l4.6,2l4.9,2.2l4.2,1.9l3.9,1.6l2.6,0.8l0.9,0.2l0.7,0.1h0.6l1.2-0.2l0.5-0.3
	l0.9-0.8l0.3-0.4l0.2-0.6v-0.7l-0.5-0.4l-0.7,0.2l-0.7,0.4l-0.7,0.5l-0.7,0.6l-0.6,0.3l-0.7,0.1l-1.3-0.2l-5-2.3l-7.9-3.6l0.1-0.8
	l-0.3-0.5l-0.4-0.6l-0.6-1.4l-0.1-0.9l7.5,2.5l5.2,2.1l10.2,3.7l1.3,0.4l1.1,0.2l0.8,0.1l1,0.1l1.1-0.1l1.1-0.5l0.8-0.8l0.3-0.8
	l0.1-0.5v-0.4l-0.1-0.3l-0.7-0.2l-0.6,0.3l-0.6,0.4l-0.7,0.6l-0.7,0.6l-0.5,0.2l-0.4,0.1h-0.4l-0.7-0.1l-1.8-0.7l-12-4.6l0,0
	l0.2-0.8l-0.2-0.3l-0.4-0.6l-0.3-0.5l-0.3-0.5l-0.2-0.5l-0.1-0.5v-0.6l0.3-0.8l0.3-0.5l0.7-1.3l1-1.8l0.9-1.4l1-1.4l0.6-0.7
	l-0.2-0.5l-0.4-0.9l-0.5-0.9l-0.6-0.9l-1.1-1.4l4.5-0.4l0.3,0.6l2.5-0.2l0.2-0.7h0.4l-0.1-0.6h-0.5l-0.2-0.9l-1.9-1.4l-2.6-2.4l-1-5
	l-0.3-1.1l-0.3-0.6l-0.4-0.6l-0.5-0.6l-0.8-0.8l0.1-0.1l1.2,0.4l1.6-2.1l0.1-0.6l0.3-0.3l0.4-0.9l0.5-0.3l-0.7-1.1l-0.6-0.7
	l-0.5-0.6l-0.5-0.5l-0.6-0.4l-0.3-0.2l-0.5-0.2l-0.4-0.1h-0.4l-0.6,0.1l-0.6,0.3l-0.4,0.5l-0.4,0.9l-0.2,0.9l-0.1,1.5l0.1,0.5
	l0.3,1.1l-0.4,0.4h-0.3H27h-1.2l-1.2,0.1l-0.9,0.1l-1.2,0.3l-0.7,0.4l-0.6,0.4l-0.8,0.6l-0.9,0.9l-1.1,1.1l-0.9,1.1l-0.8,1l-0.6,0.6
	l-0.4,0.8l-0.3,0.8l-0.2,1.1l-0.3,3.6l0.8,1.9l-13,10.2l-0.6-0.3l-0.3-0.1H1.7l-0.2,0.1l-0.2,0.2l-0.1,0.3v0.4l0.1,0.4l0.1,0.3
	l-0.4,0.7l0.8-0.2l0.1,0.1l0.4,0.2l0.3,0.1h0.3l0.2-0.1l0.2-0.2l0.1-0.3v-0.3l-0.2-0.6l13.1-10.3l0.5,0.3l2-1.2l-0.3-0.8l0.3-0.2
	l-0.4-0.5l-0.3,0.2v-0.6l-0.4-0.8v-0.7l1.4-4.1l1.9-0.9l-1.1,3.3l-0.5,1.6l-0.3,1.8L19,2071l0.2,1v0.7l0.1,1.3l0.1,1.1l0.1,0.9v0.7
	v0.5l-0.1,0.5l-0.2,0.4l-0.4,1l-2.7,5.4l-4.9-1.5l-1.1,0.1l-0.1,0.4l5.7,2l-1,3.1l-0.3-0.1l-9.8-3.4l-2.8-1.2l-1.4,0.1L0.1,2084.4z
	 M2.6,2081.6L2.6,2081.6l-1,0.7l-0.1-0.2v-0.3v-0.2l0.1-0.1l0.2-0.1h0.3L2.6,2081.6L2.6,2081.6L2.6,2081.6z M3.1,2082.6l-0.1,0.2
	l-0.1,0.1H2.7l-0.3-0.1l-0.3-0.1L3,2082l0,0v0.2L3.1,2082.6z M29.3,2070.2l-1.2-1.2l-0.4-0.3l0.1-1.2l0.7-1.1l0.6-0.8l0.8-0.9l1.4,3
	l2.2,1.8l2.1,1.4l0.3,0.5l-4.8,0.4L29.3,2070.2z M19.7,2085.8l1-2.5l0.9-1.8l0.7-1.3l0.5-0.9l0.4-0.6l0.4-0.6l0.9-4.8l0,0l1.4,0.9
	l1.1,0.8l0.8,0.7l0.6,0.5l0.4,0.4l0.4,0.6l-1,1.7l-1.3,2.3l-1.2,2.4l-1.4,3.4L19.7,2085.8z"/>
<path fill="#FF6D00" d="M45.1,2186.4v-5h-40v5h-5v-35h5v25h42.5c1.4,0,2.5,1.1,2.5,2.5v7.5H45.1z M7.6,2166.4c0-1.4,1.1-2.5,2.5-2.5
	h35c2.8,0,5,2.2,5,5v5H7.6V2166.4z M12.8,2160.8c-4.9-2.6-7.8-6.6-6.5-9.1s6.3-2.3,11.2,0.2s7.8,6.6,6.5,9.1
	S17.7,2163.4,12.8,2160.8L12.8,2160.8z"/>
<path fill="#FF6D00" d="M44.2,2268.1c-2.4-6-5.7-7.5-5.7-12.1c-0.2-3.1,2.1-5.8,5.2-6.1c3.1-0.2,5.8,2.1,6.1,5.2c0,0.3,0,0.5,0,0.8
	C49.9,2260.6,46.6,2262.1,44.2,2268.1z M44.2,2253c-1.7-0.1-3.1,1.2-3.2,2.8c-0.1,1.7,1.2,3.1,2.8,3.2c1.7,0.1,3.1-1.2,3.2-2.8
	c0-0.1,0-0.1,0-0.2C47.1,2254.4,45.8,2253.1,44.2,2253L44.2,2253z M45.3,2271.3c0.2,0.6-0.1,1.3-0.7,1.6l-12,4.2l4.6,2.3
	c0.4,0.3,0.7,0.8,0.7,1.3s-0.3,1-0.7,1.2l-17.6,6.5c-0.1,0-0.2,0.1-0.3,0.1c-0.5,0-3.1-0.4-3.3-0.9c-0.2-0.6,0.1-1.3,0.7-1.6
	l14.7-5.4l-4.7-2.3c-0.4-0.3-0.7-0.8-0.7-1.3s0.3-1,0.8-1.2l15-5.3C42.3,2270.2,45.1,2270.6,45.3,2271.3L45.3,2271.3z M0.1,2262.1
	c0.1-6.8,5.7-12.2,12.4-12.1l0,0c6.8-0.1,12.3,5.3,12.4,12.1l0,0c0,9-7.3,12.1-12.4,24.1C7.4,2274.1,0.1,2271.1,0.1,2262.1z
	 M18.8,2262.1c-0.1-3.4-2.8-6.1-6.2-6c-3.3,0-6,2.7-6,6s2.7,6,6,6C16,2268.2,18.7,2265.5,18.8,2262.1L18.8,2262.1z"/>
<path fill="#FF6D00" d="M49.9,2366.3c-0.6-1.1-3.2-0.7-5.1-2.5c-0.5-2-1.3-3.9-2.5-5.6c1.3-2.1,3.9-6.6,3-7.8s-9,0.5-11.6,1.1
	c-2.1-0.9-4.3-1.4-6.5-1.6h-6.8c-6.1,0.1-11.7,3.2-15.1,8.2c-0.8-0.3-2.4-0.6-3.3,0.1c-1.3,1.1-2,2.7-1.9,4.4c0.1,1.3,2,2.2,2.5,2.5
	c-0.1,0.8-0.2,1.6-0.2,2.5c0,5.3,2.5,10.3,6.8,13.5c-0.1,1.5-0.5,5.6,0.1,6.2s7.8,1.6,8.5,1c0.6-1.1,1.1-2.2,1.3-3.4
	c0.5,0,0.9,0,1.4,0.1h5.8c0.2,0.8,0.8,3.2,1.4,3.8s7.8,0,8.4-0.7c0.5-0.5,0.6-3.8,0.7-5.7c2.6-1.6,4.8-3.8,6.3-6.5
	c1.5-0.4,2.9-0.9,4.3-1.5C49.9,2373,50.5,2367.5,49.9,2366.3z M28.5,2355.7h-9.6c-0.7,0-1.4-0.6-1.4-1.3s0.6-1.4,1.3-1.4l0,0h9.6
	c0.7-0.1,1.4,0.5,1.5,1.3c0.1,0.7-0.5,1.4-1.2,1.4H28.5L28.5,2355.7z M40.7,2365.3c-0.7,0.7-1.8,0.7-2.5,0s-0.7-1.8,0-2.5l0,0
	c0.7-0.7,1.8-0.7,2.5,0S41.4,2364.7,40.7,2365.3z"/>
<path fill="#FF6D00" d="M49.4,2468.3l-33.1,28.1c-0.9,0.7-2.2,0.6-2.9-0.2l-2.5-2.9c1.5-2.3,1.3-5.3-0.5-7.3
	c-1.8-2.1-4.7-2.7-7.2-1.6l-2.5-2.9c-0.7-0.9-0.6-2.2,0.2-2.9l0,0l33.1-28.1c0.9-0.7,2.2-0.6,2.9,0.2l2.5,2.9
	c-1.5,2.3-1.3,5.3,0.5,7.3c1.8,2.1,4.7,2.7,7.2,1.6l2.5,2.9C50.4,2466.3,50.3,2467.6,49.4,2468.3L49.4,2468.3z M22.8,2474.3
	l-2.3-1.8c0-1.4-0.1-2.9-0.3-4.3c-0.1-0.9-0.4-1.3-0.7-1.3c-0.4,0-0.5,0.5-0.8,1.3c-0.2,1.4-0.3,2.9-0.3,4.3l-2.5,1.9l-1,0.8
	l-1.7,1.3l-1,0.8c-0.7,0.4-1.2,0.9-1.7,1.5c-0.3,0.5-0.5,1-0.6,1.6v0.3c1.8-0.9,3.5-1.6,4.9-2.2c0.9-0.4,1.8-0.7,2.8-0.9
	c0.4,0,0.7,0.9,0.8,2.5c0,0.9,0.1,1.7,0.3,2.6c-0.3,0.3-0.5,0.5-0.8,0.8c-0.4,0.3-1,0.8-1.7,1.3c0,0.3-0.2,0.5-0.2,0.8
	s-0.1,0.5-0.1,0.8c0.5-0.3,1.1-0.5,1.7-0.6l1.5-0.5c0,0.2,0,0.3,0.1,0.5c0,0.2,0.1,0.3,0.1,0.5c0-0.2,0.1-0.3,0.1-0.5
	s0.1-0.3,0.1-0.5c0.4,0.2,1,0.3,1.5,0.5s1.1,0.5,1.7,0.6c0-0.5-0.1-1-0.3-1.5v-0.2c-0.7-0.6-1.4-1-1.8-1.3c-0.3-0.2-0.6-0.5-0.8-0.8
	c0.1-0.8,0.2-1.6,0.3-2.5c0.1-1.8,0.4-2.7,0.8-2.7c0.9,0.1,1.8,0.4,2.6,0.9c1.4,0.6,3.1,1.3,4.9,2.2v-0.3c0-0.6-0.2-1.2-0.5-1.6
	c-0.5-0.6-1-1.1-1.7-1.5l-1-0.8l-1.6-1.4L22.8,2474.3z M25.3,2460.4l-1.2,1l1.5,1.8l1.2-1L25.3,2460.4z M28.4,2463.9l-1.2,1l1.5,1.8
	l1.2-1L28.4,2463.9z M31.4,2467.4l-1.2,1l1.5,1.8l1.2-1L31.4,2467.4z M34.5,2471l-1.2,1l1.5,1.8l1.2-1L34.5,2471z M37.5,2474.5
	l-1.2,1l0.7,0.8l1.2-1L37.5,2474.5z"/>
<path fill="#FF6D00" d="M25.1,2678.6c-10.4-26.2-25-32.7-25-52.4c0-14.5,11.2-26.2,25-26.2s25,11.7,25,26.2
	C50.1,2645.8,35.5,2652.4,25.1,2678.6z M43,2630.7c0-1.1-0.3-2.1-1-2.9c-0.9-1.1-2-2-3.2-2.6l-1.9-1.3l-3.2-2.4l-1.9-1.3l-4.4-3.1
	c0-2.5-0.2-5.1-0.5-7.6c-0.3-1.6-0.8-2.4-1.4-2.4c-0.8,0-1,0.8-1.6,2.4c-0.4,2.5-0.6,5.1-0.5,7.6l-4.8,3.4l-1.9,1.3l-3.2,2.4
	l-1.9,1.3c-1.2,0.6-2.3,1.5-3.2,2.6c-0.6,0.8-1,1.8-1.1,2.9v0.5c3.4-1.6,6.7-2.9,9.3-3.9c1.7-0.8,3.5-1.3,5.3-1.6
	c0.8,0,1.4,1.6,1.6,4.4c0,2,0.2,4,0.5,6c-0.5,0.5-1,0.9-1.6,1.3c-0.8,0.5-1.9,1.3-3.2,2.4c0,0.5-0.3,0.8-0.3,1.3s-0.3,0.8-0.3,1.3
	c1-0.5,2.1-0.8,3.2-1l2.9-0.8c0,0.3,0.1,0.6,0.3,0.8c0,0.3,0.3,0.5,0.3,0.8c0-0.3,0.3-0.5,0.3-0.8s0.3-0.5,0.3-0.8
	c0.8,0.3,1.9,0.5,2.9,0.8s2.1,0.8,3.2,1c-0.1-0.9-0.3-1.8-0.5-2.6v-0.2c-1.4-1-2.6-1.9-3.5-2.4c-0.6-0.4-1.1-0.8-1.6-1.3
	c0.3-1.6,0.3-3.4,0.5-5.8c0.3-3.2,0.8-4.7,1.6-4.7c1.7,0.3,3.4,0.8,5,1.6c2.6,1,5.8,2.4,9.3,3.9L43,2630.7z"/>
<path fill="#FF6D00" d="M11.2,2875.2c-0.1-7.7,6-14,13.7-14.1H25c7.7,0.1,13.8,6.4,13.7,14v0.1c0,5.3-2.9,10.2-7.6,12.6v4.6
	c9.4-3.6,14-14.1,10.4-23.5c-2.7-6.9-9.3-11.6-16.7-11.6c-10,0.1-18.1,8.3-17.9,18.4c0.1,7.4,4.7,14.1,11.6,16.7v-4.6
	C13.9,2885.2,11.2,2880.4,11.2,2875.2z M35.6,2875.2c0-5.9-4.7-10.8-10.7-10.9c-5.9,0-10.7,4.8-10.7,10.7c0,0.1,0,0.1,0,0.2
	c0,4.5,2.7,8.5,6.9,10.1v16.2h7.6v-16.4C32.9,2883.6,35.6,2879.6,35.6,2875.2z M24.9,2880.2c-2.8,0-5.1-2.3-5.1-5.2s2.3-5.1,5.2-5.1
	c2.8,0,5.1,2.3,5.1,5.1S27.9,2880.1,24.9,2880.2C25,2880.2,25,2880.2,24.9,2880.2L24.9,2880.2z M24.9,2850
	c-13.8,0.1-24.9,11.4-24.8,25.1c0,11.4,7.7,21.4,18.7,24.4v-4.4c-11-3.5-17.1-15.4-13.6-26.4c2.8-8.7,10.8-14.6,19.9-14.6
	c11.6,0.1,21,9.5,20.9,21.1c0,9.1-5.9,17.1-14.6,19.9v4.4c11-3,18.7-13,18.7-24.4C49.7,2861.3,38.7,2850,24.9,2850L24.9,2850z"/>
<path fill="#FF6D00" d="M50,3033.4l-0.2,7.6c-0.5,1.4-1.7,2.3-3.2,2.3h-43c-1.5,0-2.7-1-3.2-2.4l-0.2-7.6c-0.3-1.3,0.4-2.3,1.6-3.6
	c1-1,4-3.9,6.1-6c0.2-0.2,0.4-0.3,0.6-0.5l2.1,1.8h-0.5l-5.7,6.3h10.7c0.2,0,0.4,0.1,0.5,0.3l1.3-5.5l-7.8-6.7
	c-0.4-0.3-0.5-0.9-0.2-1.4c0.2-0.3,0.5-0.4,0.8-0.4l10.3-0.8l4-9.6c0.2-0.5,0.7-0.8,1.3-0.6c0.3,0.1,0.5,0.3,0.6,0.6l4,9.6l10.3,0.8
	c0.6,0,1,0.5,1,1c0,0.3-0.2,0.6-0.4,0.8l-7.8,6.7l1.5,6.5l0.4-0.9c0.1-0.2,0.3-0.4,0.6-0.4H46l-5.7-6.3h-0.6l2.1-1.8
	c0.2,0.1,0.4,0.3,0.6,0.5c2.2,2.1,5.1,4.9,6.1,6C49.7,3031.1,50.4,3032.1,50,3033.4z M24.9,3032l-7.3,4.5l0.2,0.4h15v-0.1L24.9,3032
	z M35.9,3015.7l-4.4-0.4l-5.4-11c-0.3-0.6-1-0.9-1.7-0.7c-0.3,0.1-0.5,0.4-0.7,0.7l-5.4,11l-4.4,0.4l-4.1-3.5
	c-0.4-0.4-0.4-1-0.1-1.4c0.2-0.2,0.4-0.3,0.6-0.3l8.6-0.8l5-9.1c0.2-0.5,0.8-0.7,1.3-0.5c0.2,0.1,0.4,0.3,0.5,0.5l5,9.1l8.6,0.8
	c0.5,0.1,0.9,0.6,0.9,1.1c0,0.2-0.1,0.5-0.3,0.6L35.9,3015.7z"/>
<path fill="#FF6D00" d="M50.1,3133.7c-0.1,0.9-0.3,1.8-0.8,2.6c-0.4,0.8-1,1.4-1.8,1.8c-1.1,0.6-2.4,1-3.8,1c-1.7,0-3.4-0.1-5.1-0.5
	l-1-0.2c2.3,0,4.6-0.6,6.8-1.6c0.3-0.2,0.6-0.3,0.9-0.6l0.2-0.1l0,0c0.1-0.1,0.1-0.1,0.2-0.2c0.5-0.6,0.6-1.3,0.3-2
	c0-0.1-0.1-0.2-0.1-0.2l-0.1-0.5l0,0c0-0.1,0,0.1,0,0.1v-0.1v-0.1v-0.1c0,0-0.1-0.2-0.1-0.3c-0.2-0.4-0.5-0.8-0.8-1.2
	c-0.7-0.8-1.6-1.6-2.5-2.2c-2-1.4-4.2-2.5-6.5-3.4c-1.9-0.8-3.8-1.5-5.5-2l0.2-3.8l2.6-3.2c1.8,0.9,3.7,2,5.8,3.2
	c2.5,1.5,4.8,3.2,6.9,5.2c1.2,1.1,2.2,2.3,3,3.7c0.4,0.7,0.8,1.5,1,2.3c0.1,0.2,0.1,0.4,0.2,0.6s0,0.2,0.1,0.3l0.1,0.4L50.1,3133.7
	L50.1,3133.7z M40.1,3117.1h-2.3c-0.8-0.5-1.7-1-2.6-1.4h4.1c-2-3-4.9-5.1-8.4-6c1,0.7,1.8,1.6,2.5,2.7c-0.1,0-0.2-0.1-0.3-0.1
	l-1.6-0.2l0,0c-0.9-1.1-2-1.8-3.4-2.1v4l-1,0.7l-0.5-0.3v-4.4c-1.5,0.3-2.9,1.2-3.8,2.5l-1.9-0.9l2.2-3.3l0.8-1.2
	c9.1-1.8,17.9,4.1,19.7,13.1c0,0.2,0.1,0.5,0.1,0.7c-1-0.8-2-1.5-2.9-2.1C40.7,3118.3,40.4,3117.7,40.1,3117.1z M17.7,3110.7
	c-0.3,0.7,0.9,1.7,3.3,2.9c1.7,0.7,3.4,1.6,5,2.6c0.6-0.2,1.1-0.5,1.7-0.9c0.7-0.5,1.8-1.1,3.1-1.9c0.5,0.2,0.8,0,1.2,0.2
	c0.4,0.2,0.8,0,1.2,0.2c-0.8,0.7-1.4,1.5-2,2.3l-1.7,2.2c0.3,0.1,0.5,0.3,0.6,0.5c0.3,0.1,0.4,0.4,0.6,0.5c-0.3-0.1-0.5,0.1-0.8,0
	s-0.5,0.1-0.8,0c0,0.8-0.2,1.8-0.3,2.7s0,2.1-0.2,3.1c-0.7-0.4-1.4-0.8-2-1.4l-0.3-0.1c-0.4-1.5-0.7-2.9-0.9-3.7
	c-0.1-0.6-0.3-1.2-0.6-1.8c-1.4-0.3-3-1-5.1-1.6c-2.8-0.9-4.4-1-4.6-0.4c-0.4,1.6-0.5,3.2-0.4,4.8c0,2.6,0,5.8,0.2,9.2l-0.4-0.2
	c-0.9-0.4-1.7-1-2.1-1.9c-0.6-1.1-1-2.4-1.1-3.6l-0.5-2l-0.9-3.5l-0.5-2l-1.1-5c-2.2-0.9-4.3-2-6.4-3.2c-1.2-0.8-1.8-1.5-1.6-2
	c0.3-0.7,1.1-0.6,2.6-0.5c2.3,0.6,4.6,1.3,6.7,2.3l4.6-2.8l1.8-1.1l3.1-1.9l1.8-1.1c1-0.8,2.1-1.4,3.3-1.8c0.9-0.2,1.9-0.2,2.8,0.1
	l0.5,0.2c-2.5,2.3-4.8,4.6-6.6,6.4C19.6,3107.9,18.5,3109.3,17.7,3110.7z M14.5,3132.9c0.6,0,1.1-0.2,1.5-0.7
	c1.9,2.5,4.7,4.4,7.8,5.2c-2-1.5-3.4-3.6-4.2-6h-3.2c0-0.1,0-0.1,0-0.2l0.2-1.3h2.5c-0.5-1.9-0.8-3.8-0.8-5.8h-0.9l0.2-1.4h0.7
	c0-0.9,0.1-1.9,0.2-2.8l1.4,0.4c-0.1,0.8-0.2,1.6-0.2,2.4h5l0.3,1.4h-5.2c0,2,0.3,3.9,0.9,5.8h6v-3.2l0.7,0.5
	c0.2,0.1,0.4,0.2,0.7,0.3v2.4h6c0.3-0.9,0.5-1.8,0.6-2.7l0.5,0.2l0.9,0.4c-0.1,0.7-0.3,1.4-0.5,2.1h4.5c0.4,0.3,0.8,0.5,1.2,0.8
	s0.5,0.4,0.8,0.6c-4.3,8.2-14.4,11.3-22.6,7c-2.6-1.4-4.8-3.5-6.4-6l0.2,0.2C13.6,3132.8,14,3132.9,14.5,3132.9L14.5,3132.9z
	 M39.3,3131.4h-4.2c-0.8,2.4-2.2,4.5-4.2,6C34.4,3136.5,37.4,3134.4,39.3,3131.4z M28,3137.1c2.3-0.4,4.3-2.5,5.5-5.7H28V3137.1z
	 M26.6,3137.1v-5.7h-5.5C22.3,3134.6,24.3,3136.7,26.6,3137.1L26.6,3137.1z"/>
<path fill="#0F4DA8" d="M25.1,3171c-5.4,0-25-16.6-25-16.6v0.3c0-2.6,2.5-4.7,5.6-4.7h38.9c3.1,0,5.6,2.1,5.6,4.7l0,0
	C50.1,3154.7,30.8,3171,25.1,3171z M25.1,3175.1c5.9,0,25-15.7,25-15.7v24.5c0,2.6-2.5,4.7-5.6,4.7H5.7c-3.1,0-5.6-2.1-5.6-4.7
	v-24.5C0.1,3159.4,19.7,3175.1,25.1,3175.1L25.1,3175.1z"/>
<path fill="#FF6D00" d="M43.7,1959.1L43.7,1959.1c0-0.1-0.1-0.2-0.2-0.2C43.6,1958.9,43.6,1959,43.7,1959.1
	c-7.4-9.1-20.2-11.7-30.6-6.3l0,0c-5.5,3-9.7,7.9-11.8,13.9l0,0v0.1l0,0c-4.3,12.9,2.7,26.7,15.6,31c4.7,1.5,9.7,1.7,14.4,0.3l0,0
	c8.9-2.5,15.6-9.8,17.4-18.9c0.3-1.5,0.4-3.1,0.4-4.7C49.1,1968.9,47.2,1963.4,43.7,1959.1z M13.9,1953.7c3.3-1.7,7-2.6,10.8-2.6
	c5.3,0,10.4,1.8,14.5,5c-2.3-0.6-4.7-0.9-7.1-0.9c-5.2,0-10.3,1.4-14.9,3.9c-2.3,1.2-4.4,2.8-6.3,4.5c-0.4-0.7-1-1.1-1.7-1.4
	C10,1959.1,11.6,1956.1,13.9,1953.7z M2,1980.4c-0.5-1.9-0.8-3.9-0.8-5.9s0.3-4,0.8-6c0.3,0.2,0.5,0.3,0.8,0.5
	c-0.6,2.1-0.5,4.3,0.4,6.3C2.6,1976.9,2.2,1978.6,2,1980.4z M5.9,1976.5c-0.2,0-0.4,0-0.6-0.1c-2.1-0.5-2.9-4-1.9-7.8
	c0.9-3.4,3-5.9,5-5.9c0.2,0,0.4,0,0.6,0.1c2.1,0.5,2.9,4,1.9,7.8C9.9,1974,7.9,1976.5,5.9,1976.5z M28.2,1997.5
	c0.4,0.1,0.8,0.2,1.2,0.2C29,1997.7,28.5,1997.6,28.2,1997.5L28.2,1997.5z M31.2,1997c-8.3-0.9-16-6.8-20.1-15.4
	c-0.9-2-1.6-4-2.1-6.2c0.9-1,1.6-2.2,2-3.4c0.5,0.2,1.1,0.4,1.7,0.6c8.3,2.9,22.3,7.9,32.6,7.9c0.7,0,1.4,0,2-0.1
	C45.1,1988.3,39.1,1994.6,31.2,1997L31.2,1997z"/>
<path fill="#FF6D00" d="M25.1,871c-5.4,0-25-16.6-25-16.6v0.3c0-2.6,2.5-4.7,5.6-4.7h38.9c3.1,0,5.6,2.1,5.6,4.7l0,0
	C50.1,854.7,30.8,871,25.1,871z M25.1,875.1c5.9,0,25-15.7,25-15.7v24.5c0,2.6-2.5,4.7-5.6,4.7H5.7c-3.1,0-5.6-2.1-5.6-4.7v-24.5
	C0.1,859.4,19.7,875.1,25.1,875.1L25.1,875.1z"/>
<path fill="#FFF669" d="M35,3211.4l7.9-3.9l-3.6,8.2L35,3211.4z M25.2,3238.3c-7.1,0-12.9-5.8-12.9-12.9c0-7.1,5.8-12.9,12.9-12.9
	s12.9,5.8,12.9,12.9S32.4,3238.3,25.2,3238.3L25.2,3238.3L25.2,3238.3z M21.8,3220.7c-0.9-0.1-1.8,0.6-1.9,1.5s0.6,1.8,1.5,1.9
	c0.9,0.1,1.8-0.6,1.9-1.5c0-0.1,0-0.1,0-0.2C23.4,3221.5,22.7,3220.7,21.8,3220.7C21.8,3220.6,21.8,3220.6,21.8,3220.7L21.8,3220.7z
	 M28.4,3220.7c-0.9-0.1-1.8,0.6-1.9,1.5s0.6,1.8,1.5,1.9s1.8-0.6,1.9-1.5c0-0.1,0-0.1,0-0.2C29.9,3221.5,29.3,3220.7,28.4,3220.7
	C28.4,3220.6,28.4,3220.6,28.4,3220.7L28.4,3220.7z M30.4,3228.1c-0.3-0.4-0.8-0.6-1.3-0.3l-0.1,0.1c-2.2,1.9-5.4,1.9-7.6,0
	c-0.4-0.3-1-0.3-1.3,0.1l-0.1,0.1c-0.3,0.5-0.2,1.2,0.2,1.6c2.9,2.5,7.1,2.5,10,0C30.6,3229.3,30.7,3228.6,30.4,3228.1L30.4,3228.1z
	 M25.4,3200l2.8,8.4h-6.1L25.4,3200z M7.7,3207.1l7.9,3.9l-4.3,4.3L7.7,3207.1z M8.5,3228.4l-8.4-3.2l8.4-2.8V3228.4z M15.8,3239.2
	l-8.2,3.6l3.9-7.9L15.8,3239.2z M25.4,3250l-3.3-8.4h6L25.4,3250z M41.8,3222.4l8.3,2.8l-8.3,3.3V3222.4z M43,3242.5l-8.2-3.6
	l4.3-4.3L43,3242.5z"/>
<path fill="#53AAE8" d="M50.1,3300.2l-24.8,16.4L0.1,3300L50.1,3300.2z"/>
<polygon points="48.1,3352 47.2,3351 24.6,3373.6 2.1,3351 1.1,3352 23.7,3374.5 1.1,3397.1 2.1,3398 24.6,3375.5 47.2,3398 
	48.1,3397.1 25.6,3374.5 "/>
<path fill="#0F4DA8" d="M23.5,3400l-23.4,20h10v16.7h10v-10h10v10h10V3420h10l-23.3-20H23.5z"/>
<path fill="#FFFFFF" d="M23.5,3450l-23.4,20h10v16.7h10v-10h10v10h10V3470h10l-23.3-20H23.5z"/>
<path fill="#FF6D00" d="M37.8,3545.7l-14.2-6.7l-14.2,6.7l1.9-15.6l-10.7-11.4l15.4-3l7.5-13.7l7.5,13.7l15.4,3l-10.7,11.4
	L37.8,3545.7z M29.6,3518.6H27v6.3h-5.9v-6.3h-2.7v16.1h2.7v-7.2h6v7.2h2.6L29.6,3518.6z M26.6,3503.4l3.3-3.5l3.5,14.4l-1-0.2
	L26.6,3503.4z M2.7,3516.4l-2.6-5l15.4,1.1l-0.9,1.6L2.7,3516.4z M9.1,3531.3l-1.4,11.1l-6,1.1l5.7-14L9.1,3531.3z M33.3,3546.6
	l-0.7,5.3l-10.7-9.1l1.7-0.8L33.3,3546.6z M50.1,3524.9l-12,7.4l-0.1-1l7.8-8.5L50.1,3524.9z"/>
<path id="Search-Icon" d="M47.5,3600.6l-11.1-11.1c5.9-8.4,4-19.9-4.4-25.9c-8.4-5.9-19.9-4-25.9,4.4c-5.9,8.4-4,19.9,4.4,25.9
	c6.4,4.6,15.1,4.6,21.5,0l11.1,11.1c0.9,0.9,2.4,0.9,3.3,0l0,0l1.1-1.1C48.4,3603,48.4,3601.5,47.5,3600.6L47.5,3600.6z
	 M21.2,3591.1c-6.8,0-12.4-5.5-12.4-12.4c0-6.8,5.5-12.4,12.4-12.4s12.4,5.5,12.4,12.4l0,0C33.6,3585.5,28.1,3591.1,21.2,3591.1
	L21.2,3591.1z"/>
</svg>
