<?xml version="1.0" encoding="utf-8"?>
<!-- Generator: Adobe Illustrator 20.1.0, SVG Export Plug-In . SVG Version: 6.00 Build 0)  -->
<svg version="1.1" id="Layer_1" xmlns="http://www.w3.org/2000/svg" xmlns:xlink="http://www.w3.org/1999/xlink" x="0px" y="0px"
	 width="160.1px" height="159.4px" viewBox="0 0 160.1 159.4" style="enable-background:new 0 0 160.1 159.4;" xml:space="preserve"
	>
<style type="text/css">
	.st0{fill:#755641;}
	.st1{clip-path:url(#SVGID_2_);fill:#AA8147;}
	.st2{clip-path:url(#SVGID_2_);fill:#253949;}
	.st3{clip-path:url(#SVGID_2_);fill:#755641;}
	.st4{clip-path:url(#SVGID_2_);fill:#AA8247;}
	.st5{clip-path:url(#SVGID_2_);fill:#7F5638;}
	.st6{clip-path:url(#SVGID_2_);fill:#5E2C02;}
	.st7{clip-path:url(#SVGID_2_);fill:#34495E;}
	.st8{clip-path:url(#SVGID_2_);fill:#D3B285;}
	.st9{clip-path:url(#SVGID_2_);fill:#7E5537;}
	.st10{clip-path:url(#SVGID_2_);fill:#7E5536;}
	.st11{clip-path:url(#SVGID_2_);fill:#F7F7F7;}
	.st12{clip-path:url(#SVGID_2_);fill:#333333;}
	.st13{clip-path:url(#SVGID_2_);fill:#EC1A24;}
	.st14{clip-path:url(#SVGID_2_);fill:#C8001A;}
	.st15{clip-path:url(#SVGID_2_);fill:#CC191F;}
	.st16{fill:#01247D;}
	.st17{fill:#FFFFFF;}
	.st18{fill:#CF142B;}
</style>
<path class="st0" d="M72.8,104.3l17.7,51.8H55.1L72.8,104.3z M50.4,159.4h44.8L72.8,94L50.4,159.4z"/>
<g>
	<defs>
		<rect id="SVGID_1_" width="160.1" height="159.4"/>
	</defs>
	<clipPath id="SVGID_2_">
		<use xlink:href="#SVGID_1_"  style="overflow:visible;"/>
	</clipPath>
	<path class="st1" d="M72.8,132.8c-18.6,0-33.7-15.1-33.7-33.7c0-18.6,15.1-33.7,33.7-33.7c18.6,0,33.7,15.1,33.7,33.7
		C106.5,117.7,91.4,132.8,72.8,132.8 M72.8,67.9c-17.2,0-31.2,14-31.2,31.2s14,31.2,31.2,31.2s31.2-14,31.2-31.2S90,67.9,72.8,67.9"
		/>
	<rect x="72.5" y="66.7" class="st2" width="0.6" height="32.4"/>
	<path class="st2" d="M75.4,63c0,1.4-1.1,2.6-2.6,2.6c-1.4,0-2.6-1.1-2.6-2.6c0-1.4,1.1-2.6,2.6-2.6C74.2,60.5,75.4,61.6,75.4,63"/>
	<rect x="72.5" y="99.1" class="st2" width="0.6" height="32.4"/>
	<path class="st2" d="M75.4,135.3c0-1.4-1.1-2.6-2.6-2.6c-1.4,0-2.6,1.1-2.6,2.6c0,1.4,1.1,2.6,2.6,2.6
		C74.2,137.8,75.4,136.7,75.4,135.3"/>
	<rect x="66.3" y="68" transform="matrix(0.9232 -0.3844 0.3844 0.9232 -27.2333 32.0738)" class="st2" width="0.6" height="32.4"/>
	<path class="st2" d="M61.4,64.8c0.5,1.3-0.1,2.8-1.4,3.3c-1.3,0.5-2.8-0.1-3.3-1.4c-0.5-1.3,0.1-2.8,1.4-3.3
		C59.3,62.9,60.8,63.5,61.4,64.8"/>
	
		<rect x="78.7" y="97.9" transform="matrix(0.9238 -0.3829 0.3829 0.9238 -37.6683 38.9551)" class="st2" width="0.6" height="32.4"/>
	<path class="st2" d="M89,131.5c-0.5-1.3-2-1.9-3.3-1.4c-1.3,0.5-1.9,2-1.4,3.3c0.5,1.3,2,1.9,3.3,1.4S89.5,132.8,89,131.5"/>
	
		<rect x="61.1" y="71.5" transform="matrix(0.7071 -0.7071 0.7071 0.7071 -44.0246 69.073)" class="st2" width="0.6" height="32.4"/>
	<path class="st2" d="M49.1,71.8c1,1,1,2.6,0,3.6c-1,1-2.6,1-3.6,0c-1-1-1-2.6,0-3.6C46.5,70.8,48.1,70.8,49.1,71.8"/>
	<rect x="84" y="94.4" transform="matrix(0.7071 -0.7071 0.7071 0.7071 -53.5142 91.9851)" class="st2" width="0.6" height="32.4"/>
	<path class="st2" d="M100.2,122.9c-1-1-2.6-1-3.6,0c-1,1-1,2.6,0,3.6c1,1,2.6,1,3.6,0C101.2,125.5,101.2,123.9,100.2,122.9"/>
	
		<rect x="57.6" y="76.7" transform="matrix(0.3829 -0.9238 0.9238 0.3829 -50.1508 110.7942)" class="st2" width="0.6" height="32.4"/>
	<path class="st2" d="M40.4,83c1.3,0.5,1.9,2,1.4,3.3c-0.5,1.3-2,1.9-3.3,1.4c-1.3-0.5-1.9-2-1.4-3.3S39.1,82.4,40.4,83"/>
	
		<rect x="87.5" y="89.1" transform="matrix(0.3829 -0.9238 0.9238 0.3829 -43.1316 146.0996)" class="st2" width="0.6" height="32.4"/>
	<path class="st2" d="M107.2,110.6c-1.3-0.5-2.8,0.1-3.3,1.4c-0.5,1.3,0.1,2.8,1.4,3.3c1.3,0.5,2.8-0.1,3.3-1.4
		S108.5,111.1,107.2,110.6"/>
	<rect x="40.4" y="98.8" class="st2" width="32.4" height="0.6"/>
	<path class="st2" d="M36.7,96.6c1.4,0,2.6,1.1,2.6,2.6s-1.1,2.6-2.6,2.6c-1.4,0-2.6-1.1-2.6-2.6S35.3,96.6,36.7,96.6"/>
	<rect x="72.8" y="98.8" class="st2" width="32.4" height="0.6"/>
	<path class="st2" d="M108.9,96.6c-1.4,0-2.6,1.1-2.6,2.6c0,1.4,1.1,2.6,2.6,2.6c1.4,0,2.6-1.1,2.6-2.6
		C111.5,97.7,110.4,96.6,108.9,96.6"/>
	
		<rect x="41.7" y="105" transform="matrix(0.9238 -0.3829 0.3829 0.9238 -35.9241 30.1812)" class="st2" width="32.4" height="0.6"/>
	<path class="st2" d="M38.5,110.6c1.3-0.5,2.8,0.1,3.3,1.4c0.5,1.3-0.1,2.8-1.4,3.3c-1.3,0.5-2.8-0.1-3.3-1.4
		C36.6,112.6,37.2,111.1,38.5,110.6"/>
	
		<rect x="71.6" y="92.6" transform="matrix(0.9238 -0.3829 0.3829 0.9238 -28.8943 40.6986)" class="st2" width="32.4" height="0.6"/>
	<path class="st2" d="M105.2,82.9c-1.3,0.5-1.9,2-1.4,3.3s2,1.9,3.3,1.4c1.3-0.5,1.9-2,1.4-3.3S106.5,82.4,105.2,82.9"/>
	
		<rect x="45.2" y="110.3" transform="matrix(0.7071 -0.7071 0.7071 0.7071 -60.225 75.7839)" class="st2" width="32.4" height="0.6"/>
	<path class="st2" d="M45.5,122.9c1-1,2.6-1,3.6,0c1,1,1,2.6,0,3.6c-1,1-2.6,1-3.6,0C44.5,125.5,44.5,123.9,45.5,122.9"/>
	
		<rect x="68.1" y="87.4" transform="matrix(0.7071 -0.7071 0.7071 0.7071 -37.3127 85.2737)" class="st2" width="32.4" height="0.6"/>
	<path class="st2" d="M96.6,71.8c-1,1-1,2.6,0,3.6c1,1,2.6,1,3.6,0c1-1,1-2.6,0-3.6C99.2,70.8,97.6,70.8,96.6,71.8"/>
	<polygon class="st2" points="72.6,99 73.1,99.2 60.7,129.2 60.2,129 	"/>
	<path class="st2" d="M56.6,131.5c0.5-1.3,2-1.9,3.3-1.4c1.3,0.5,1.9,2,1.4,3.3c-0.5,1.3-2,1.9-3.3,1.4
		C56.7,134.3,56.1,132.8,56.6,131.5"/>
	
		<rect x="62.8" y="83.9" transform="matrix(0.3829 -0.9238 0.9238 0.3829 -28.9868 124.938)" class="st2" width="32.4" height="0.6"/>
	<path class="st2" d="M84.3,64.8c-0.5,1.3,0.1,2.8,1.4,3.3c1.3,0.5,2.8-0.1,3.3-1.4c0.5-1.3-0.1-2.8-1.4-3.3S84.8,63.5,84.3,64.8"/>
	<rect x="51.8" y="144.1" class="st3" width="26" height="3.1"/>
	<path class="st3" d="M67.3,138.7c-5,2.9-10.4,4.4-15.4,4.2v0.7c0.3,0,0.6,0,0.9,0c4.9,0,10.1-1.5,14.9-4.3c4.9-2.9,8.8-6.7,11-11
		h-0.8C75.6,132.4,71.9,136,67.3,138.7"/>
	<rect x="58" y="143" class="st3" width="0.3" height="1.1"/>
	<rect x="63.4" y="140.9" class="st3" width="0.3" height="3.2"/>
	<rect x="68.8" y="138.4" class="st3" width="0.3" height="5.7"/>
	<rect x="74.2" y="133.9" class="st3" width="0.3" height="10.2"/>
	<rect x="134.1" y="144.1" class="st3" width="26" height="3.1"/>
	<path class="st3" d="M144.6,138.7c5,2.9,10.4,4.4,15.4,4.2v0.7c-0.3,0-0.6,0-0.9,0c-4.9,0-10.1-1.5-14.9-4.3
		c-4.9-2.9-8.8-6.7-11-11h0.8C136.3,132.4,140,136,144.6,138.7"/>
	<rect x="153.6" y="143" class="st3" width="0.3" height="1.1"/>
	<rect x="148.2" y="140.9" class="st3" width="0.3" height="3.2"/>
	<rect x="142.8" y="138.4" class="st3" width="0.3" height="5.7"/>
	<rect x="137.4" y="133.9" class="st3" width="0.3" height="10.2"/>
	<rect x="74.5" y="151.6" class="st3" width="20.1" height="7.8"/>
	<rect x="117.3" y="151.6" class="st3" width="20.1" height="7.8"/>
	<rect x="77.8" y="122.7" class="st4" width="13.5" height="28.9"/>
	<rect x="77.8" y="122.7" class="st3" width="1.7" height="28.9"/>
	<rect x="89.6" y="122.7" class="st3" width="1.7" height="28.9"/>
	<rect x="79.5" y="143.2" class="st5" width="10.1" height="0.9"/>
	<rect x="79.5" y="136.1" class="st5" width="10.1" height="0.9"/>
	<rect x="79.5" y="129" class="st5" width="10.1" height="0.9"/>
	<rect x="79.5" y="122.7" class="st5" width="10.1" height="0.9"/>
	<path class="st6" d="M80.8,150.6V148c0-0.4,0.3-0.6,0.6-0.6c0.4,0,0.6,0.3,0.6,0.6v2.6H80.8z"/>
	<path class="st6" d="M87.1,150.6V148c0-0.4,0.3-0.6,0.6-0.6c0.4,0,0.6,0.3,0.6,0.6v2.6H87.1z"/>
	<path class="st6" d="M87.1,142.7v-2.6c0-0.4,0.3-0.6,0.6-0.6c0.4,0,0.6,0.3,0.6,0.6v2.6H87.1z"/>
	<path class="st6" d="M80.8,142.7v-2.6c0-0.4,0.3-0.6,0.6-0.6c0.4,0,0.6,0.3,0.6,0.6v2.6H80.8z"/>
	<path class="st6" d="M83.9,142.7v-2.6c0-0.4,0.3-0.6,0.6-0.6c0.4,0,0.6,0.3,0.6,0.6v2.6H83.9z"/>
	<path class="st6" d="M87.1,135.6V133c0-0.4,0.3-0.6,0.6-0.6c0.4,0,0.6,0.3,0.6,0.6v2.6H87.1z"/>
	<path class="st6" d="M80.8,135.6V133c0-0.4,0.3-0.6,0.6-0.6c0.4,0,0.6,0.3,0.6,0.6v2.6H80.8z"/>
	<path class="st6" d="M83.9,135.6V133c0-0.4,0.3-0.6,0.6-0.6c0.4,0,0.6,0.3,0.6,0.6v2.6H83.9z"/>
	<path class="st6" d="M87.1,128.5V126c0-0.4,0.3-0.6,0.6-0.6c0.4,0,0.6,0.3,0.6,0.6v2.6H87.1z"/>
	<path class="st6" d="M80.7,128.5V126c0-0.4,0.3-0.6,0.6-0.6c0.4,0,0.6,0.3,0.6,0.6v2.6H80.7z"/>
	<path class="st6" d="M83.8,128.5V126c0-0.4,0.3-0.6,0.6-0.6c0.4,0,0.6,0.3,0.6,0.6v2.6H83.8z"/>
	<path class="st6" d="M83.9,150.6v-3.2c0-0.4,0.3-0.8,0.6-0.8c0.4,0,0.6,0.4,0.6,0.8v3.2H83.9z"/>
	<rect x="84.1" y="108.5" class="st7" width="0.8" height="1.5"/>
	<path class="st2" d="M84.6,108.6c-1.7,4.7-3.4,9.4-5,14.1h10.1C87.9,118,86.2,113.3,84.6,108.6"/>
	<polygon class="st7" points="84.6,108.5 84.5,108.5 84.6,107.5 	"/>
	<polygon class="st8" points="86.9,122.7 82.2,122.7 82.2,119.1 84.6,117.5 86.9,119.1 	"/>
	<rect x="77.8" y="118.1" class="st4" width="2.3" height="4.6"/>
	<polygon class="st3" points="80.7,118.1 77.3,118.1 79,114.1 	"/>
	<rect x="89" y="118.1" class="st4" width="2.3" height="4.6"/>
	<polygon class="st3" points="91.8,118.1 88.5,118.1 90.1,114.1 	"/>
	<rect x="120.6" y="122.7" class="st4" width="13.5" height="28.9"/>
	<rect x="120.6" y="122.7" class="st3" width="1.7" height="28.9"/>
	<rect x="132.4" y="122.7" class="st3" width="1.7" height="28.9"/>
	<rect x="122.3" y="143.2" class="st3" width="10.1" height="0.9"/>
	<rect x="122.3" y="136.1" class="st3" width="10.1" height="0.9"/>
	<rect x="122.3" y="129" class="st3" width="10.1" height="0.9"/>
	<rect x="122.3" y="122.7" class="st3" width="10.1" height="0.9"/>
	<path class="st6" d="M123.5,150.6V148c0-0.4,0.3-0.6,0.6-0.6c0.4,0,0.6,0.3,0.6,0.6v2.6H123.5z"/>
	<path class="st6" d="M129.9,150.6V148c0-0.4,0.3-0.6,0.6-0.6s0.6,0.3,0.6,0.6v2.6H129.9z"/>
	<path class="st6" d="M129.9,142.7v-2.6c0-0.4,0.3-0.6,0.6-0.6s0.6,0.3,0.6,0.6v2.6H129.9z"/>
	<path class="st6" d="M123.5,142.7v-2.6c0-0.4,0.3-0.6,0.6-0.6c0.4,0,0.6,0.3,0.6,0.6v2.6H123.5z"/>
	<path class="st6" d="M126.7,142.7v-2.6c0-0.4,0.3-0.6,0.6-0.6c0.4,0,0.6,0.3,0.6,0.6v2.6H126.7z"/>
	<path class="st6" d="M129.9,135.6v-2.6c0-0.4,0.3-0.6,0.6-0.6s0.6,0.3,0.6,0.6v2.6H129.9z"/>
	<path class="st6" d="M123.5,135.6v-2.6c0-0.4,0.3-0.6,0.6-0.6c0.4,0,0.6,0.3,0.6,0.6v2.6H123.5z"/>
	<path class="st6" d="M126.6,135.6v-2.6c0-0.4,0.3-0.6,0.6-0.6c0.4,0,0.6,0.3,0.6,0.6v2.6H126.6z"/>
	<path class="st6" d="M129.8,128.5V126c0-0.4,0.3-0.6,0.6-0.6c0.4,0,0.6,0.3,0.6,0.6v2.6H129.8z"/>
	<path class="st6" d="M123.5,128.5V126c0-0.4,0.3-0.6,0.6-0.6c0.4,0,0.6,0.3,0.6,0.6v2.6H123.5z"/>
	<path class="st6" d="M126.6,128.5V126c0-0.4,0.3-0.6,0.6-0.6c0.4,0,0.6,0.3,0.6,0.6v2.6H126.6z"/>
	<path class="st6" d="M126.7,150.6v-3.2c0-0.4,0.3-0.8,0.6-0.8c0.4,0,0.6,0.4,0.6,0.8v3.2H126.7z"/>
	<rect x="126.9" y="108.5" class="st7" width="0.8" height="1.5"/>
	<path class="st2" d="M127.3,108.6c-1.7,4.7-3.4,9.4-5,14.1h10.1C130.7,118,129,113.3,127.3,108.6"/>
	<polygon class="st7" points="127.4,108.5 127.3,108.5 127.3,107.5 	"/>
	<polygon class="st8" points="129.7,122.7 125,122.7 125,119.1 127.3,117.5 129.7,119.1 	"/>
	<rect x="120.6" y="118.1" class="st4" width="2.3" height="4.6"/>
	<polygon class="st3" points="123.4,118.1 120.1,118.1 121.8,114.1 	"/>
	<rect x="131.7" y="118.1" class="st4" width="2.3" height="4.6"/>
	<polygon class="st3" points="134.6,118.1 131.2,118.1 132.9,114.1 	"/>
	<rect x="91.3" y="128.3" class="st3" width="29.4" height="2.3"/>
	<rect x="103.2" y="128" class="st4" width="5.5" height="3"/>
	<path class="st8" d="M104.7,130.2h2.5c0.2-0.5,0.4-0.9,0.6-1.4c-0.5,0.2-0.9,0.4-1.4,0.6c-0.2-0.3-0.4-0.7-0.6-1
		c-0.1,0.3-0.3,0.7-0.4,1l-1.5-0.6C104.3,129.3,104.5,129.8,104.7,130.2"/>
	<path class="st3" d="M91.3,147.2c4.1-0.7,9-1.3,14.7-1.3c5.6,0,10.5,0.6,14.6,1.3v-3.1H91.3V147.2z"/>
	<rect x="0" y="156.4" class="st3" width="58" height="3"/>
	<rect x="1.1" y="120.7" class="st1" width="17.9" height="35.7"/>
	<path class="st6" d="M10,121.7c-1.1,0-2.1,2-2.1,4.4h4.1C12.1,123.7,11.2,121.7,10,121.7"/>
	<path class="st6" d="M9.9,136.6L9.9,136.6c-0.2,0-0.3-0.1-0.3-0.3v-5.9c0-0.2,0.1-0.3,0.3-0.3c0.2,0,0.3,0.1,0.3,0.3v5.9
		C10.2,136.4,10,136.6,9.9,136.6"/>
	<path class="st6" d="M12.4,136.6L12.4,136.6c-0.2,0-0.3-0.1-0.3-0.3v-5.9c0-0.2,0.1-0.3,0.3-0.3c0.2,0,0.3,0.1,0.3,0.3v5.9
		C12.7,136.4,12.6,136.6,12.4,136.6"/>
	<path class="st6" d="M7.1,136.6L7.1,136.6c-0.2,0-0.3-0.1-0.3-0.3v-5.9c0-0.2,0.1-0.3,0.3-0.3c0.2,0,0.3,0.1,0.3,0.3v5.9
		C7.4,136.4,7.3,136.6,7.1,136.6"/>
	<path class="st6" d="M9.9,146.8L9.9,146.8c-0.2,0-0.3-0.1-0.3-0.3v-5.9c0-0.2,0.1-0.3,0.3-0.3c0.2,0,0.3,0.1,0.3,0.3v5.9
		C10.2,146.6,10,146.8,9.9,146.8"/>
	<path class="st6" d="M12.4,146.8L12.4,146.8c-0.2,0-0.3-0.1-0.3-0.3v-5.9c0-0.2,0.1-0.3,0.3-0.3c0.2,0,0.3,0.1,0.3,0.3v5.9
		C12.7,146.6,12.6,146.8,12.4,146.8"/>
	<path class="st6" d="M7.1,146.8L7.1,146.8c-0.2,0-0.3-0.1-0.3-0.3v-5.9c0-0.2,0.1-0.3,0.3-0.3c0.2,0,0.3,0.1,0.3,0.3v5.9
		C7.4,146.6,7.3,146.8,7.1,146.8"/>
	<rect x="1.1" y="114.1" class="st5" width="2.9" height="6.6"/>
	<rect x="1.6" y="107.5" class="st1" width="1.9" height="6.6"/>
	<path class="st6" d="M2.6,104.7c-0.3,0.4-0.9,1.3-1,2.5h1.9C3.5,106,2.9,105.1,2.6,104.7"/>
	<rect x="1.2" y="107.2" class="st6" width="2.8" height="0.3"/>
	<rect x="16" y="114.1" class="st5" width="2.9" height="6.6"/>
	<rect x="16.5" y="107.5" class="st1" width="1.9" height="6.6"/>
	<path class="st6" d="M17.5,104.7c-0.3,0.4-0.9,1.3-1,2.5h1.9C18.4,106,17.8,105.1,17.5,104.7"/>
	<rect x="16.1" y="107.2" class="st6" width="2.8" height="0.3"/>
	<polygon class="st2" points="14.1,110.4 6,110.4 4,117 16.1,117 	"/>
	<rect x="9" y="112.9" class="st8" width="2.1" height="4.1"/>
	<rect x="9.5" y="111.2" class="st8" width="1.1" height="1.7"/>
	<path class="st8" d="M10,109.5c-0.2,0.3-0.6,0.9-0.7,1.7h1.3C10.6,110.4,10.2,109.8,10,109.5"/>
	<rect x="4" y="117" class="st8" width="12" height="3.6"/>
	<polygon class="st1" points="7.2,120.7 5.6,120.7 5.6,115.3 6.4,114.3 7.2,115.3 	"/>
	<polygon class="st1" points="14.5,120.7 12.9,120.7 12.9,115.3 13.7,114.3 14.5,115.3 	"/>
	<rect x="2" y="120.7" class="st5" width="1.1" height="35.7"/>
	<rect x="16.9" y="120.7" class="st5" width="1.1" height="35.7"/>
	<rect x="39" y="120.7" class="st1" width="17.9" height="35.7"/>
	<path class="st6" d="M47.9,121.7c-1.1,0-2.1,2-2.1,4.4H50C50,123.7,49.1,121.7,47.9,121.7"/>
	<path class="st6" d="M47.8,136.6L47.8,136.6c-0.2,0-0.3-0.1-0.3-0.3v-5.9c0-0.2,0.1-0.3,0.3-0.3c0.2,0,0.3,0.1,0.3,0.3v5.9
		C48.1,136.4,47.9,136.6,47.8,136.6"/>
	<path class="st6" d="M50.3,136.6L50.3,136.6c-0.2,0-0.3-0.1-0.3-0.3v-5.9c0-0.2,0.1-0.3,0.3-0.3c0.2,0,0.3,0.1,0.3,0.3v5.9
		C50.6,136.4,50.5,136.6,50.3,136.6"/>
	<path class="st6" d="M45,136.6L45,136.6c-0.2,0-0.3-0.1-0.3-0.3v-5.9c0-0.2,0.1-0.3,0.3-0.3c0.2,0,0.3,0.1,0.3,0.3v5.9
		C45.3,136.4,45.2,136.6,45,136.6"/>
	<path class="st6" d="M47.8,146.8L47.8,146.8c-0.2,0-0.3-0.1-0.3-0.3v-5.9c0-0.2,0.1-0.3,0.3-0.3c0.2,0,0.3,0.1,0.3,0.3v5.9
		C48.1,146.6,47.9,146.8,47.8,146.8"/>
	<path class="st6" d="M50.3,146.8L50.3,146.8c-0.2,0-0.3-0.1-0.3-0.3v-5.9c0-0.2,0.1-0.3,0.3-0.3c0.2,0,0.3,0.1,0.3,0.3v5.9
		C50.6,146.6,50.5,146.8,50.3,146.8"/>
	<path class="st6" d="M45,146.8L45,146.8c-0.2,0-0.3-0.1-0.3-0.3v-5.9c0-0.2,0.1-0.3,0.3-0.3c0.2,0,0.3,0.1,0.3,0.3v5.9
		C45.3,146.6,45.2,146.8,45,146.8"/>
	<rect x="39" y="114.1" class="st5" width="2.9" height="6.6"/>
	<rect x="39.5" y="107.5" class="st1" width="1.9" height="6.6"/>
	<path class="st6" d="M40.5,104.7c-0.3,0.4-0.9,1.3-1,2.5h1.9C41.4,106,40.8,105.1,40.5,104.7"/>
	<rect x="39.1" y="107.2" class="st6" width="2.8" height="0.3"/>
	<rect x="53.9" y="114.1" class="st5" width="2.9" height="6.6"/>
	<rect x="54.4" y="107.5" class="st1" width="1.9" height="6.6"/>
	<path class="st6" d="M55.4,104.7c-0.3,0.4-0.9,1.3-1,2.5h1.9C56.3,106,55.7,105.1,55.4,104.7"/>
	<rect x="54" y="107.2" class="st6" width="2.8" height="0.3"/>
	<polygon class="st2" points="52,110.4 44,110.4 41.9,117 54,117 	"/>
	<rect x="46.9" y="112.9" class="st8" width="2.1" height="4.1"/>
	<rect x="47.4" y="111.2" class="st8" width="1.1" height="1.7"/>
	<path class="st8" d="M47.9,109.5c-0.2,0.3-0.6,0.9-0.7,1.7h1.3C48.6,110.4,48.1,109.8,47.9,109.5"/>
	<rect x="41.9" y="117" class="st8" width="12" height="3.6"/>
	<polygon class="st1" points="45.1,120.7 43.5,120.7 43.5,115.3 44.3,114.3 45.1,115.3 	"/>
	<polygon class="st1" points="52.4,120.7 50.8,120.7 50.8,115.3 51.6,114.3 52.4,115.3 	"/>
	<rect x="39.9" y="120.7" class="st5" width="1.1" height="35.7"/>
	<rect x="54.9" y="120.7" class="st5" width="1.1" height="35.7"/>
	<rect x="19" y="127.2" class="st8" width="20" height="29.2"/>
	<rect x="19" y="120.7" class="st2" width="20" height="6.6"/>
	<polygon class="st1" points="26.7,127.2 25.1,127.2 25.1,122.2 25.9,121.3 26.7,122.2 	"/>
	<polygon class="st1" points="32.7,127.2 31.1,127.2 31.1,122.2 31.9,121.3 32.7,122.2 	"/>
	<rect x="27" y="127.8" class="st1" width="4" height="28.6"/>
	<path class="st6" d="M28.1,136.6L28.1,136.6c-0.2,0-0.3-0.1-0.3-0.3v-5.9c0-0.2,0.1-0.3,0.3-0.3c0.2,0,0.3,0.1,0.3,0.3v5.9
		C28.4,136.4,28.3,136.6,28.1,136.6"/>
	<path class="st6" d="M30,136.6L30,136.6c-0.2,0-0.3-0.1-0.3-0.3v-5.9c0-0.2,0.1-0.3,0.3-0.3c0.2,0,0.3,0.1,0.3,0.3v5.9
		C30.3,136.4,30.1,136.6,30,136.6"/>
	<path class="st6" d="M28,146.8L28,146.8c-0.2,0-0.3-0.1-0.3-0.3v-5.9c0-0.2,0.1-0.3,0.3-0.3c0.2,0,0.3,0.1,0.3,0.3v5.9
		C28.3,146.6,28.2,146.8,28,146.8"/>
	<path class="st6" d="M29.9,146.8L29.9,146.8c-0.2,0-0.3-0.1-0.3-0.3v-5.9c0-0.2,0.1-0.3,0.3-0.3c0.2,0,0.3,0.1,0.3,0.3v5.9
		C30.2,146.6,30.1,146.8,29.9,146.8"/>
	<rect x="33" y="127.8" class="st1" width="4" height="28.6"/>
	<path class="st6" d="M34.1,136.6L34.1,136.6c-0.2,0-0.3-0.1-0.3-0.3v-5.9c0-0.2,0.1-0.3,0.3-0.3c0.2,0,0.3,0.1,0.3,0.3v5.9
		C34.4,136.4,34.3,136.6,34.1,136.6"/>
	<path class="st6" d="M36,136.6L36,136.6c-0.2,0-0.3-0.1-0.3-0.3v-5.9c0-0.2,0.1-0.3,0.3-0.3c0.2,0,0.3,0.1,0.3,0.3v5.9
		C36.3,136.4,36.2,136.6,36,136.6"/>
	<path class="st6" d="M34.1,146.8L34.1,146.8c-0.2,0-0.3-0.1-0.3-0.3v-5.9c0-0.2,0.1-0.3,0.3-0.3c0.2,0,0.3,0.1,0.3,0.3v5.9
		C34.3,146.6,34.2,146.8,34.1,146.8"/>
	<path class="st6" d="M35.9,146.8L35.9,146.8c-0.2,0-0.3-0.1-0.3-0.3v-5.9c0-0.2,0.1-0.3,0.3-0.3c0.2,0,0.3,0.1,0.3,0.3v5.9
		C36.2,146.6,36.1,146.8,35.9,146.8"/>
	<rect x="20.9" y="127.8" class="st1" width="4" height="28.6"/>
	<path class="st6" d="M22.1,136.6L22.1,136.6c-0.2,0-0.3-0.1-0.3-0.3v-5.9c0-0.2,0.1-0.3,0.3-0.3c0.2,0,0.3,0.1,0.3,0.3v5.9
		C22.4,136.4,22.3,136.6,22.1,136.6"/>
	<path class="st6" d="M24,136.6L24,136.6c-0.2,0-0.3-0.1-0.3-0.3v-5.9c0-0.2,0.1-0.3,0.3-0.3c0.2,0,0.3,0.1,0.3,0.3v5.9
		C24.3,136.4,24.1,136.6,24,136.6"/>
	<path class="st6" d="M22,146.8L22,146.8c-0.2,0-0.3-0.1-0.3-0.3v-5.9c0-0.2,0.1-0.3,0.3-0.3c0.2,0,0.3,0.1,0.3,0.3v5.9
		C22.3,146.6,22.2,146.8,22,146.8"/>
	<path class="st6" d="M23.9,146.8L23.9,146.8c-0.2,0-0.3-0.1-0.3-0.3v-5.9c0-0.2,0.1-0.3,0.3-0.3c0.2,0,0.3,0.1,0.3,0.3v5.9
		C24.2,146.6,24.1,146.8,23.9,146.8"/>
	<rect x="0" y="127.2" class="st5" width="58" height="0.6"/>
	<rect x="0" y="128.6" class="st5" width="58" height="0.6"/>
	<rect x="0" y="137.4" class="st5" width="58" height="0.6"/>
	<rect x="0" y="138.8" class="st5" width="58" height="0.6"/>
	<rect x="0" y="147.6" class="st5" width="58" height="0.6"/>
	<rect x="0" y="149" class="st5" width="58" height="0.6"/>
	<rect x="34.4" y="90.8" class="st4" width="24.8" height="24.6"/>
	<rect x="34.4" y="90.8" class="st9" width="24.8" height="2.7"/>
	<rect x="34.4" y="112.8" class="st9" width="24.8" height="2.7"/>
	<rect x="34.4" y="112.8" class="st1" width="24.8" height="24.6"/>
	<rect x="34.4" y="112.8" class="st9" width="24.8" height="2.7"/>
	<rect x="34.4" y="134.8" class="st9" width="24.8" height="2.7"/>
	<rect x="34.4" y="134.8" class="st1" width="24.8" height="24.6"/>
	<rect x="34.4" y="134.8" class="st9" width="24.8" height="2.7"/>
	<rect x="34.4" y="156.7" class="st9" width="24.8" height="2.7"/>
	<rect x="35.8" y="90.2" class="st10" width="22" height="0.6"/>
	<rect x="35.8" y="84.5" class="st5" width="22" height="5.7"/>
	<rect x="34.4" y="59.8" class="st3" width="24.8" height="24.6"/>
	<rect x="34.4" y="59.8" class="st1" width="24.8" height="2.8"/>
	<rect x="34.4" y="82" class="st1" width="24.8" height="2.5"/>
	<path class="st2" d="M39.1,72.2c0-4.3,3.5-7.7,7.7-7.7c4.3,0,7.7,3.5,7.7,7.7c0,4.3-3.5,7.7-7.7,7.7C42.5,79.9,39.1,76.4,39.1,72.2
		"/>
	<path class="st11" d="M40.1,72.2c0-3.7,3-6.7,6.7-6.7c3.7,0,6.7,3,6.7,6.7c0,3.7-3,6.7-6.7,6.7C43.1,78.8,40.1,75.8,40.1,72.2"/>
	<path class="st12" d="M46.8,67.4L46.8,67.4c-0.1,0-0.2-0.1-0.2-0.2v-0.8c0-0.1,0.1-0.2,0.2-0.2c0.1,0,0.2,0.1,0.2,0.2v0.8
		C47,67.3,46.9,67.4,46.8,67.4"/>
	<path class="st12" d="M46.8,78.4L46.8,78.4c-0.1,0-0.2-0.1-0.2-0.2v-0.8c0-0.1,0.1-0.2,0.2-0.2c0.1,0,0.2,0.1,0.2,0.2v0.8
		C47,78.3,46.9,78.4,46.8,78.4"/>
	<path class="st12" d="M41.9,72.3L41.9,72.3c0,0.1-0.1,0.2-0.2,0.2h-0.8c-0.1,0-0.2-0.1-0.2-0.2c0-0.1,0.1-0.2,0.2-0.2h0.8
		C41.8,72.1,41.9,72.2,41.9,72.3"/>
	<path class="st12" d="M52.9,72.3L52.9,72.3c0,0.1-0.1,0.2-0.2,0.2h-0.8c-0.1,0-0.2-0.1-0.2-0.2c0-0.1,0.1-0.2,0.2-0.2h0.8
		C52.8,72.1,52.9,72.2,52.9,72.3"/>
	<path class="st12" d="M44.7,67.1L44.7,67.1c0,0-0.1,0-0.1,0l-0.1-0.3c0,0,0-0.1,0-0.1c0,0,0.1,0,0.1,0l0.1,0.3
		C44.7,67.1,44.7,67.1,44.7,67.1"/>
	<path class="st12" d="M49.2,77.9L49.2,77.9c0,0-0.1,0-0.1,0l-0.1-0.3c0,0,0-0.1,0-0.1c0,0,0.1,0,0.1,0l0.1,0.3
		C49.2,77.9,49.2,77.9,49.2,77.9"/>
	<path class="st12" d="M42.9,68.3L42.9,68.3c0,0-0.1,0-0.1,0l-0.2-0.2c0,0,0-0.1,0-0.1c0,0,0.1,0,0.1,0l0.2,0.2
		C42.9,68.3,42.9,68.3,42.9,68.3"/>
	<path class="st12" d="M51.1,76.6L51.1,76.6c0,0-0.1,0-0.1,0l-0.2-0.2c0,0,0-0.1,0-0.1c0,0,0.1,0,0.1,0l0.2,0.2
		C51.2,76.5,51.2,76.6,51.1,76.6"/>
	<path class="st12" d="M41.6,70.2L41.6,70.2c0,0-0.1,0.1-0.1,0l-0.3-0.1c0,0-0.1-0.1,0-0.1c0,0,0.1-0.1,0.1,0l0.3,0.1
		C41.6,70.1,41.7,70.1,41.6,70.2"/>
	<path class="st12" d="M52.5,74.6L52.5,74.6c0,0-0.1,0.1-0.1,0L52,74.6c0,0-0.1-0.1,0-0.1c0,0,0.1-0.1,0.1,0l0.3,0.1
		C52.5,74.6,52.5,74.6,52.5,74.6"/>
	<path class="st12" d="M41.6,74.5L41.6,74.5c0,0,0,0.1,0,0.1l-0.3,0.1c0,0-0.1,0-0.1,0c0,0,0-0.1,0-0.1l0.3-0.1
		C41.6,74.4,41.6,74.4,41.6,74.5"/>
	<path class="st12" d="M52.5,70L52.5,70c0,0,0,0.1,0,0.1l-0.3,0.1c0,0-0.1,0-0.1,0c0,0,0-0.1,0-0.1l0.3-0.1
		C52.4,69.9,52.4,69.9,52.5,70"/>
	<path class="st12" d="M42.9,76.3L42.9,76.3c0,0,0,0.1,0,0.1l-0.2,0.2c0,0-0.1,0-0.1,0c0,0,0-0.1,0-0.1l0.2-0.2
		C42.8,76.3,42.8,76.3,42.9,76.3"/>
	<path class="st12" d="M51.1,68L51.1,68c0,0,0,0.1,0,0.1l-0.2,0.2c0,0-0.1,0-0.1,0c0,0,0-0.1,0-0.1L51,68C51.1,68,51.1,68,51.1,68"
		/>
	<path class="st12" d="M44.7,77.5L44.7,77.5c0,0,0.1,0.1,0,0.1l-0.1,0.3c0,0-0.1,0.1-0.1,0c0,0-0.1-0.1,0-0.1l0.1-0.3
		C44.6,77.5,44.6,77.5,44.7,77.5"/>
	<path class="st12" d="M49.2,66.7L49.2,66.7c0,0,0.1,0.1,0,0.1l-0.1,0.3c0,0-0.1,0.1-0.1,0c0,0-0.1-0.1,0-0.1l0.1-0.3
		C49.1,66.7,49.1,66.7,49.2,66.7"/>
	<path class="st12" d="M47.3,72.3c0,0.3-0.2,0.5-0.5,0.5c-0.3,0-0.5-0.2-0.5-0.5c0-0.3,0.2-0.5,0.5-0.5C47.1,71.8,47.3,72,47.3,72.3
		"/>
	<path class="st12" d="M47.2,72h-0.7c0.1-1.5,0.2-3,0.4-4.5C47,69,47.1,70.5,47.2,72"/>
	<path class="st12" d="M47.3,72v0.5c1.1-0.1,2.2-0.2,3.3-0.3C49.5,72.2,48.4,72.1,47.3,72"/>
	<rect x="36.7" y="53.6" class="st4" width="20.4" height="6.3"/>
	<path class="st6" d="M38.4,59.8v-5.5c0-0.3,0.3-0.6,0.6-0.6c0.3,0,0.6,0.3,0.6,0.6v5.5H38.4z"/>
	<path class="st6" d="M41,59.8v-5.5c0-0.3,0.3-0.6,0.6-0.6c0.3,0,0.6,0.3,0.6,0.6v5.5H41z"/>
	<path class="st6" d="M43.6,59.8v-5.5c0-0.3,0.3-0.6,0.6-0.6c0.3,0,0.6,0.3,0.6,0.6v5.5H43.6z"/>
	<path class="st6" d="M46.2,59.8v-5.5c0-0.3,0.3-0.6,0.6-0.6c0.3,0,0.6,0.3,0.6,0.6v5.5H46.2z"/>
	<path class="st6" d="M48.9,59.8v-5.5c0-0.3,0.3-0.6,0.6-0.6c0.3,0,0.6,0.3,0.6,0.6v5.5H48.9z"/>
	<path class="st6" d="M51.5,59.8v-5.5c0-0.3,0.3-0.6,0.6-0.6c0.3,0,0.6,0.3,0.6,0.6v5.5H51.5z"/>
	<path class="st6" d="M54.1,59.8v-5.5c0-0.3,0.3-0.6,0.6-0.6c0.3,0,0.6,0.3,0.6,0.6v5.5H54.1z"/>
	<path class="st6" d="M38.4,112.8V96.1c0-1,0.3-1.8,0.6-1.8c0.3,0,0.6,0.8,0.6,1.8v16.7H38.4z"/>
	<path class="st6" d="M41,112.8V96.1c0-1,0.3-1.8,0.6-1.8c0.3,0,0.6,0.8,0.6,1.8v16.7H41z"/>
	<path class="st6" d="M43.6,112.8V96.1c0-1,0.3-1.8,0.6-1.8c0.3,0,0.6,0.8,0.6,1.8v16.7H43.6z"/>
	<path class="st6" d="M46.3,112.8V96.1c0-1,0.3-1.8,0.6-1.8c0.3,0,0.6,0.8,0.6,1.8v16.7H46.3z"/>
	<path class="st6" d="M48.9,112.8V96.1c0-1,0.3-1.8,0.6-1.8c0.3,0,0.6,0.8,0.6,1.8v16.7H48.9z"/>
	<path class="st6" d="M51.5,112.8V96.1c0-1,0.3-1.8,0.6-1.8c0.3,0,0.6,0.8,0.6,1.8v16.7H51.5z"/>
	<path class="st6" d="M54.1,112.8V96.1c0-1,0.3-1.8,0.6-1.8c0.3,0,0.6,0.8,0.6,1.8v16.7H54.1z"/>
	<path class="st6" d="M38.4,134.8v-16.7c0-1,0.3-1.8,0.6-1.8c0.3,0,0.6,0.8,0.6,1.8v16.7H38.4z"/>
	<path class="st6" d="M41,134.8v-16.7c0-1,0.3-1.8,0.6-1.8c0.3,0,0.6,0.8,0.6,1.8v16.7H41z"/>
	<path class="st6" d="M43.6,134.8v-16.7c0-1,0.3-1.8,0.6-1.8c0.3,0,0.6,0.8,0.6,1.8v16.7H43.6z"/>
	<path class="st6" d="M46.2,134.8v-16.7c0-1,0.3-1.8,0.6-1.8c0.3,0,0.6,0.8,0.6,1.8v16.7H46.2z"/>
	<path class="st6" d="M48.8,134.8v-16.7c0-1,0.3-1.8,0.6-1.8c0.3,0,0.6,0.8,0.6,1.8v16.7H48.8z"/>
	<path class="st6" d="M51.5,134.8v-16.7c0-1,0.3-1.8,0.6-1.8c0.3,0,0.6,0.8,0.6,1.8v16.7H51.5z"/>
	<path class="st6" d="M54.1,134.8v-16.7c0-1,0.3-1.8,0.6-1.8c0.3,0,0.6,0.8,0.6,1.8v16.7H54.1z"/>
	<path class="st6" d="M38.4,156.7V140c0-1,0.3-1.8,0.6-1.8c0.3,0,0.6,0.8,0.6,1.8v16.7H38.4z"/>
	<path class="st6" d="M41,156.7V140c0-1,0.3-1.8,0.6-1.8c0.3,0,0.6,0.8,0.6,1.8v16.7H41z"/>
	<path class="st6" d="M43.6,156.7V140c0-1,0.3-1.8,0.6-1.8c0.3,0,0.6,0.8,0.6,1.8v16.7H43.6z"/>
	<path class="st6" d="M46.3,156.7V140c0-1,0.3-1.8,0.6-1.8c0.3,0,0.6,0.8,0.6,1.8v16.7H46.3z"/>
	<path class="st6" d="M48.9,156.7V140c0-1,0.3-1.8,0.6-1.8c0.3,0,0.6,0.8,0.6,1.8v16.7H48.9z"/>
	<path class="st6" d="M51.5,156.7V140c0-1,0.3-1.8,0.6-1.8c0.3,0,0.6,0.8,0.6,1.8v16.7H51.5z"/>
	<path class="st6" d="M54.1,156.7V140c0-1,0.3-1.8,0.6-1.8c0.3,0,0.6,0.8,0.6,1.8v16.7H54.1z"/>
	<rect x="34.4" y="58.2" class="st3" width="0.8" height="1.7"/>
	<rect x="34.2" y="57.9" class="st3" width="1.2" height="0.3"/>
	<rect x="58.4" y="58.2" class="st3" width="0.8" height="1.7"/>
	<rect x="58.2" y="57.9" class="st3" width="1.2" height="0.3"/>
	<rect x="36.7" y="51.6" class="st6" width="20.3" height="1.9"/>
	<path class="st7" d="M35.4,51.7h22.9c-1.8-3.3-3.4-6.3-4.6-8.9c-0.9-1.9-1.6-3.4-2-4.5H42c-0.4,1.1-1.1,2.5-1.9,4.3
		C38.8,45.3,37.2,48.3,35.4,51.7"/>
	<path class="st2" d="M39.4,47.9c0.5,0,1,0.5,1,1.1v2h-2v-2C38.4,48.4,38.9,47.9,39.4,47.9"/>
	<path class="st2" d="M44.4,47.9c0.5,0,1,0.5,1,1.1v2h-2v-2C43.4,48.4,43.8,47.9,44.4,47.9"/>
	<path class="st2" d="M49.3,47.9c0.5,0,1,0.5,1,1.1v2h-2v-2C48.3,48.4,48.7,47.9,49.3,47.9"/>
	<path class="st2" d="M54.2,47.9c0.5,0,1,0.5,1,1.1v2h-2v-2C53.2,48.4,53.7,47.9,54.2,47.9"/>
	<path class="st2" d="M41.9,41.8c0.5,0,1,0.5,1,1.1v2h-2v-2C40.9,42.3,41.4,41.8,41.9,41.8"/>
	<path class="st2" d="M46.8,41.8c0.5,0,1,0.5,1,1.1v2h-2v-2C45.8,42.3,46.3,41.8,46.8,41.8"/>
	<path class="st2" d="M51.8,41.8c0.5,0,1,0.5,1,1.1v2h-2v-2C50.8,42.3,51.2,41.8,51.8,41.8"/>
	<rect x="42.1" y="28.8" class="st4" width="9.5" height="9.5"/>
	<rect x="42.1" y="28.8" class="st6" width="9.5" height="0.8"/>
	<rect x="42.1" y="37.5" class="st6" width="9.5" height="0.8"/>
	<rect x="44.1" y="30.7" class="st6" width="0.3" height="5.6"/>
	<rect x="45.4" y="30.7" class="st6" width="0.3" height="5.6"/>
	<rect x="46.7" y="30.7" class="st6" width="0.3" height="5.6"/>
	<rect x="48" y="30.7" class="st6" width="0.3" height="5.6"/>
	<rect x="49.2" y="30.7" class="st6" width="0.3" height="5.6"/>
	<path class="st7" d="M52.3,28.8h-11c0.8-1.1,1.6-2.3,2.4-3.8c0.7-1.2,1.2-2.4,1.6-3.5h3.1c0.4,1.1,0.9,2.4,1.6,3.7
		C50.8,26.7,51.6,27.9,52.3,28.8"/>
	<path class="st2" d="M44.1,27.3c0.2,0,0.4,0.2,0.4,0.4v0.8h-0.8v-0.8C43.6,27.5,43.8,27.3,44.1,27.3"/>
	<path class="st2" d="M45.6,24.8c0.2,0,0.4,0.2,0.4,0.4V26h-0.8v-0.8C45.2,25,45.3,24.8,45.6,24.8"/>
	<path class="st2" d="M48.1,24.8c0.2,0,0.4,0.2,0.4,0.4V26h-0.8v-0.8C47.7,25,47.9,24.8,48.1,24.8"/>
	<path class="st2" d="M46.8,27.3c0.2,0,0.4,0.2,0.4,0.4v0.8h-0.8v-0.8C46.4,27.5,46.6,27.3,46.8,27.3"/>
	<path class="st2" d="M49.6,27.3c0.2,0,0.4,0.2,0.4,0.4v0.8h-0.8v-0.8C49.2,27.5,49.4,27.3,49.6,27.3"/>
	<path class="st2" d="M46.8,22.4c0.2,0,0.4,0.2,0.4,0.5v0.8h-0.8v-0.8C46.4,22.6,46.6,22.4,46.8,22.4"/>
	<rect x="45.3" y="15.9" class="st7" width="3.1" height="5.7"/>
	<rect x="46.1" y="7.9" class="st7" width="1.6" height="7.9"/>
	<rect x="46.6" class="st2" width="0.4" height="7.9"/>
	<path class="st13" d="M76.3,125.6c0,0,0-2.5-7.3-2.5c-7.3,0-7.3,2.5-7.3,2.5v31.5h14.5V125.6z"/>
	<path class="st14" d="M74.4,125.8c0,0,0-1.8-5.4-1.8c-5.4,0-5.4,1.8-5.4,1.8v1.8l10.8,0V125.8z"/>
	<rect x="63.4" y="132" class="st15" width="11.1" height="18.4"/>
	<rect x="62.2" y="128.8" class="st11" width="13.5" height="2.1"/>
	<polygon class="st12" points="64.5,129.2 64.5,129.4 64.1,129.4 64.1,130.5 63.9,130.5 63.9,129.4 63.5,129.4 63.5,129.2 	"/>
	<polygon class="st12" points="65.6,129.2 65.6,129.4 65,129.4 65,129.7 65.5,129.7 65.5,130 65,130 65,130.2 65.6,130.2 
		65.6,130.5 64.7,130.5 64.7,129.2 	"/>
	<polygon class="st12" points="66.1,129.2 66.1,130.2 66.7,130.2 66.7,130.5 65.8,130.5 65.8,129.2 	"/>
	<polygon class="st12" points="67.8,129.2 67.8,129.4 67.2,129.4 67.2,129.7 67.8,129.7 67.8,130 67.2,130 67.2,130.2 67.8,130.2 
		67.8,130.5 66.9,130.5 66.9,129.2 	"/>
	<path class="st12" d="M68.5,129.2c0.3,0,0.6,0.1,0.6,0.4c0,0.3-0.2,0.4-0.6,0.4h-0.2v0.4H68v-1.3H68.5z M68.5,129.4h-0.2v0.4h0.2
		c0.1,0,0.3,0,0.3-0.2C68.8,129.5,68.7,129.4,68.5,129.4"/>
	<polygon class="st12" points="70.4,129.2 70.4,130.5 70.1,130.5 70.1,130 69.5,130 69.5,130.5 69.3,130.5 69.3,129.2 69.5,129.2 
		69.5,129.7 70.1,129.7 70.1,129.2 	"/>
	<path class="st12" d="M71.3,129.2c0.5,0,0.7,0.3,0.7,0.7c0,0.4-0.2,0.7-0.7,0.7c-0.5,0-0.7-0.3-0.7-0.7
		C70.6,129.5,70.8,129.2,71.3,129.2 M71.3,129.4c-0.3,0-0.4,0.2-0.4,0.4c0,0.2,0.1,0.4,0.4,0.4c0.3,0,0.4-0.2,0.4-0.4
		C71.7,129.6,71.6,129.4,71.3,129.4"/>
	<path class="st12" d="M72.2,130.5v-1.3h0.3L73,130c0-0.1,0-0.1,0-0.2v-0.7h0.3v1.3h-0.3l-0.6-0.8c0,0.1,0,0.1,0,0.2v0.7H72.2z"/>
	<polygon class="st12" points="74.5,129.2 74.5,129.4 73.9,129.4 73.9,129.7 74.4,129.7 74.4,130 73.9,130 73.9,130.2 74.5,130.2 
		74.5,130.5 73.6,130.5 73.6,129.2 	"/>
	<rect x="63.9" y="132.6" class="st12" width="3.2" height="3.2"/>
	<rect x="67.4" y="132.6" class="st12" width="3.2" height="3.2"/>
	<rect x="71" y="132.6" class="st12" width="3.2" height="3.2"/>
	<rect x="63.9" y="136.1" class="st12" width="3.2" height="3.2"/>
	<rect x="67.4" y="136.1" class="st12" width="3.2" height="3.2"/>
	<rect x="71" y="136.1" class="st12" width="3.2" height="3.2"/>
	<rect x="63.9" y="139.6" class="st12" width="3.2" height="3.2"/>
	<rect x="67.4" y="139.6" class="st12" width="3.2" height="3.2"/>
	<rect x="71" y="139.6" class="st12" width="3.2" height="3.2"/>
	<rect x="63.9" y="143.1" class="st12" width="3.2" height="3.2"/>
	<rect x="67.4" y="143.1" class="st12" width="3.2" height="3.2"/>
	<rect x="71" y="143.1" class="st12" width="3.2" height="3.2"/>
	<rect x="63.9" y="146.6" class="st12" width="3.2" height="3.2"/>
	<rect x="67.4" y="146.6" class="st12" width="3.2" height="3.2"/>
	<rect x="70.9" y="146.6" class="st12" width="3.2" height="3.2"/>
	<rect x="63.4" y="151.9" class="st15" width="11.1" height="3.4"/>
	<rect x="59.1" y="157.1" class="st12" width="19.7" height="2.3"/>
</g>
<rect x="114" y="25" class="st16" width="34.9" height="23.3"/>
<polygon class="st17" points="128,25 128,33.1 114,33.1 114,40.1 128,40.1 128,48.3 134.9,48.3 134.9,40.1 148.9,40.1 148.9,33.1 
	134.9,33.1 134.9,25 "/>
<polygon class="st17" points="114,25 114,27.7 144.9,48.3 148.9,48.3 148.9,45.6 118,25 "/>
<polygon class="st17" points="144.9,25 114,45.6 114,48.3 118,48.3 148.9,27.7 148.9,25 "/>
<polygon class="st18" points="129.4,25 129.4,34.6 114,34.6 114,38.7 129.4,38.7 129.4,48.3 133.5,48.3 133.5,38.7 148.9,38.7 
	148.9,34.6 133.5,34.6 133.5,25 "/>
<polygon class="st18" points="136.8,40.1 148.9,48.2 148.9,46.4 139.5,40.1 "/>
<polygon class="st18" points="146.1,25 134.9,32.4 134.9,33.1 136.7,33.1 148.9,25 148.9,25 "/>
<polygon class="st18" points="126.1,40.1 114,48.2 114,48.3 116.7,48.3 128,40.8 128,40.1 "/>
<polygon class="st18" points="114,26.9 123.5,33.1 126.2,33.1 114,25 "/>
</svg>
