<?xml version="1.0" encoding="utf-8"?>
<!-- Generator: Adobe Illustrator 21.0.2, SVG Export Plug-In . SVG Version: 6.00 Build 0)  -->
<svg version="1.1" id="Layer_1" xmlns="http://www.w3.org/2000/svg" xmlns:xlink="http://www.w3.org/1999/xlink" x="0px" y="0px"
	 viewBox="0 0 50 3133" style="enable-background:new 0 0 50 3133;" xml:space="preserve">
<style type="text/css">
	.st0{fill:#FFFFFF;}
	.st1{fill:#FFD07F;}
	.st2{fill:#F5344B;}
	.st3{fill:#A0ECFF;}
	.st4{fill:#B5B5B5;}
	.st5{fill:#020202;}
	.st6{fill:#0F4DA8;}
</style>
<path class="st0" d="M25.9,13.4c-0.1,0-0.3,0-0.4,0c-2.1,0.2-4.1,2-3.9,4.7c0,0.2,0,0.4,0.1,0.7c-0.2,0-0.4,0-0.5,0
	c-0.6,0-1,0.6-1,1.1s0.6,1,1.1,1h0.6c0,0.4,0.1,0.8,0.1,1.1c0,0.9-0.2,1.6-0.9,2.6c-0.2,0.3-0.2,0.8-0.1,1.1s0.6,0.6,1,0.6h7.2
	c0.6,0,1.1-0.5,1.1-1.1s-0.5-1.1-1.1-1.1h-5.5c0.3-0.7,0.4-1.4,0.4-2.1c0-0.4,0-0.7-0.1-1.1h2.6c0.6,0,1.1-0.5,1.1-1.1
	s-0.5-1.1-1.1-1.1h-2.8c0-0.3,0-0.5-0.1-0.8l0,0c-0.1-1.6,0.9-2.3,2-2.4c0.6-0.1,1.1,0.1,1.5,0.4s0.7,0.7,0.8,1.5
	c0.1,0.6,0.6,1,1.2,1c0.6-0.1,1-0.6,1-1.2c-0.1-1.3-0.8-2.4-1.7-3C27.8,13.7,26.8,13.4,25.9,13.4z"/>
<path class="st0" d="M22.3,41c0.6,0,1.2-0.1,1.8-0.3L18,55.9c-0.2,0.5-0.8,0.5-1.1,0.1L14,50.9c-0.1-0.2-0.3-0.2-0.5-0.2l-5.4,1.7
	c-0.5,0.2-0.9-0.3-0.7-0.8l5.8-14.4c0.8,0.4,1.6,0.6,2.5,0.6c0.4,0,0.7-0.1,1.1-0.1h0.1l0.1,0.1C18,39.8,20.1,41,22.3,41z
	 M38.6,37.3c-0.8,0.4-1.6,0.6-2.6,0.6c-0.4,0-0.7-0.1-1.1-0.1h-0.1l-0.1,0.1c-1.1,1.9-3.1,3.1-5.3,3.1c-0.6,0-1.2-0.1-1.8-0.3
	L33.7,56c0.2,0.5,0.8,0.5,1.1,0.1l2.9-5.1c0.1-0.2,0.3-0.2,0.5-0.2l5.4,1.7c0.5,0.2,0.9-0.3,0.7-0.8L38.6,37.3z"/>
<path class="st0" d="M43.5,18.5c1.1,1,1.1,2.7,0,3.6l-0.7,0.6c-0.8,0.7-1.1,1.8-0.6,2.8l0.4,0.9c0.6,1.4-0.2,2.9-1.6,3.3l-0.9,0.2
	c-1,0.3-1.7,1.2-1.8,2.2L38.2,33c-0.1,1.5-1.4,2.5-2.9,2.3l-0.9-0.2c-1-0.2-2.1,0.3-2.6,1.2l-0.5,0.8c-0.7,1.3-2.4,1.6-3.6,0.8
	l-0.8-0.6c-0.8-0.6-2-0.6-2.8,0l-0.8,0.5c-1.2,0.8-2.9,0.5-3.5-0.8l-0.5-0.8c-0.5-0.9-1.5-1.4-2.5-1.2l-0.9,0.2
	c-1.5,0.2-2.8-0.8-2.8-2.3L13,32c-0.1-1.1-0.8-1.9-1.8-2.2l-0.9-0.2c-1.4-0.4-2.1-1.9-1.6-3.3l0.4-0.9c0.4-0.9,0.2-2.1-0.6-2.8
	L7.8,22c-1.1-1-1.1-2.7,0-3.6l0.7-0.6C9.3,17.1,9.6,16,9.1,15l-0.4-0.9c-0.6-1.4,0.2-2.9,1.6-3.3l0.9-0.2c1-0.3,1.7-1.2,1.8-2.2
	l0.1-0.9C13.2,6,14.5,5,16,5.2l0.9,0.2c1,0.2,2.1-0.3,2.6-1.2L20,3.4c0.7-1.3,2.4-1.6,3.6-0.8l0.8,0.6c0.8,0.6,2,0.6,2.8,0L28,2.7
	c1.2-0.8,2.9-0.5,3.5,0.8L32,4.3c0.5,0.9,1.5,1.4,2.5,1.2l0.9-0.2c1.5-0.2,2.8,0.8,2.8,2.3l0.1,0.9c0.1,1.1,0.8,1.9,1.8,2.2l0.9,0.2
	c1.4,0.4,2.1,1.9,1.6,3.3l-0.4,0.9c-0.4,0.9-0.2,2.1,0.6,2.8L43.5,18.5z M37.5,20.3c0-6.6-5.3-11.9-11.9-11.9s-11.9,5.3-11.9,11.9
	S19,32.2,25.6,32.2S37.5,26.9,37.5,20.3z"/>
<g>
	<g>
		<path class="st1" d="M40.9,150.3c-0.7,2.8-3.3,4.9-6.3,4.9s-5.6-2.1-6.3-4.9h-23c-0.9,0-1.6-0.7-1.6-1.6s0.7-1.6,1.6-1.6h23
			c0.7-2.8,3.3-4.9,6.3-4.9s5.6,2.1,6.3,4.9h3.5c0.9,0,1.6,0.7,1.6,1.6s-0.7,1.6-1.6,1.6H40.9z M8.7,130.7c0.7-2.8,3.3-4.9,6.3-4.9
			s5.6,2.1,6.3,4.9h23c0.9,0,1.6,0.7,1.6,1.6s-0.7,1.6-1.6,1.6h-23c-0.7,2.8-3.3,4.9-6.3,4.9s-5.6-2.1-6.3-4.9H5.3
			c-0.9,0-1.6-0.7-1.6-1.6s0.7-1.6,1.6-1.6H8.7z M40.9,117.7c-0.7,2.8-3.3,4.9-6.3,4.9s-5.6-2.1-6.3-4.9h-23c-0.9,0-1.6-0.7-1.6-1.6
			s0.7-1.6,1.6-1.6h23c0.7-2.8,3.3-4.9,6.3-4.9s5.6,2.1,6.3,4.9h3.5c0.9,0,1.6,0.7,1.6,1.6s-0.7,1.6-1.6,1.6H40.9z M31.4,116
			c0,1.8,1.5,3.3,3.3,3.3s3.3-1.5,3.3-3.3s-1.5-3.3-3.3-3.3C32.8,112.8,31.4,114.2,31.4,116z M18.3,132.3c0-1.8-1.5-3.3-3.3-3.3
			s-3.3,1.5-3.3,3.3s1.5,3.3,3.3,3.3S18.3,134.1,18.3,132.3z M31.4,148.6c0,1.8,1.5,3.3,3.3,3.3s3.3-1.5,3.3-3.3s-1.5-3.3-3.3-3.3
			C32.8,145.4,31.4,146.8,31.4,148.6z"/>
	</g>
</g>
<g>
	<path class="st2" d="M36.3,222.2c0-7.7-6.3-14-14-14s-14,6.3-14,14c0,10.9,14,26.4,14,26.4S36.3,233.1,36.3,222.2z M16.1,222.2
		c0-3.4,2.8-6.2,6.2-6.2s6.2,2.8,6.2,6.2s-2.8,6.2-6.2,6.2S16.1,225.7,16.1,222.2z"/>
</g>
<path id="adults_2_" class="st0" d="M37.1,328.9L37.1,328.9z M12.1,328.9L12.1,328.9z M1.2,340.3h31.5V339c0.2-2.4-1-4.6-3.1-5.8
	c-2.3-1.4-4.7-2.7-7.1-3.9c-0.6-0.5-1-1.2-1-2c-0.1-0.3-0.1-0.6-0.1-0.8c3.5-3.1,2.8-9.7,2.8-9.7c-0.4-7.4-6.6-7.4-7.2-7.4
	s-6.8-0.1-7.2,7.4c0,0-0.7,6.6,2.8,9.7c0,0.3,0,0.5-0.1,0.8c0,0.8-0.4,1.5-1,2c0,0-3.8,1.8-7.1,3.9c-2.1,1.1-3.3,3.4-3.1,5.8v1.3
	H1.2z M32.7,339.1L32.7,339.1C32.6,339,32.7,339,32.7,339.1z M1.2,339.1L1.2,339.1z M30.2,326.1c0,0-2.5,1.2-4.9,2.7
	c1.4,0.7,3.4,1.8,5.3,3c1.3,0.8,2.4,1.9,3.1,3.3c0,0,0,0.1,0.1,0.1h14.3v-1l0,0c0.2-2-0.8-3.9-2.6-4.8c-1.9-1.2-3.9-2.3-5.9-3.3
	c-0.5-0.4-0.8-1-0.8-1.7c-0.1-0.2-0.1-0.5-0.1-0.7c2.9-2.6,2.3-8.1,2.3-8.1c-0.3-6.2-5.5-6.2-6-6.1c-3.2-0.1-5.9,2.3-6,5.5
	c0,0.2,0,0.4,0,0.6c0,0-0.6,5.5,2.3,8.1c0,0.2,0,0.5-0.1,0.7C31.1,325.1,30.7,325.7,30.2,326.1L30.2,326.1z M48,334.2L48,334.2z"/>
<path id="Children_Icon_2_" class="st0" d="M31.9,446.3v-11.6l-5.9-0.5c-0.2,0-0.4,0-0.6-0.1l0,0l0,0c-0.8-0.2-1.5-0.7-1.9-1.4
	l-2.3-4.5v17.9h-5.8v-8h-0.8v8H8.9v-17.9l-2.3,4.5c-0.7,1.3-2.3,1.9-3.6,1.2s-1.8-2.3-1.1-3.6l4.6-8.9c0.1-0.2,0.2-0.3,0.3-0.4
	c0.4-1.2,1.6-2,2.9-2h10.9c1.3,0,2.4,0.8,2.9,2c0.1,0.1,0.2,0.3,0.3,0.4l4.4,8.5h13.6c1,0,1.8,0.6,2.1,1.5c0.1,0.1,0.1,0.2,0.2,0.3
	l3.4,6.6c0.5,0.9,0.2,2.1-0.7,2.7c-0.9,0.5-2.1,0.2-2.7-0.7l-0.1-0.1l-1.7-3.4v9.5h-4.8v-6.5h-0.6v6.5
	C36.7,446.3,31.9,446.3,31.9,446.3z M32.6,423.5c0-2.2,1.8-4,4-4s4,1.8,4,4s-1.8,4-4,4l0,0C34.4,427.6,32.6,425.8,32.6,423.5z
	 M9.8,410.3c0-3,2.4-5.4,5.4-5.4s5.4,2.4,5.4,5.4s-2.4,5.4-5.4,5.4l0,0C12.2,415.7,9.8,413.3,9.8,410.3z"/>
<path id="infant_2_" class="st0" d="M39.9,514.7c3.4,0,6.2,2.8,6.2,6.2s-2.8,6.2-6.2,6.2s-6.2-2.8-6.2-6.2
	C33.7,517.4,36.5,514.7,39.9,514.7z M35.2,530.3c-0.1-0.4-0.3-0.7-0.5-1c-0.9-3.6-4.1-6-7.8-6H17c-4.5,0-8.1,3.6-8.1,8
	c0,1.4,0.4,2.9,1.1,4.1c0,0.2,0,0.4,0.1,0.6l0,0l0.7,3.1h-5c-2.1,0-3.7,1.7-3.7,3.7s1.7,3.7,3.7,3.7h9.6c2.1,0,3.7-1.7,3.7-3.7
	c0-0.3,0-0.5-0.1-0.8l-0.6-2.5h8.5c1,0,2.1-0.2,3-0.6l1.5,5.1c0.6,2,2.7,3.1,4.7,2.5c1.9-0.6,3-2.6,2.5-4.6L35.2,530.3z"/>
<g transform="translate(0,-952.36218)">
	<path class="st0" d="M37.5,1602.5c0.9-0.1,1.6-0.8,1.5-1.7c0-0.1,0-0.1,0-0.2l-2.9-13.8l10.7-9.5c0.7-0.6,0.7-1.6,0.1-2.3
		c-0.3-0.3-0.6-0.5-1-0.5l-14.4-1.6l-6-12.8c-0.4-0.8-1.3-1.2-2.2-0.8c-0.4,0.2-0.7,0.4-0.8,0.8l-6,12.8l-14.4,1.6
		c-0.9,0.1-1.6,0.9-1.5,1.8c0,0.4,0.2,0.7,0.5,1l10.7,9.5l-2.9,13.8c-0.2,0.9,0.4,1.7,1.3,1.9c0.4,0.1,0.8,0,1.1-0.2l12.6-6.9
		l12.6,6.9C36.9,1602.5,37.2,1602.6,37.5,1602.5z M35,1597.8l-10.2-5.7c-0.5-0.3-1.1-0.3-1.6,0l-10.2,5.7l2.4-11.2
		c0.1-0.6-0.1-1.1-0.5-1.5l-8.7-7.7l11.7-1.3c0.6-0.1,1.1-0.4,1.3-0.9l4.9-10.4l4.9,10.4c0.2,0.5,0.7,0.9,1.3,0.9l11.7,1.3l-8.7,7.7
		c-0.4,0.4-0.6,1-0.5,1.5C32.7,1586.6,35,1597.8,35,1597.8z"/>
</g>
<path id="Shape_8_copy_2" class="st3" d="M43.4,723.4c0,1.8-2.7,2-2.7,2h-9.3l-10.5,15.9h-3.2l3.1-15.9h-9.3l-6.6,6.5l1.3-7.8v-1.3
	l-1.3-8l6.6,6.6h9.3l-3.1-14.6h3.2l10.5,14.6h9.3C40.7,721.5,43.4,721.6,43.4,723.4z"/>
<path id="Shape_8_copy_2_1_" class="st3" d="M8.2,760h9.3L28,745.4h3.2L28.1,760h9.3l6.6-6.6l-1.3,8v1.3l1.3,7.8l-6.6-6.5h-9.3
	l3.1,15.9H28L17.5,764H8.2c0,0-2.7-0.2-2.7-2S8.2,760,8.2,760z"/>
<path class="st0" d="M12.6,901.7c-1.5,0-2.8,1.3-2.8,2.8v4.2c0,1.5,1.2,2.8,2.8,2.8s2.8-1.3,2.8-2.8v-4.2
	C15.4,903,14.1,901.7,12.6,901.7z M36.6,901.7c-1.5,0-2.8,1.3-2.8,2.8v4.2c0,1.5,1.3,2.8,2.8,2.8s2.8-1.3,2.8-2.8v-4.2
	C39.4,903,38.1,901.7,36.6,901.7z M12.6,903.1c0.8,0,1.4,0.6,1.4,1.4v4.2c0,0.8-0.6,1.4-1.4,1.4c-0.8,0-1.4-0.6-1.4-1.4v-4.2
	C11.2,903.7,11.8,903.1,12.6,903.1z M36.6,903.1c0.8,0,1.4,0.6,1.4,1.4v4.2c0,0.8-0.6,1.4-1.4,1.4s-1.4-0.6-1.4-1.4v-4.2
	C35.1,903.7,35.8,903.1,36.6,903.1z M4.3,906.1c-0.7,0-1.4,0.6-1.4,1.4v36.1c0,0.7,0.6,1.4,1.4,1.4h40.5c0.7,0,1.4-0.6,1.4-1.4
	v-36.1c0-0.7-0.6-1.4-1.4-1.4h-4.4v2.8c0,2.1-1.7,3.9-3.9,3.9c-2.1,0-3.9-1.7-3.9-3.9v-2.8H16.5v2.8c0,2.1-1.7,3.9-3.9,3.9
	c-2.1,0-3.9-1.7-3.9-3.9v-2.8H4.3z M6,915h37.2c0.7,0,1.2,0.5,1.2,1.2V942c0,0.7-0.6,1.2-1.2,1.2H6c-0.7,0-1.2-0.5-1.2-1.2v-25.8
	C4.7,915.5,5.3,915,6,915z M32.7,917.9c-0.6,0-1.1,0.5-1.1,1.1v4.3c0,0.6,0.5,1.1,1.1,1.1h7.6c0.6,0,1.1-0.5,1.1-1.1V919
	c0-0.6-0.5-1.1-1.1-1.1H32.7z M20.4,918.1c-0.3,0-0.6,0.3-0.6,0.6v4.9c0,0.3,0.3,0.6,0.6,0.6H29c0.3,0,0.6-0.3,0.6-0.6v-4.9
	c0-0.3-0.3-0.6-0.6-0.6H20.4z M33,919.2h7v3.8h-7V919.2z M32.7,925.8c-0.6,0-1.1,0.5-1.1,1.1v4.3c0,0.6,0.5,1.1,1.1,1.1h7.6
	c0.6,0,1.1-0.5,1.1-1.1v-4.3c0-0.6-0.5-1.1-1.1-1.1H32.7z M8.4,926c-0.3,0-0.6,0.3-0.6,0.6v4.9c0,0.3,0.3,0.6,0.6,0.6H17
	c0.3,0,0.6-0.3,0.6-0.6v-4.9c0-0.3-0.3-0.6-0.6-0.6H8.4z M20.4,926c-0.3,0-0.6,0.3-0.6,0.6v4.9c0,0.3,0.3,0.6,0.6,0.6H29
	c0.3,0,0.6-0.3,0.6-0.6v-4.9c0-0.3-0.3-0.6-0.6-0.6H20.4z M33,927.2h7v3.8h-7V927.2z M32.7,933.7c-0.6,0-1.1,0.5-1.1,1.1v4.3
	c0,0.6,0.5,1.1,1.1,1.1h7.6c0.6,0,1.1-0.5,1.1-1.1v-4.3c0-0.6-0.5-1.1-1.1-1.1H32.7z M8.4,933.9c-0.3,0-0.6,0.3-0.6,0.6v4.9
	c0,0.3,0.3,0.6,0.6,0.6H17c0.3,0,0.6-0.3,0.6-0.6v-4.9c0-0.3-0.3-0.6-0.6-0.6H8.4z M20.4,933.9c-0.3,0-0.6,0.3-0.6,0.6v4.9
	c0,0.3,0.3,0.6,0.6,0.6H29c0.3,0,0.6-0.3,0.6-0.6v-4.9c0-0.3-0.3-0.6-0.6-0.6H20.4z M33,935.1h7v3.8h-7V935.1z"/>
<g transform="translate(0,-952.36218)">
	<path class="st0" d="M26.6,1955.4c-0.2,0-0.5,0.1-0.6,0.3l-20.8,20.8c-0.8,0.8-1.2,1.7-1.2,2.8c0,1,0.5,2,1.2,2.7l12.9,12.9
		c0.7,0.7,1.7,1.2,2.7,1.2s2-0.5,2.7-1.2l20.8-20.8c0.2-0.2,0.3-0.4,0.3-0.6v-13.9c0-2.2-1.8-4.2-4.2-4.2L26.6,1955.4L26.6,1955.4z
		 M42.8,1959.5v13.5l-20.5,20.5c-0.4,0.4-0.9,0.7-1.4,0.7s-1-0.2-1.4-0.7l-12.9-12.9c-0.5-0.5-0.6-0.9-0.6-1.4s0.2-1,0.6-1.5
		l20.5-20.5h13.5C41.8,1957.2,42.8,1958.3,42.8,1959.5z M33.3,1963c0,1.9,1.6,3.5,3.5,3.5s3.5-1.6,3.5-3.5s-1.6-3.5-3.5-3.5
		C34.9,1959.5,33.3,1961.1,33.3,1963z M38.4,1963c0,0.9-0.7,1.6-1.6,1.6c-0.9,0-1.6-0.7-1.6-1.6s0.7-1.6,1.6-1.6
		S38.4,1962.1,38.4,1963z"/>
</g>
<path class="st0" d="M18.2,1029.2c0.7-0.5,1.3-1.1,1.8-1.7s0.7-1.3,0.7-2c0-0.2,0-0.5-0.1-0.7s-0.1-0.4-0.3-0.7h-2.2v-1h1.5
	c0,0-0.1-0.2-0.3-0.6c-0.2-0.4-0.4-0.8-0.4-1c-0.1-0.2-0.1-0.4-0.2-0.7c0-0.3-0.1-0.5-0.1-0.8c0-1,0.4-1.9,1.2-2.7
	c0.8-0.8,2-1.2,3.6-1.2c1.5,0,2.6,0.4,3.3,1.2c0.7,0.8,1.1,1.9,1.2,3.4h-1.8c0-1-0.2-1.7-0.7-2.3c-0.5-0.5-1.2-0.8-2.1-0.8
	s-1.6,0.2-2.1,0.7s-0.7,1.1-0.7,1.8c0,0.3,0.1,0.7,0.2,1c0.1,0.4,0.5,1,0.9,1.9h3.2v1H22c0.1,0.3,0.1,0.5,0.1,0.7s0,0.3,0,0.5
	c0,0.7-0.2,1.3-0.6,1.9s-1,1.3-1.8,1.9c0.5-0.2,0.9-0.4,1.3-0.5s0.9-0.2,1.3-0.2c0.5,0,1.1,0.1,1.9,0.3c0.8,0.2,1.3,0.3,1.5,0.3
	c0.3,0,0.6-0.1,0.8-0.2c0.2-0.1,0.4-0.2,0.7-0.5l0.8,1.3c-0.4,0.3-0.7,0.5-1,0.7c-0.5,0.2-1,0.3-1.5,0.3c-0.4,0-1.1-0.2-2-0.5
	s-1.7-0.5-2.2-0.5s-1,0.1-1.4,0.3c-0.3,0.1-0.6,0.3-1,0.5L18.2,1029.2z"/>
<path d="M13,1212.2v-59.3l29.9,29.7L13,1212.2z"/>
<path class="st4" d="M24.3,1314.9c-0.1,0-0.3,0-0.4,0c-2.1,0.2-4.1,2-3.9,4.7c0,0.2,0,0.4,0.1,0.7c-0.2,0-0.4,0-0.5,0
	c-0.6,0-1,0.6-1,1.1s0.6,1,1.1,1h0.6c0,0.4,0.1,0.8,0.1,1.1c0,0.9-0.2,1.6-0.9,2.6c-0.2,0.3-0.2,0.8-0.1,1.1s0.6,0.6,1,0.6h7.2
	c0.6,0,1.1-0.5,1.1-1.1s-0.5-1.1-1.1-1.1h-5.5c0.3-0.7,0.4-1.4,0.4-2.1c0-0.4,0-0.7-0.1-1.1H25c0.6,0,1.1-0.5,1.1-1.1
	s-0.5-1.1-1.1-1.1h-2.8c0-0.3,0-0.5-0.1-0.8l0,0c-0.1-1.6,0.9-2.3,2-2.4c0.6-0.1,1.1,0.1,1.5,0.4s0.7,0.7,0.8,1.5
	c0.1,0.6,0.6,1,1.2,1c0.6-0.1,1-0.6,1-1.2c-0.1-1.3-0.8-2.4-1.7-3C26.2,1315.2,25.2,1314.9,24.3,1314.9z"/>
<path class="st4" d="M20.7,1342.5c0.6,0,1.2-0.1,1.8-0.3l-6.1,15.2c-0.2,0.5-0.8,0.5-1.1,0.1l-2.9-5.1c-0.1-0.2-0.3-0.2-0.5-0.2
	l-5.4,1.7c-0.5,0.2-0.9-0.3-0.7-0.8l5.8-14.4c0.8,0.4,1.6,0.6,2.5,0.6c0.4,0,0.7-0.1,1.1-0.1h0.1l0.1,0.1
	C16.4,1341.3,18.5,1342.5,20.7,1342.5z M37,1338.8c-0.8,0.4-1.6,0.6-2.6,0.6c-0.4,0-0.7-0.1-1.1-0.1h-0.1l-0.1,0.1
	c-1.1,1.9-3.1,3.1-5.3,3.1c-0.6,0-1.2-0.1-1.8-0.3l6.1,15.3c0.2,0.5,0.8,0.5,1.1,0.1l2.9-5.1c0.1-0.2,0.3-0.2,0.5-0.2l5.4,1.7
	c0.5,0.2,0.9-0.3,0.7-0.8L37,1338.8z"/>
<path class="st4" d="M41.9,1320c1.1,1,1.1,2.7,0,3.6l-0.7,0.6c-0.8,0.7-1.1,1.8-0.6,2.8l0.4,0.9c0.6,1.4-0.2,2.9-1.6,3.3l-0.9,0.2
	c-1,0.3-1.7,1.2-1.8,2.2l-0.1,0.9c-0.1,1.5-1.4,2.5-2.9,2.3l-0.9-0.2c-1-0.2-2.1,0.3-2.6,1.2l-0.5,0.8c-0.7,1.3-2.4,1.6-3.6,0.8
	l-0.8-0.6c-0.8-0.6-2-0.6-2.8,0l-0.8,0.5c-1.2,0.8-2.9,0.5-3.5-0.8l-0.5-0.8c-0.5-0.9-1.5-1.4-2.5-1.2l-0.9,0.2
	c-1.5,0.2-2.8-0.8-2.8-2.3l-0.1-0.9c-0.1-1.1-0.8-1.9-1.8-2.2l-0.9-0.2c-1.4-0.4-2.1-1.9-1.6-3.3l0.4-0.9c0.4-0.9,0.2-2.1-0.6-2.8
	l-0.7-0.6c-1.1-1-1.1-2.7,0-3.6l0.7-0.6c0.8-0.7,1.1-1.8,0.6-2.8l-0.4-0.9c-0.6-1.4,0.2-2.9,1.6-3.3l0.9-0.2c1-0.3,1.7-1.2,1.8-2.2
	l0.1-0.9c0.1-1.5,1.4-2.5,2.9-2.3l0.9,0.2c1,0.2,2.1-0.3,2.6-1.2l0.5-0.8c0.7-1.3,2.4-1.6,3.6-0.8l0.8,0.6c0.8,0.6,2,0.6,2.8,0
	l0.8-0.5c1.2-0.8,2.9-0.5,3.5,0.8l0.5,0.8c0.5,0.9,1.5,1.4,2.5,1.2l0.9-0.2c1.5-0.2,2.8,0.8,2.8,2.3l0.1,0.9
	c0.1,1.1,0.8,1.9,1.8,2.2l0.9,0.2c1.4,0.4,2.1,1.9,1.6,3.3l-0.4,0.9c-0.4,0.9-0.2,2.1,0.6,2.8L41.9,1320z M35.9,1321.8
	c0-6.6-5.3-11.9-11.9-11.9s-11.9,5.3-11.9,11.9s5.3,11.9,11.9,11.9S35.9,1328.4,35.9,1321.8z"/>
<path d="M24.8,1464.3c-0.1,0-0.3,0-0.4,0c-2.1,0.2-4.1,2-3.9,4.7c0,0.2,0,0.4,0.1,0.7c-0.2,0-0.4,0-0.5,0c-0.6,0-1,0.6-1,1.1
	s0.6,1,1.1,1h0.6c0,0.4,0.1,0.8,0.1,1.1c0,0.9-0.2,1.6-0.9,2.6c-0.2,0.3-0.2,0.8-0.1,1.1s0.6,0.6,1,0.6h7.2c0.6,0,1.1-0.5,1.1-1.1
	s-0.5-1.1-1.1-1.1h-5.5c0.3-0.7,0.4-1.4,0.4-2.1c0-0.4,0-0.7-0.1-1.1h2.6c0.6,0,1.1-0.5,1.1-1.1s-0.5-1.1-1.1-1.1h-2.8
	c0-0.3,0-0.5-0.1-0.8l0,0c-0.1-1.6,0.9-2.3,2-2.4c0.6-0.1,1.1,0.1,1.5,0.4s0.7,0.7,0.8,1.5c0.1,0.6,0.6,1,1.2,1c0.6-0.1,1-0.6,1-1.2
	c-0.1-1.3-0.8-2.4-1.7-3C26.7,1464.6,25.7,1464.3,24.8,1464.3z"/>
<path d="M21.2,1491.9c0.6,0,1.2-0.1,1.8-0.3l-6.1,15.2c-0.2,0.5-0.8,0.5-1.1,0.1l-2.9-5.1c-0.1-0.2-0.3-0.2-0.5-0.2l-5.4,1.7
	c-0.5,0.2-0.9-0.3-0.7-0.8l5.8-14.4c0.8,0.4,1.6,0.6,2.5,0.6c0.4,0,0.7-0.1,1.1-0.1h0.1l0.1,0.1C16.9,1490.7,19,1491.9,21.2,1491.9z
	 M37.5,1488.2c-0.8,0.4-1.6,0.6-2.6,0.6c-0.4,0-0.7-0.1-1.1-0.1h-0.1l-0.1,0.1c-1.1,1.9-3.1,3.1-5.3,3.1c-0.6,0-1.2-0.1-1.8-0.3
	l6.1,15.3c0.2,0.5,0.8,0.5,1.1,0.1l2.9-5.1c0.1-0.2,0.3-0.2,0.5-0.2l5.4,1.7c0.5,0.2,0.9-0.3,0.7-0.8L37.5,1488.2z"/>
<path d="M42.4,1469.4c1.1,1,1.1,2.7,0,3.6l-0.7,0.6c-0.8,0.7-1.1,1.8-0.6,2.8l0.4,0.9c0.6,1.4-0.2,2.9-1.6,3.3l-0.9,0.2
	c-1,0.3-1.7,1.2-1.8,2.2l-0.1,0.9c-0.1,1.5-1.4,2.5-2.9,2.3l-0.9-0.2c-1-0.2-2.1,0.3-2.6,1.2l-0.5,0.8c-0.7,1.3-2.4,1.6-3.6,0.8
	l-0.8-0.6c-0.8-0.6-2-0.6-2.8,0l-0.8,0.5c-1.2,0.8-2.9,0.5-3.5-0.8l-0.5-0.8c-0.5-0.9-1.5-1.4-2.5-1.2l-0.9,0.2
	c-1.5,0.2-2.8-0.8-2.8-2.3l-0.1-0.9c-0.1-1.1-0.8-1.9-1.8-2.2l-0.9-0.2c-1.4-0.4-2.1-1.9-1.6-3.3l0.4-0.9c0.4-0.9,0.2-2.1-0.6-2.8
	l-0.7-0.6c-1.1-1-1.1-2.7,0-3.6l0.7-0.6c0.8-0.7,1.1-1.8,0.6-2.8l-0.4-0.9c-0.6-1.4,0.2-2.9,1.6-3.3l0.9-0.2c1-0.3,1.7-1.2,1.8-2.2
	l0.1-0.9c0.1-1.5,1.4-2.5,2.9-2.3l0.9,0.2c1,0.2,2.1-0.3,2.6-1.2l0.5-0.8c0.7-1.3,2.4-1.6,3.6-0.8l0.8,0.6c0.8,0.6,2,0.6,2.8,0
	l0.8-0.5c1.2-0.8,2.9-0.5,3.5,0.8l0.5,0.8c0.5,0.9,1.5,1.4,2.5,1.2l0.9-0.2c1.5-0.2,2.8,0.8,2.8,2.3l0.1,0.9
	c0.1,1.1,0.8,1.9,1.8,2.2l0.9,0.2c1.4,0.4,2.1,1.9,1.6,3.3l-0.4,0.9c-0.4,0.9-0.2,2.1,0.6,2.8L42.4,1469.4z M36.4,1471.2
	c0-6.6-5.3-11.9-11.9-11.9s-11.9,5.3-11.9,11.9s5.3,11.9,11.9,11.9S36.4,1477.8,36.4,1471.2z"/>
<path id="Search-Icon_2_" class="st4" d="M47.8,1642.9l-11.1-11.1c5.9-8.4,4-19.9-4.4-25.9c-8.4-5.9-19.9-4-25.9,4.4
	c-5.9,8.4-4,19.9,4.4,25.9c6.4,4.6,15.1,4.6,21.5,0l11.1,11.1c0.9,0.9,2.4,0.9,3.3,0l0,0l1.1-1.1
	C48.7,1645.3,48.7,1643.8,47.8,1642.9L47.8,1642.9z M21.5,1633.4c-6.8,0-12.4-5.5-12.4-12.4c0-6.8,5.5-12.4,12.4-12.4
	s12.4,5.5,12.4,12.4l0,0C33.9,1627.8,28.4,1633.4,21.5,1633.4L21.5,1633.4z"/>
<path id="Search-Icon" d="M46.5,1771.6l-11.1-11.1c5.9-8.4,4-19.9-4.4-25.9c-8.4-5.9-19.9-4-25.9,4.4c-5.9,8.4-4,19.9,4.4,25.9
	c6.4,4.6,15.1,4.6,21.5,0l11.1,11.1c0.9,0.9,2.4,0.9,3.3,0l0,0l1.1-1.1C47.4,1774,47.4,1772.5,46.5,1771.6L46.5,1771.6z
	 M20.2,1762.1c-6.8,0-12.4-5.5-12.4-12.4c0-6.8,5.5-12.4,12.4-12.4s12.4,5.5,12.4,12.4l0,0C32.6,1756.5,27.1,1762.1,20.2,1762.1
	L20.2,1762.1z"/>
<g>
	<path class="st4" d="M8.1,1877.7l1.1,2.7c0,0-2.7,6.1-2.4,6.2l3.5,3.4c0.3,0.3,6.2-2.5,6.2-2.5l2.8,1.1c0,0,2.4,6.1,2.8,6.1H27
		c0.4,0,2.6-6.2,2.6-6.2l2.8-1.1c0,0,6.2,2.6,6.3,2.4l3.5-3.4c0.3-0.3-2.6-6.2-2.6-6.2l1.1-2.7c0,0,6.2-2.4,6.2-2.7v-4.8
		c0-0.4-6.2-2.5-6.2-2.5l-1.1-2.7c0,0,2.7-6.1,2.4-6.2l-3.5-3.4c-0.3-0.3-6.2,2.5-6.2,2.5l-2.8-1.1c0,0-2.4-6.1-2.8-6.1h-4.9
		c-0.4,0-2.6,6.2-2.6,6.2l-2.8,1.1c0,0-6.2-2.6-6.4-2.4l-3.5,3.4c-0.3,0.3,2.5,6.2,2.5,6.2l-1.1,2.7c0,0-6.2,2.4-6.2,2.7v4.8
		C1.9,1875.6,8.1,1877.7,8.1,1877.7z M24.6,1864.3c4.7,0,8.6,3.8,8.6,8.4s-3.9,8.4-8.6,8.4s-8.6-3.8-8.6-8.4
		C16,1868,19.9,1864.3,24.6,1864.3z"/>
</g>
<g>
	<path class="st5" d="M7.7,1976.7l1.1,2.7c0,0-2.7,6.1-2.4,6.2l3.5,3.4c0.3,0.3,6.2-2.5,6.2-2.5l2.8,1.1c0,0,2.4,6.1,2.8,6.1h4.9
		c0.4,0,2.6-6.2,2.6-6.2l2.8-1.1c0,0,6.2,2.6,6.3,2.4l3.5-3.4c0.3-0.3-2.6-6.2-2.6-6.2l1.1-2.7c0,0,6.2-2.4,6.2-2.7v-4.8
		c0-0.4-6.2-2.5-6.2-2.5l-1.1-2.7c0,0,2.7-6.1,2.4-6.2l-3.5-3.4c-0.3-0.3-6.2,2.5-6.2,2.5l-2.8-1.1c0,0-2.4-6.1-2.8-6.1h-4.9
		c-0.4,0-2.6,6.2-2.6,6.2l-2.8,1.1c0,0-6.2-2.6-6.4-2.4l-3.5,3.4c-0.3,0.3,2.5,6.2,2.5,6.2l-1.1,2.7c0,0-6.2,2.4-6.2,2.7v4.8
		C1.4,1974.6,7.7,1976.7,7.7,1976.7z M24.2,1963.3c4.7,0,8.6,3.8,8.6,8.4s-3.9,8.4-8.6,8.4s-8.6-3.8-8.6-8.4
		C15.6,1967,19.5,1963.3,24.2,1963.3z"/>
</g>
<path d="M8.4,2089.4l-0.1-1.2c-0.1-1.4-1-2.5-2.3-2.9l-1.2-0.3c-1.8-0.5-2.7-2.5-2.1-4.3l0.5-1.1c0.5-1.2,0.2-2.7-0.8-3.6l-0.9-0.8
	c-1.4-1.3-1.4-3.5,0-4.7l0.9-0.8c1-0.9,1.4-2.4,0.8-3.6l-0.5-1.1c-0.8-1.7,0.2-3.7,2.1-4.3l1.2-0.3c1.3-0.4,2.2-1.5,2.3-2.9l0.1-1.2
	c0.1-1.7,1.5-3,3.1-3c0.2,0,0.4,0,0.5,0.1l1.2,0.2c0.2,0,0.4,0.1,0.5,0.1c1.1,0,2.2-0.6,2.7-1.6l0.6-1.1c0.6-1.1,1.7-1.6,2.7-1.6
	c0.6,0,1.3,0.2,1.8,0.6l1,0.8c0.5,0.4,1.2,0.6,1.8,0.6c0.6,0,1.3-0.2,1.8-0.6l1-0.7c0.5-0.4,1.2-0.6,1.8-0.6c1.1,0,2.2,0.6,2.7,1.7
	l0.6,1.1c0.5,1.1,1.6,1.7,2.7,1.7c0.2,0,0.4,0,0.5-0.1l1.2-0.2c0.2,0,0.4-0.1,0.5-0.1c1.7,0,3,1.3,3.1,3l0.1,1.2
	c0.1,1.4,1,2.5,2.3,2.9l1.2,0.3c1.8,0.5,2.7,2.5,2.1,4.3l-0.2,1c-0.5,1.2-0.2,2.7,0.8,3.6l0.9,0.8c1.4,1.3,1.4,3.5,0,4.7l-0.9,0.8
	c-1,0.9-1.4,2.4-0.8,3.6l0.5,1.1c0.8,1.7-0.2,3.7-2.1,4.3l-1.2,0.3c-1.3,0.4-2.2,1.5-2.3,2.9l-0.1,1.2c-0.1,1.7-1.5,3-3.1,3
	c-0.2,0-0.4,0-0.5-0.1l-1.2-0.2c-0.2,0-0.4-0.1-0.5-0.1c-1.1,0-2.2,0.6-2.7,1.6l-0.6,1.1c-0.6,1.1-1.7,1.6-2.7,1.6
	c-0.6,0-1.3-0.2-1.8-0.6l-1-0.8c-0.5-0.4-1.2-0.6-1.8-0.6c-0.6,0-1.3,0.2-1.8,0.6l-1,0.7c-0.5,0.4-1.2,0.6-1.8,0.6
	c-1.1,0-2.2-0.6-2.7-1.7l-0.6-1.1c-0.5-1.1-1.6-1.7-2.7-1.7c-0.2,0-0.4,0-0.5,0.1l-1.2,0.2c-0.2,0-0.4,0.1-0.5,0.1
	C9.9,2092.4,8.5,2091.1,8.4,2089.4z M13,2081.2c0,1.1,0.9,2.1,2.1,2.1h3c0.4,0,0.8-0.2,1.1-0.3c0.1-0.1,0.5-0.5,0.5-1.6v-5
	c0,0,0,6.2,3.5,6.6c1.2,0.1,2.8,0.2,4.3,0.2c1.4,0.1,2.9,0.2,4.1-0.2c4-0.8,3-3.6,3-3.6c2.2-1.6,0.9-3.6,0.9-3.6c1.9-2,0-3.7,0-3.7
	s1.1-1.6-0.3-2.8c-1.7-1.5-6.2-0.5-6.2-0.5l0,0c-0.3,0.1-0.7,0.2-1,0.2c0,0-1.6,0.8,0-4s-1.1-5.5-2.1-5.5c-1.1,0-0.8,2.4-0.8,2.4
	s-2.4,6.5-4.6,8.2c-0.6,0.6-0.9,1.4-1.1,1.8c-0.4-0.3-0.8-0.5-1.3-0.5h-3c-1.1,0-2.1,0.9-2.1,2.1V2081.2L13,2081.2z"/>
<path class="st4" d="M8.4,2187l-0.1-1.2c-0.1-1.4-1-2.5-2.3-2.9l-1.2-0.3c-1.8-0.5-2.7-2.5-2.1-4.3l0.5-1.1c0.5-1.2,0.2-2.7-0.8-3.6
	l-0.9-0.8c-1.4-1.3-1.4-3.5,0-4.7l0.9-0.8c1-0.9,1.4-2.4,0.8-3.6l-0.5-1.1c-0.8-1.7,0.2-3.7,2.1-4.3L6,2158c1.3-0.4,2.2-1.5,2.3-2.9
	l0.1-1.2c0.1-1.7,1.5-3,3.1-3c0.2,0,0.4,0,0.5,0.1l1.2,0.2c0.2,0,0.4,0.1,0.5,0.1c1.1,0,2.2-0.6,2.7-1.6l0.6-1.1
	c0.6-1.1,1.7-1.6,2.7-1.6c0.6,0,1.3,0.2,1.8,0.6l1,0.8c0.5,0.4,1.2,0.6,1.8,0.6c0.6,0,1.3-0.2,1.8-0.6l1-0.7
	c0.5-0.4,1.2-0.6,1.8-0.6c1.1,0,2.2,0.6,2.7,1.7l0.6,1.1c0.5,1.1,1.6,1.7,2.7,1.7c0.2,0,0.4,0,0.5-0.1l1.2-0.2
	c0.2,0,0.4-0.1,0.5-0.1c1.7,0,3,1.3,3.1,3l0.1,1.2c0.1,1.4,1,2.5,2.3,2.9l1.2,0.3c1.8,0.5,2.7,2.5,2.1,4.3l-0.2,1
	c-0.5,1.2-0.2,2.7,0.8,3.6l0.9,0.8c1.4,1.3,1.4,3.5,0,4.7l-0.9,0.8c-1,0.9-1.4,2.4-0.8,3.6l0.5,1.1c0.8,1.7-0.2,3.7-2.1,4.3
	l-1.2,0.3c-1.3,0.4-2.2,1.5-2.3,2.9l-0.1,1.2c-0.1,1.7-1.5,3-3.1,3c-0.2,0-0.4,0-0.5-0.1l-1.2-0.2c-0.2,0-0.4-0.1-0.5-0.1
	c-1.1,0-2.2,0.6-2.7,1.6l-0.6,1.1c-0.6,1.1-1.7,1.6-2.7,1.6c-0.6,0-1.3-0.2-1.8-0.6l-1-0.8c-0.5-0.4-1.2-0.6-1.8-0.6
	c-0.6,0-1.3,0.2-1.8,0.6l-1,0.7c-0.5,0.4-1.2,0.6-1.8,0.6c-1.1,0-2.2-0.6-2.7-1.7l-0.6-1.1c-0.5-1.1-1.6-1.7-2.7-1.7
	c-0.2,0-0.4,0-0.5,0.1l-1.2,0.2c-0.2,0-0.4,0.1-0.5,0.1C9.8,2190,8.5,2188.7,8.4,2187z M13,2178.8c0,1.1,0.9,2.1,2.1,2.1h3
	c0.4,0,0.8-0.2,1.1-0.3c0.1-0.1,0.5-0.5,0.5-1.6v-5c0,0,0,6.2,3.5,6.6c1.2,0.1,2.8,0.2,4.3,0.2c1.4,0.1,2.9,0.2,4.1-0.2
	c4-0.8,3-3.6,3-3.6c2.2-1.6,0.9-3.6,0.9-3.6c1.9-2,0-3.7,0-3.7s1.1-1.6-0.3-2.8c-1.7-1.5-6.2-0.5-6.2-0.5l0,0
	c-0.3,0.1-0.7,0.2-1,0.2c0,0-1.6,0.8,0-4s-1.1-5.5-2.1-5.5c-1.1,0-0.8,2.4-0.8,2.4s-2.4,6.5-4.6,8.2c-0.6,0.6-0.9,1.4-1.1,1.8
	c-0.4-0.3-0.8-0.5-1.3-0.5h-3c-1.1,0-2.1,0.9-2.1,2.1V2178.8L13,2178.8z"/>
<g>
	<g>
		<path d="M46,2267.7c0-12.1-9.8-22-22-22s-22,9.8-22,22c0,12.1,9.8,22,22,22S46,2279.8,46,2267.7L46,2267.7z M4.8,2267.7
			c0-10.6,8.6-19.2,19.2-19.2s19.2,8.6,19.2,19.2s-8.6,19.2-19.2,19.2S4.8,2278.3,4.8,2267.7L4.8,2267.7z"/>
		<path d="M14.4,2277.2l6.1-13.2l13.1-5.9l-5.8,13.1L14.4,2277.2z M23.9,2269.5c1.1,0,1.9-0.9,1.9-1.9s-0.9-1.9-1.9-1.9
			c-1.1,0-1.9,0.9-1.9,1.9S22.9,2269.5,23.9,2269.5z"/>
	</g>
</g>
<g>
	<g>
		<path class="st4" d="M45.6,2368.6c0-12.1-9.8-22-22-22s-22,9.8-22,22c0,12.1,9.8,22,22,22S45.6,2380.7,45.6,2368.6L45.6,2368.6z
			 M4.5,2368.6c0-10.6,8.6-19.2,19.2-19.2s19.2,8.6,19.2,19.2s-8.6,19.2-19.2,19.2S4.5,2379.2,4.5,2368.6L4.5,2368.6z"/>
		<path class="st4" d="M14.1,2378.2l6.1-13.2l13.1-5.9l-5.8,13.1L14.1,2378.2z M23.6,2370.5c1.1,0,1.9-0.9,1.9-1.9s-0.9-1.9-1.9-1.9
			c-1.1,0-1.9,0.9-1.9,1.9S22.6,2370.5,23.6,2370.5z"/>
	</g>
</g>
<path d="M8.6,2539.2v-31.9c0-0.8,0.4-1.5,1-1.9c0.7-0.5,1.5-0.4,2.1,0.1l22.4,15.9c0.6,0.4,0.9,1.1,0.9,1.8c0,0.8-0.4,1.5-0.9,1.9
	L11.7,2541c-0.3,0.3-0.7,0.4-1.1,0.5c-0.4,0-0.7-0.1-1-0.3C9,2540.7,8.6,2540,8.6,2539.2z"/>
<g>
	<path class="st4" d="M25.4,2606.3c-0.3,0-0.5,0.1-0.7,0.3c-1.3,1.1-19.5,17.6-21.5,19.6c-0.5,0.4-0.5,1.3-0.1,1.7
		c0.4,0.5,1.2,0.5,1.7,0.1l20.7-18.8l21.4,18.8c0.5,0.4,1.3,0.4,1.7-0.1s0.4-1.3-0.1-1.7l-22.3-19.6
		C26,2606.4,25.7,2606.3,25.4,2606.3z M9.4,2625.4l-2.4,2.2v25.1c0,0.6,0.6,1.2,1.2,1.2h35.3c0.6,0,1.2-0.6,1.2-1.2v-25.1l-2.4-2.1
		v26h-9.7v-12.7c0-1-0.4-2.3-1.4-3.5c-1.1-1.2-2.8-2.2-5.2-2.2s-4.2,1-5.2,2.2c-1.1,1.2-1.4,2.5-1.4,3.5v12.7h-10V2625.4z
		 M25.8,2635.6c1.8,0,2.8,0.6,3.4,1.3s0.8,1.6,0.8,1.9v12.7h-8.5v-12.7c0-0.3,0.2-1.2,0.8-1.9C23,2636.3,24,2635.6,25.8,2635.6
		L25.8,2635.6z"/>
</g>
<g>
	<path d="M25.4,2705.8c-0.3,0-0.5,0.1-0.7,0.3c-1.3,1.1-19.5,17.6-21.5,19.6c-0.5,0.4-0.5,1.3-0.1,1.7c0.4,0.5,1.2,0.5,1.7,0.1
		l20.7-18.8l21.4,18.8c0.5,0.4,1.3,0.4,1.7-0.1s0.4-1.3-0.1-1.7l-22.3-19.6C26,2705.9,25.7,2705.8,25.4,2705.8z M9.4,2724.9
		l-2.4,2.2v25.1c0,0.6,0.6,1.2,1.2,1.2h35.3c0.6,0,1.2-0.6,1.2-1.2v-25.1l-2.4-2.1v26h-9.7v-12.7c0-1-0.4-2.3-1.4-3.5
		c-1.1-1.2-2.8-2.2-5.2-2.2s-4.2,1-5.2,2.2c-1.1,1.2-1.4,2.5-1.4,3.5v12.7h-10V2724.9z M25.8,2735.1c1.8,0,2.8,0.6,3.4,1.3
		s0.8,1.6,0.8,1.9v12.7h-8.5v-12.7c0-0.3,0.2-1.2,0.8-1.9C23,2735.8,24,2735.1,25.8,2735.1L25.8,2735.1z"/>
</g>
<g>
	<path class="st6" d="M12.6,2900.4c-1.5,1.4-1.5,3.7,0,5.1s3.8,1.4,5.3,0l21.3-20.4c1.5-1.4,1.5-3.7,0-5.1l-21.3-20.4
		c-1.5-1.4-3.8-1.4-5.3,0s-1.5,3.7,0,5.1l18.7,17.9L12.6,2900.4z"/>
</g>
</svg>
