<svg id="Layer_1" data-name="Layer 1" xmlns="http://www.w3.org/2000/svg" viewBox="0 0 50.27 5000"><defs><style>.cls-1{fill:none;}.cls-2{fill:#3badff;}.cls-3{fill:#fff;}.cls-4{fill:#ff6d00;}.cls-5{fill:#225baf;}.cls-6{fill:#0f4da8;}.cls-7{fill:#fff669;}.cls-8{fill:#53aae8;}</style></defs><title>new</title><rect class="cls-1" x="0.07" width="50" height="5000"/><path class="cls-2" d="M25.07,821c-5.4,0-25-16.6-25-16.6v.3c0-2.6,2.5-4.7,5.6-4.7h38.9c3.1,0,5.6,2.1,5.6,4.7h0C50.07,804.7,30.77,821,25.07,821Zm0,4.1c5.9,0,25-15.7,25-15.7v24.5c0,2.6-2.5,4.7-5.6,4.7H5.67c-3.1,0-5.6-2.1-5.6-4.7V809.4s19.6,15.7,25,15.7Z"/><path class="cls-2" d="M49.37,732.2a22.26,22.26,0,0,1-7-3.2,18.21,18.21,0,0,1-5.2.8A14.52,14.52,0,0,1,27,726.1c7.1-2.1,12-6.8,12.5-12.5,5.6.7,9.9,4.1,9.9,8.1a6.83,6.83,0,0,1-3.3,5.6c.1.9.5,2.2,3.4,4.5C50,731.8,50.57,732.4,49.37,732.2Zm-30.5-7a28.21,28.21,0,0,1-6.5-.8,38.11,38.11,0,0,1-10.7,4.3c-2.2.5-1.5-.2-1-.6,3.4-2.7,5-4.6,5.8-6.1-3.9-2.3-6.3-5.6-6.3-9.4,0-7,8.4-12.6,18.8-12.6s18.7,5.6,18.7,12.6-8.4,12.6-18.8,12.6Z"/><path class="cls-3" d="M50.07,1.8h0c.3,1.4-1.8,3.9-1.8,3.9l-11.2,7.7.5,25.9-3,1.8-5.1-18.6L27.27,20l-13.2,9.1-1.4,10.3-.6.6-3.6-9H7.27l.1-.3.3-.9L.07,23.4l.8-.4,10.4,2.1L24.47,16l-1.6-2.9L6.67,2.2,9.37,0l24.7,9.2,11.2-7.7S49.77,0,50.07,1.8Z"/><path class="cls-3" d="M38.57,103.5a1.88,1.88,0,0,1,.8.2l-.5.4a3.33,3.33,0,0,0-1.7.2,2.66,2.66,0,0,1,1.2.3l-.3.3a3.79,3.79,0,0,0-1.5,0,3.58,3.58,0,0,1,1.1.4l-.4.5a1.48,1.48,0,0,0-1.3,0,10.37,10.37,0,0,1,1,.4c-.3.3-.5.7-.8,1,2.9-1.1,8.1-1.9,13.8,3,0,0-1.5.2-3.7.3a1.6,1.6,0,0,0-.8-1.4,7.72,7.72,0,0,1,.2,1.5h-1a1.71,1.71,0,0,0-.7-1.3,5.7,5.7,0,0,1,.1,1.3h-1a2.43,2.43,0,0,0-.7-1.3,5.85,5.85,0,0,1,.2,1.3h-1a1.21,1.21,0,0,0-.7-1.2,5.7,5.7,0,0,1,.1,1.3c-1.2,0-2.4-.1-3.5-.2,2.1.6,8.4,2.2,10.2,11.2,0,0-1-.5-2.4-1.3a1.53,1.53,0,0,0,0-1.6,3.49,3.49,0,0,1-.5,1.3l-.7-.4a2.25,2.25,0,0,0,0-1.8,5.78,5.78,0,0,1-.5,1.4l-1-.7a1.53,1.53,0,0,0,.3-1.6,9.13,9.13,0,0,1-.8,1.3l-.8-.6a1.75,1.75,0,0,0,.3-1.7,3.92,3.92,0,0,1-.8,1.4,20.57,20.57,0,0,1-3-2.9c.7,2,1.8,7.3,1.4,9.8a13.22,13.22,0,0,1-2.5-2.8c.2-.4.6-1,.6-1a1,1,0,0,0-.8.7,4.05,4.05,0,0,1-.5-.9l.9-.9a1.5,1.5,0,0,0-1.1.4l-.3-.6a1.59,1.59,0,0,1,1-.8,1.52,1.52,0,0,0-1.3.3,10.38,10.38,0,0,1-.4-1,3.51,3.51,0,0,1,1.4-.6,1.36,1.36,0,0,0-1.5.1c-.1-.3-.2-.6-.3-1a4.15,4.15,0,0,1,1.6-.3,1.38,1.38,0,0,0-1.7-.2,23.81,23.81,0,0,1-.5-2.6c-6.8,9.9-7.5,27.5-7.6,33a28.43,28.43,0,0,1,11.7,5.7H8.67s1.8-3.6,7.9-5.2c-.4-3.6-1.7-13.1-5.6-19.4a29.92,29.92,0,0,0-1,3.2,6.39,6.39,0,0,1-1-.4l.9.9-.2.8a4.35,4.35,0,0,1-.7-.4l.6.9-.2.6-.6-.6a1.8,1.8,0,0,0,.6.9c-.3,1.1-.5,1.9-.5,1.9a11.92,11.92,0,0,1-1.3-6.4l-1.1,1.6-.6-.1c.1.2.3.3.4.4l-.4.5c-.3-.1-.5-.2-.8-.3a.9.9,0,0,0,.6.6l-.4.6c-.3-.1-.7-.2-.7-.2a2.65,2.65,0,0,0,.5.6l-.3.5a2.51,2.51,0,0,1-.7-.4,1.79,1.79,0,0,0,.5.7l-.3.5c-.2-.1-.4-.3-.6-.4a1.61,1.61,0,0,0,.4.7l-1,1.6c-.5-5.6,1.8-8.7,3.7-10.4H4.67c-.1-.3-.3-.6-.4-.9a1.39,1.39,0,0,0,0,.9h-.5c-.1-.3-.2-.6-.3-1a1,1,0,0,0-.2.9l-.6-.1a2.2,2.2,0,0,1-.1-.8.66.66,0,0,0-.2.7l-.6-.1V124a.92.92,0,0,0-.4.6c-.8-.2-1.3-.3-1.3-.3,3.8-3,6.4-2.9,8.2-2.4a7.72,7.72,0,0,1,2.9-6.3s-.2,1-.4,2.4l-.6.6c.2-.1.3-.2.5-.3v.4a1.56,1.56,0,0,0-.6.8.86.86,0,0,1,.6-.3v.3l-.6.6a1.42,1.42,0,0,1,.6-.2v.5c-.2.1-.5.2-.6.4a1.27,1.27,0,0,1,.6-.1v.9c1-1.9,3.4-4.7,8.5-4.8a24.72,24.72,0,0,1-1.8,1.8c-.2-.2-.6-.4-.8-.3.2.2.3.4.5.6l-.5.5c-.2-.1-.5-.2-.7-.3a.92.92,0,0,1,.4.6l-.5.5c-.2-.1-.5-.2-.7-.3a1,1,0,0,1,.4.5l-.5.4a1.23,1.23,0,0,0-.8-.4,1.79,1.79,0,0,1,.5.7c-.6.5-1.3,1-1.9,1.5a8.76,8.76,0,0,1,10.1,1.1s-.7.2-1.8.4c-.1-.3-.3-.8-.6-.9a2.92,2.92,0,0,1,.2.9l-.5.1a2.41,2.41,0,0,0-.6-.8l.3.9-.8.1a1.39,1.39,0,0,0-.5-1,3.4,3.4,0,0,1,.1,1l-.7.1a1.05,1.05,0,0,0-.5-.9,3.4,3.4,0,0,1,.1,1,13.13,13.13,0,0,1-2.8-.1,21.09,21.09,0,0,1,5,4.4,10.07,10.07,0,0,1-2.5-.3,6.37,6.37,0,0,1-.2-.7,1.27,1.27,0,0,0-.1.6l-.7-.2v-.8a1.61,1.61,0,0,0-.4.7l-.4-.2v-.9a.91.91,0,0,0-.3.7l-.6-.3c0-.3.1-.6.1-.8a.67.67,0,0,0-.4.7l-.6-.4a3,3,0,0,1,.4-.8c-.3,0-.6.4-.7.6a10.63,10.63,0,0,1-1.1-.9c5.5,7,7.3,16.2,7.9,19.9a10.87,10.87,0,0,1,1.8-.1c.1-5.2,1.1-19.8,8.7-31.3-1,.6-1.9,1.2-2.9,1.9a8,8,0,0,1-.8-1.6,6.56,6.56,0,0,0,.1,2l-1,.7c-.1-.7-.3-1.9-.3-1.9a4.45,4.45,0,0,0-.3,2.3l-.8.6c-.1-.7-.2-1.8-.2-1.8a3.8,3.8,0,0,0-.2,2.1l-2.2,1.7a15.94,15.94,0,0,1,4.4-8.4l-2.7.7-.6-1.2a2.88,2.88,0,0,0,.1,1.3l-.8.2c-.3-.5-.7-1.4-.7-1.4a2.57,2.57,0,0,0,.1,1.5l-1,.3-.6-1.2a2.85,2.85,0,0,0,0,1.3l-.8.2a3.19,3.19,0,0,1-.3-1.4,2.62,2.62,0,0,0-.2,1.5l-.8.2a5,5,0,0,1-.2-1.2,3,3,0,0,0-.2,1.3l-2.5.8c4.5-6.7,10-8,13.7-7.9a22,22,0,0,1-2.3-2,10.09,10.09,0,0,1,.7-1.5,2,2,0,0,0-1.1,1.1l-.5-.6a6.11,6.11,0,0,1,.7-1.4,1.59,1.59,0,0,0-1.2.9l-.6-.7a3.92,3.92,0,0,1,.8-1,1.43,1.43,0,0,0-1.2.6l-.6-.7a3.65,3.65,0,0,1,1-.7,2.77,2.77,0,0,0-1.3.3c-.7-1-1.2-1.6-1.2-1.6,7,.4,9.7,3,11.3,5.4a10.9,10.9,0,0,1,9-4.3,27.18,27.18,0,0,0-2.6,2.3C39.37,103.3,39,103.3,38.57,103.5Z"/><path class="cls-3" d="M44.37,338.5v-3.9H5.87v3.9H.07V327h50v11.5ZM5.87,315.4h3.8l1.9,1.9h9.6l1.9-1.9h4l1.9,1.9h9.6l1.9-1.9h3.8l5.8,9.6H.07Zm34.6-1.9-1.9-5.8H29l-1.9,5.8h-3.9l-1.9-5.8h-9.6l-1.9,5.8H5.87L4,300l3.9,1.9h34.6l3.8-1.9-1.9,13.5Z"/><path class="cls-3" d="M50.07,414.5l-14.6,7.9H7.57l-7.5-7.9ZM8,409.2H33l4,4H4.07Zm4-3.9h13.1l2.6,2.6H9.27Zm2.6-5.3h2.6v4h-2.6Zm4,0h2.6v4h-2.6Z"/><path class="cls-3" d="M48.47,512.4c-.6-.5-.5-1.2-1-1.8a3,3,0,0,0-2-1h-.1c-.1,0-.1.2-.1.3h0a7.89,7.89,0,0,0,4.8,3.6c0,.6-.1,1.2-.1,2,0,.1,0,.1-.1.2a1.43,1.43,0,0,0-.6,1.2.22.22,0,0,1-.2.2l-3.5.3c0-.3.1-.5.1-.8a5.15,5.15,0,0,0-5.4-4.9,5,5,0,0,0-4.9,4.9,2.77,2.77,0,0,0,.1.9H16.17a2.77,2.77,0,0,0,.1-.9,5,5,0,0,0-5.1-4.9h0a4.89,4.89,0,0,0-5.1,4.9h0a2.77,2.77,0,0,0,.1.9h-.9l-1.4-.7c-.3,0-1.6-.1-1.6-.9,0-.1-.5,0-.5-.2-2.3-1.5-1.6-3.2-1.6-3.2a.1.1,0,0,1,.1-.1h1.8c.6,0,.6-1.3.5-1.6-.2-1-1.1-1.2-1.3-1s-.1.9.1,1.6c.1.3.2.6-.3.6H.67c-.3-1-1-3.5.4-5.5,1.4-1.8,5.6-5.3,6.9-5.6,2.7-.6,5.5-.8,11.3-.8a32.71,32.71,0,0,1,4.4.4,38.86,38.86,0,0,1,10.4,5.7c7,.7,13.6,2.1,15,4.1l.7,1.4a3.19,3.19,0,0,1,.3,1.4A7.74,7.74,0,0,1,48.47,512.4Zm-17.3-5.7c-.6-.8-5.9-4.5-7.7-4.9-2.5-.5-3.5-.8-11.8,0a5,5,0,0,0-3.4,2.4c-1,1.2-1.6,2.4,0,2.4,3.1,0,21.8,1.1,22.5,1.1s.8-.6.4-1Zm-20,5.7a4.13,4.13,0,0,1,4.4,3.8,4.19,4.19,0,0,1-3.8,4.4h-.6a4.13,4.13,0,0,1-4.4-3.8,4.19,4.19,0,0,1,3.8-4.4Zm0,6.5a2.46,2.46,0,0,0,2.3-2.6,2.45,2.45,0,0,0-4.9.1,2.63,2.63,0,0,0,2.6,2.5Zm0-4.5a2,2,0,0,1-.2,4,2.05,2.05,0,0,1-1.9-2,2.09,2.09,0,0,1,2.1-2Zm29.4-2a4.1,4.1,0,0,1-.4,8.2,4,4,0,0,1-3.9-4.1,4.22,4.22,0,0,1,4.3-4.1Zm0,6.5a2.4,2.4,0,1,0-2.5-2.4,2.39,2.39,0,0,0,2.5,2.4Zm0-4.5a2,2,0,0,1-.2,4,2.05,2.05,0,0,1-1.9-2,2,2,0,0,1,2.1-2Z"/><path class="cls-3" d="M25.07,600a1.75,1.75,0,0,0-1.5,1l-6.1,14.7L1.57,617a1.77,1.77,0,0,0-1.4,1.1,1.57,1.57,0,0,0,.5,1.7l12.1,10.4-3.7,15.6a1.52,1.52,0,0,0,.3,1.3,1.57,1.57,0,0,0,2.1.4l13.6-8.3,13.6,8.3a1.62,1.62,0,0,0,2.2-.5,1.72,1.72,0,0,0,.2-1.2l-3.7-15.5,12.1-10.4a1.5,1.5,0,0,0,.2-2.2,2.38,2.38,0,0,0-1.1-.6l-16-1.3-6-14.8A1.54,1.54,0,0,0,25.07,600Z"/><path class="cls-4" d="M50.07,51.8h0c.3,1.3-1.8,3.9-1.8,3.9l-11.2,7.7.5,25.9-3,1.8-5.1-18.6L27.27,70l-13.2,9.1-1.4,10.4-.6.5-3.6-9-1-.1h-.2l.1-.3.3-.9L.07,73.3l.8-.3,10.4,2.1L24.47,66l-1.6-2.9-16.1-11L9.37,50l24.7,9.2,11.2-7.7S49.77,50,50.07,51.8Z"/><path class="cls-4" d="M38.57,203.5a1.88,1.88,0,0,1,.8.2l-.5.4a4.88,4.88,0,0,0-1.7.1,2.66,2.66,0,0,1,1.2.3l-.3.4a3.79,3.79,0,0,0-1.5,0,3.58,3.58,0,0,1,1.1.4l-.4.5a1.48,1.48,0,0,0-1.3,0,10.38,10.38,0,0,1,1,.4c-.3.3-.5.7-.8,1,2.9-1.1,8.1-1.9,13.8,3,0,0-1.5.2-3.7.3a1.6,1.6,0,0,0-.8-1.4,7.72,7.72,0,0,1,.2,1.5h-1a1.71,1.71,0,0,0-.7-1.3,5.7,5.7,0,0,1,.1,1.3h-1a2.43,2.43,0,0,0-.7-1.3,5.9,5.9,0,0,1,.2,1.4h-1a1.21,1.21,0,0,0-.7-1.2,5.7,5.7,0,0,1,.1,1.3c-1.2,0-2.4-.1-3.5-.2,2.1.6,8.4,2.2,10.2,11.1,0,0-1-.5-2.4-1.4a1.53,1.53,0,0,0,0-1.6,3.49,3.49,0,0,1-.5,1.3l-.7-.4a2.25,2.25,0,0,0,0-1.8,5.78,5.78,0,0,1-.5,1.4l-1-.7a1.53,1.53,0,0,0,.3-1.6,9.13,9.13,0,0,1-.8,1.3l-.8-.6a1.75,1.75,0,0,0,.3-1.7,3.92,3.92,0,0,1-.8,1.4,20.57,20.57,0,0,1-3-2.9c.7,2,1.8,7.3,1.4,9.8a13.22,13.22,0,0,1-2.5-2.8c.2-.4.6-1,.6-1a1,1,0,0,0-.8.7,4.05,4.05,0,0,1-.5-.9l.9-.9a1.5,1.5,0,0,0-1.1.4l-.3-.6a2.19,2.19,0,0,1,1-.9,1.52,1.52,0,0,0-1.3.3,10.38,10.38,0,0,1-.4-1,3.51,3.51,0,0,1,1.4-.6,1.36,1.36,0,0,0-1.5.1c-.1-.3-.2-.6-.3-1a4.15,4.15,0,0,1,1.6-.3,1.38,1.38,0,0,0-1.7-.2,23.81,23.81,0,0,1-.5-2.6c-6.8,9.9-7.5,27.5-7.6,33a28.43,28.43,0,0,1,11.7,5.7H8.67s1.8-3.6,7.9-5.2c-.4-3.6-1.7-13.1-5.6-19.4a29.93,29.93,0,0,0-1,3.2,6.39,6.39,0,0,1-1-.4l.9.9-.2.8a4.35,4.35,0,0,1-.7-.4l.6.9-.2.6-.6-.6a1.8,1.8,0,0,0,.6.9c-.3,1.3-.5,2.1-.5,2.1a11.92,11.92,0,0,1-1.3-6.4l-1.1,1.6-.6-.1c.1.2.3.3.4.4l-.4.5c-.3-.1-.5-.2-.8-.3a.9.9,0,0,0,.6.6l-.4.6c-.3-.1-.7-.2-.7-.2a2.65,2.65,0,0,0,.5.6l-.3.5a2.51,2.51,0,0,1-.7-.4,1.79,1.79,0,0,0,.5.7l-.3.5c-.2-.1-.4-.3-.6-.4a1.61,1.61,0,0,0,.4.7l-1,1.6c-.5-5.6,1.8-8.7,3.7-10.4H4.67c-.1-.3-.3-.6-.4-.9a1.39,1.39,0,0,0,0,.9h-.5l-.3-.9a1,1,0,0,0-.2.9l-.6-.1a2.2,2.2,0,0,1-.1-.8.66.66,0,0,0-.2.7l-.6-.1v-.6a.92.92,0,0,0-.4.6c-.8-.2-1.3-.3-1.3-.3,3.8-3,6.4-2.9,8.2-2.4a7.72,7.72,0,0,1,2.9-6.3s-.2,1-.4,2.4l-.6.6c.2-.1.3-.2.5-.3v.4a1.56,1.56,0,0,0-.6.8,2.09,2.09,0,0,1,.6-.4v.3l-.6.6a1.42,1.42,0,0,1,.6-.2v.5c-.2.1-.5.2-.6.4a1.27,1.27,0,0,1,.6-.1v.9c1-1.9,3.4-4.7,8.5-4.8,0,0-.7.8-1.8,1.9-.2-.2-.6-.4-.8-.3.2.2.3.4.5.6l-.5.5c-.2-.1-.5-.2-.7-.3a.92.92,0,0,1,.4.6l-.5.5c-.2-.1-.5-.2-.7-.3a1,1,0,0,1,.4.5l-.5.4a1.23,1.23,0,0,0-.8-.4,2.65,2.65,0,0,1,.5.6c-.6.5-1.3,1-1.9,1.5a8.76,8.76,0,0,1,10.1,1.1s-.7.2-1.8.4c-.1-.3-.3-.8-.6-.9a2.92,2.92,0,0,1,.2.9l-.5.1a2.41,2.41,0,0,0-.6-.8l.3.9-.8.1a1.39,1.39,0,0,0-.5-1,3.4,3.4,0,0,1,.1,1l-.7.1a1.05,1.05,0,0,0-.5-.9,3.4,3.4,0,0,1,.1,1,13.13,13.13,0,0,1-2.8-.1,21.09,21.09,0,0,1,5,4.4,10.07,10.07,0,0,1-2.5-.3,6.37,6.37,0,0,1-.2-.7,1.27,1.27,0,0,0-.1.6l-.7-.2v-.8a1.61,1.61,0,0,0-.4.7l-.4-.2v-.9a.91.91,0,0,0-.3.7l-.6-.3c0-.3.1-.6.1-.8a.67.67,0,0,0-.4.7l-.6-.4a3,3,0,0,1,.4-.8c-.3,0-.6.4-.7.6a10.63,10.63,0,0,1-1.1-.9c5.5,7,7.3,16.2,7.9,19.9a10.87,10.87,0,0,1,1.8-.1c.1-5.2,1.1-19.8,8.7-31.3-1,.6-1.9,1.2-2.9,1.9a8,8,0,0,1-.8-1.6,6.56,6.56,0,0,0,.1,2l-1,.7c-.1-.7-.3-1.9-.3-1.9a4.45,4.45,0,0,0-.3,2.3l-.8.6c-.1-.7-.2-1.8-.2-1.8a3.8,3.8,0,0,0-.2,2.1l-2.2,1.7a15.94,15.94,0,0,1,4.4-8.4l-2.7.7a10.91,10.91,0,0,0-.6-1.1,2.88,2.88,0,0,0,.1,1.3l-.8.2c-.3-.5-.7-1.4-.7-1.4a2.57,2.57,0,0,0,.1,1.5l-1,.3-.6-1.2a2.85,2.85,0,0,0,0,1.3l-.8.2a3.19,3.19,0,0,1-.3-1.4A2.62,2.62,0,0,0,19,214l-.8.2A5,5,0,0,1,18,213a3,3,0,0,0-.2,1.3l-2.5.8c4.5-6.7,10-8,13.7-7.9a22,22,0,0,1-2.3-2,10.09,10.09,0,0,1,.7-1.5,2,2,0,0,0-1.1,1.1l-.5-.6a6.11,6.11,0,0,1,.7-1.4,1.59,1.59,0,0,0-1.2.9l-.6-.7a3.92,3.92,0,0,1,.8-1,1.43,1.43,0,0,0-1.2.6l-.6-.7a3.65,3.65,0,0,1,1-.7,2.77,2.77,0,0,0-1.3.3c-.7-1-1.2-1.6-1.2-1.6,7,.4,9.7,3,11.3,5.4a10.9,10.9,0,0,1,9-4.3,27.18,27.18,0,0,0-2.6,2.3A2.74,2.74,0,0,0,38.57,203.5Z"/><path class="cls-4" d="M49.37,782.2a22.26,22.26,0,0,1-7-3.2,18.21,18.21,0,0,1-5.2.8A14.52,14.52,0,0,1,27,776.1c7.1-2.1,12-6.8,12.5-12.5,5.6.7,9.9,4.1,9.9,8.1a6.83,6.83,0,0,1-3.3,5.6c.1.9.5,2.2,3.4,4.5C50,781.8,50.57,782.4,49.37,782.2Zm-30.5-7a28.21,28.21,0,0,1-6.5-.8,38.11,38.11,0,0,1-10.7,4.3c-2.2.5-1.5-.2-1-.6,3.4-2.7,5-4.6,5.8-6.1-3.9-2.3-6.3-5.6-6.3-9.4,0-7,8.4-12.6,18.8-12.6s18.7,5.6,18.7,12.6-8.4,12.6-18.8,12.6Z"/><path class="cls-4" d="M44.37,388.5v-3.9H5.87v3.9H.07V377h50v11.5ZM5.87,365.4h3.8l1.9,1.9h9.6l1.9-1.9h4l1.9,1.9h9.6l1.9-1.9h3.8l5.8,9.6H.07Zm34.6-1.9-1.9-5.8H29l-1.9,5.8h-3.9l-1.9-5.8h-9.6l-1.9,5.8H5.87L4,350l3.9,1.9h34.6l3.8-1.9-1.9,13.5Z"/><path class="cls-4" d="M50.07,464.5l-14.6,7.9H7.57l-7.5-7.9ZM8,459.2H33l4,4H4.07Zm4-3.9h13.1l2.6,2.6H9.27Zm2.6-5.3h2.6v4h-2.6Zm4,0h2.6v4h-2.6Z"/><path class="cls-4" d="M48.47,562.4c-.6-.5-.5-1.2-1-1.8a3,3,0,0,0-2-1h-.1c-.1,0-.1.2-.1.3h0a7.89,7.89,0,0,0,4.8,3.6c0,.6-.1,1.2-.1,2,0,.1,0,.1-.1.2a1.43,1.43,0,0,0-.6,1.2.22.22,0,0,1-.2.2l-3.5.3c0-.3.1-.5.1-.8a5.15,5.15,0,0,0-5.4-4.9,5,5,0,0,0-4.9,4.9,2.77,2.77,0,0,0,.1.9H16.17a2.77,2.77,0,0,0,.1-.9,5,5,0,0,0-5.1-4.9h0a4.89,4.89,0,0,0-5.1,4.9h0a2.77,2.77,0,0,0,.1.9h-.9l-1.4-.7c-.3,0-1.6-.1-1.6-.9,0-.1-.5,0-.5-.2-2.3-1.5-1.6-3.2-1.6-3.2a.1.1,0,0,1,.1-.1h1.8c.6,0,.6-1.3.5-1.7-.2-1-1.1-1.2-1.3-1s-.1.9.1,1.6c.1.3.2.6-.3.6H.67c-.3-1-1-3.5.4-5.5,1.4-1.8,5.6-5.3,6.9-5.6,2.7-.7,5.5-.8,11.3-.8a32.7,32.7,0,0,1,4.4.4,38.86,38.86,0,0,1,10.4,5.7c7,.7,13.6,2.2,15,4.1l.7,1.4a3.19,3.19,0,0,1,.3,1.4A4.42,4.42,0,0,1,48.47,562.4Zm-17.3-5.7c-.6-.8-5.9-4.5-7.7-4.9-2.5-.5-3.5-.8-11.8,0a5.15,5.15,0,0,0-3.4,2.3c-1,1.2-1.6,2.4,0,2.4,3.1,0,21.8,1.1,22.5,1.1s.8-.5.4-.9Zm-20,5.7a4.13,4.13,0,0,1,4.4,3.8,4.19,4.19,0,0,1-3.8,4.4h-.6a4.13,4.13,0,0,1-4.4-3.8,4.19,4.19,0,0,1,3.8-4.4Zm0,6.5a2.46,2.46,0,0,0,2.3-2.6,2.45,2.45,0,0,0-4.9.1,2.63,2.63,0,0,0,2.6,2.5Zm0-4.5a2,2,0,0,1-.2,4,2.05,2.05,0,0,1-1.9-2,2.09,2.09,0,0,1,2.1-2Zm29.4-2a4.1,4.1,0,0,1-.4,8.2,4,4,0,0,1-3.9-4.1,4.22,4.22,0,0,1,4.3-4.1Zm0,6.5a2.4,2.4,0,1,0-2.5-2.4,2.39,2.39,0,0,0,2.5,2.4Zm0-4.5a2,2,0,0,1-.2,4,2.05,2.05,0,0,1-1.9-2,2,2,0,0,1,2.1-2Z"/><path class="cls-4" d="M25.07,650a1.75,1.75,0,0,0-1.5,1l-6.1,14.7L1.57,667a1.77,1.77,0,0,0-1.4,1.1,1.57,1.57,0,0,0,.5,1.7l12.1,10.4-3.7,15.6a1.52,1.52,0,0,0,.3,1.3,1.57,1.57,0,0,0,2.1.4l13.6-8.3,13.6,8.3a1.62,1.62,0,0,0,2.2-.5,1.72,1.72,0,0,0,.2-1.2l-3.7-15.5,12.1-10.4a1.5,1.5,0,0,0,.2-2.2,2.38,2.38,0,0,0-1.1-.6l-16-1.3-6-14.8A1.54,1.54,0,0,0,25.07,650Z"/><path class="cls-3" d="M49.37,949.3a2.42,2.42,0,0,1-3.5,0l-9.7-9.7a2.4,2.4,0,0,1-.6-2.5l-4.4-4.4-.1.2a18.74,18.74,0,1,1,6.4-14.1,18.26,18.26,0,0,1-4.1,11.6,9.68,9.68,0,0,1-.7.9l4.4,4.4a2.31,2.31,0,0,1,2.5.6l9.7,9.7a2.12,2.12,0,0,1,.1,3.3Zm-14.5-30.6a16,16,0,1,0-16,16A16,16,0,0,0,34.87,918.7Z"/><path class="cls-3" d="M50,1020.5,27.47,1001a3.2,3.2,0,0,0-4.6-.1l-.1.1L.27,1020.5c-1.3,1.4,8.8,2.9,8.8,2.9V1041h11.7v-14.6h8.8V1041h11.7v-17.6C41.07,1023.4,51.27,1021.8,50,1020.5Z"/><path class="cls-5" d="M50.07,1075l-23.8,23.8-.7-.7,23.1-23.1-23.1-23.2.7-.7Z"/><path class="cls-3" d="M50.07,1125l-23.8,23.8-.7-.7,23.1-23.1-23.1-23.2.7-.7Z"/><path class="cls-4" d="M50.07,1175l-23.8,23.8-.7-.7,23.1-23.1-23.1-23.2.7-.7Z"/><path class="cls-4" d="M21.57,1301.7h0v0Zm-9.9,44.2a23.65,23.65,0,0,1-6.2-32.9,23,23,0,0,1,2.8-3.4c.1-.7.3-1.3.4-2a24.75,24.75,0,0,0-2.5,35,26.82,26.82,0,0,0,5.4,4.7,6.6,6.6,0,0,1,.1-1.4Zm17.9,3.6a24.49,24.49,0,0,1-8.1.2,5,5,0,0,1-.2,1.2,22.12,22.12,0,0,0,8.5-.2,2.17,2.17,0,0,1-.2-1.2Zm-6.5-46.7a12.1,12.1,0,0,1,1.9-.1,23,23,0,0,1,6.4.9,9.75,9.75,0,0,0,.5-1.1,23.7,23.7,0,0,0-7-1,15.49,15.49,0,0,0-2.2.1,5.63,5.63,0,0,1,.4,1.2Zm15.1,2.5v1.4a23.65,23.65,0,0,1,6.4,32.8,24.39,24.39,0,0,1-5.4,5.7c0,.5.1,1,.1,1.4a25,25,0,0,0,6.1-34.6,27.12,27.12,0,0,0-7.2-6.7Zm-1.2-5s.4,18.1.5,32.2c.1,8.9.9,16.3.9,16.9a3.25,3.25,0,0,1-1.1,2.8,3.78,3.78,0,0,1-2.7,1h0a3.94,3.94,0,0,1-2.7-1,3.36,3.36,0,0,1-1.1-2.8c0-1.3,1.4-17.1,1.4-17.1s0-.6-1.3-1.2c-2.6-1.2-3.1-3.3-3.1-6.3,0-5.1,4.1-24.4,8-24.4Zm-17.3,22.5c-1.5.7-1.4,1.3-1.4,1.3s1.9,23.7,1.9,25.3a3.25,3.25,0,0,1-1.1,2.8,3.78,3.78,0,0,1-2.7,1h0a3.94,3.94,0,0,1-2.7-1,3.36,3.36,0,0,1-1.1-2.8c0-1.3,1.9-25.3,1.9-25.3s0-.6-1.4-1.2a7.49,7.49,0,0,1-4.4-6.9c0-5.1,1.8-11.1,2.8-15.9h1V1314a1.16,1.16,0,0,0,1.1,1.3,1.13,1.13,0,0,0,1.1-1.2h0v-.1l1-13.9h1l1.2,13.9v.1c.1.7.4,1.2,1,1.2A1.23,1.23,0,0,0,20,1314v-14h1c1.1,4.8,2.9,10.7,2.9,15.9a7.19,7.19,0,0,1-4.2,6.9Z"/><path class="cls-4" d="M43.37,1468.7a6.53,6.53,0,0,1-3.6-1l-.3-.2a3.91,3.91,0,0,1-1-.8c-.9-.9-1.7-2.6-.9-5.5a3,3,0,0,1,2.6-2.3,3.84,3.84,0,0,1,3.7,1.6,3.12,3.12,0,0,1-.5,3.6l1.1.8a4.45,4.45,0,0,0,.5-5.1,5.21,5.21,0,0,0-5-2.2,4,4,0,0,0-3.7,3.3c-.4,3.3-.5,5.2,1.3,6.9h-25c1.8-1.8,2.1-4.3,1.3-6.9a4.25,4.25,0,0,0-3.7-3.3,5.21,5.21,0,0,0-5,2.2c-.5.8-1.2,2.7.5,5.1l1.1-.8c-.9-1.3-1.1-2.6-.5-3.6a3.76,3.76,0,0,1,3.7-1.6,3,3,0,0,1,2.6,2.3c.8,2.9,0,4.5-.9,5.5a3.92,3.92,0,0,1-1,.8l-.3.2a6.74,6.74,0,1,1-7.2-11.4,6,6,0,0,1,3.5-1h36.8a6.79,6.79,0,0,1,6.7,6.8,6.64,6.64,0,0,1-6.8,6.6ZM10.87,1450h28.6a3.59,3.59,0,0,1,3.6,3.6H7.27S8.87,1450,10.87,1450Zm1.7,19.6h25a3.6,3.6,0,1,1,0,7.2h-25a3.59,3.59,0,0,1-3.6-3.6A3.72,3.72,0,0,1,12.57,1469.6Zm25,27.2h-3.5v-12.9h-3.6v12.9h-3.6v-12.9h-3.6v12.9h-3.6v-12.9h-3.6v12.9h-3.6v-18.2h25v18.2Z"/><path class="cls-4" d="M8.07,1645.2,7,1644.1l-2.5,4.3a3.48,3.48,0,0,0,1.3,4.8,3.45,3.45,0,0,0,1.8.5,3.62,3.62,0,0,0,3-1.7l1.9-3.3A30.76,30.76,0,0,1,8.07,1645.2Zm34-34.4a23.3,23.3,0,0,1,4.4,5.9A9.33,9.33,0,1,0,35,1602a9.13,9.13,0,0,0-2.5,3A23.19,23.19,0,0,1,42.07,1610.8Zm-38.3,5.9a24.19,24.19,0,0,1,14-11.7,9.35,9.35,0,0,0-16.6,8.6A8.64,8.64,0,0,0,3.77,1616.7Zm19.4-11a22.34,22.34,0,0,0,1.9,44.6h.2a22.4,22.4,0,0,0,1.7-44.7m-1,4.3V1630l.1-.1-11-16.2a9.24,9.24,0,0,1,4.7-3.3,11.88,11.88,0,0,1,6.2-.5Zm17.2,34.1c-.3.3-.5.6-.8.9a27.62,27.62,0,0,1-4.6,3.7l1.9,3.3a3.38,3.38,0,0,0,4.7,1.2,3.45,3.45,0,0,0,1.3-4.7h0Z"/><path class="cls-4" d="M25.47,1826.4l8.5-17.1,13.9-9.3,2.2,3.3-13,8.7-7.2,14.4Zm13.2-8.8-1.8,3.6c1.6.9,2.6,2,2.6,3.3,0,2.9-5.6,5.3-12.9,5.8l-3.6,5.9v-5.8h-.7l-4,12.6v-13c-6-.8-10.3-3-10.3-5.5,0-3.3,7-5.9,15.8-5.9h1.3l1.9-3.9c-1-.1-2.1-.1-3.2-.1-13.1,0-23.6,4.5-23.6,19.7s10.6,27.6,23.6,27.6,23.6-12.3,23.6-27.6c0-8.7-3.4-13.8-8.7-16.7Z"/><path class="cls-4" d="M.07,2084.4l7.7,3.1,6.1,2.4,4.6,2,4.9,2.2,4.2,1.9,3.9,1.6,2.6.8.9.2.7.1h.6l1.2-.2.5-.3.9-.8.3-.4.2-.6v-.7l-.5-.4-.7.2-.7.4-.7.5-.7.6-.6.3-.7.1-1.3-.2-5-2.3-7.9-3.6.1-.8-.3-.5-.4-.6-.6-1.4-.1-.9,7.5,2.5,5.2,2.1,10.2,3.7,1.3.4,1.1.2.8.1,1,.1,1.1-.1,1.1-.5.8-.8.3-.8.1-.5v-.4l-.1-.3-.7-.2-.6.3-.6.4-.7.6-.7.6-.5.2-.4.1h-.4l-.7-.1-1.8-.7-12-4.6h0l.2-.8-.2-.3-.4-.6-.3-.5-.3-.5-.2-.5-.1-.5v-.6l.3-.8.3-.5.7-1.3,1-1.8.9-1.4,1-1.4.6-.7-.2-.5-.4-.9-.5-.9-.6-.9-1.1-1.4,4.5-.4.3.6,2.5-.2.2-.7h.4l-.1-.6h-.5l-.2-.9-1.9-1.4-2.6-2.4-1-5-.3-1.1-.3-.6-.4-.6-.5-.6-.8-.8.1-.1,1.2.4,1.6-2.1.1-.6.3-.3.4-.9.5-.3-.7-1.1-.6-.7-.5-.6-.5-.5-.6-.4-.3-.2-.5-.2-.4-.1h-.4l-.6.1-.6.3-.4.5-.4.9-.2.9-.1,1.5.1.5.3,1.1-.4.4h-2.2l-1.2.1-.9.1-1.2.3-.7.4-.6.4-.8.6-.9.9-1.1,1.1-.9,1.1-.8,1-.6.6-.4.8-.3.8-.2,1.1-.3,3.6.8,1.9-13,10.2-.6-.3-.3-.1h-.1l-.2.1-.2.2-.1.3v.4l.1.4.1.3-.4.7.8-.2.1.1.4.2.3.1h.3l.2-.1.2-.2.1-.3v-.3l-.2-.6,13.1-10.3.5.3,2-1.2-.3-.8.3-.2-.4-.5-.3.2v-.6l-.4-.8v-.7l1.4-4.1,1.9-.9-1.1,3.3-.5,1.6-.3,1.8L19,2071l.2,1v.7l.1,1.3.1,1.1.1.9v1.2l-.1.5-.2.4-.4,1-2.7,5.4-4.9-1.5-1.1.1-.1.4,5.7,2-1,3.1-.3-.1-9.8-3.4-2.8-1.2-1.4.1Zm2.5-2.8h0l-1,.7-.1-.2v-.5l.1-.1.2-.1h.3l.5.2Zm.5,1-.1.2-.1.1h-.2l-.3-.1-.3-.1.9-.7H3v.2Zm26.2-12.4-1.2-1.2-.4-.3.1-1.2.7-1.1.6-.8.8-.9,1.4,3,2.2,1.8,2.1,1.4.3.5-4.8.4Zm-9.6,15.6,1-2.5.9-1.8.7-1.3.5-.9.4-.6.4-.6.9-4.8h0l1.4.9,1.1.8.8.7.6.5.4.4.4.6-1,1.7-1.3,2.3-1.2,2.4-1.4,3.4Z"/><path class="cls-4" d="M45.07,2186.4v-5h-40v5h-5v-35h5v25h42.5a2.48,2.48,0,0,1,2.5,2.5v7.5Zm-37.5-20a2.48,2.48,0,0,1,2.5-2.5h35a5,5,0,0,1,5,5v5H7.57Zm5.2-5.6c-4.9-2.6-7.8-6.6-6.5-9.1s6.3-2.3,11.2.2,7.8,6.6,6.5,9.1-6.3,2.4-11.2-.2Z"/><path class="cls-4" d="M44.17,2268.1c-2.4-6-5.7-7.5-5.7-12.1a5.67,5.67,0,1,1,11.3-.9v.8C49.87,2260.6,46.57,2262.1,44.17,2268.1Zm0-15.1a3,3,0,1,0,2.8,3.2v-.2a2.9,2.9,0,0,0-2.8-3Zm1.1,18.3a1.35,1.35,0,0,1-.7,1.6l-12,4.2,4.6,2.3a1.71,1.71,0,0,1,.7,1.3,1.39,1.39,0,0,1-.7,1.2l-17.6,6.5c-.1,0-.2.1-.3.1-.5,0-3.1-.4-3.3-.9a1.35,1.35,0,0,1,.7-1.6l14.7-5.4-4.7-2.3a1.71,1.71,0,0,1-.7-1.3,1.3,1.3,0,0,1,.8-1.2l15-5.3c.5-.3,3.3.1,3.5.8Zm-45.2-9.2a12.27,12.27,0,0,1,12.4-12.1h0a12.21,12.21,0,0,1,12.4,12.1h0c0,9-7.3,12.1-12.4,24.1C7.37,2274.1.07,2271.1.07,2262.1Zm18.7,0a6.1,6.1,0,1,0-6.2,6,6.06,6.06,0,0,0,6.2-6Z"/><path class="cls-4" d="M49.87,2366.3c-.6-1.1-3.2-.7-5.1-2.5a16.61,16.61,0,0,0-2.5-5.6c1.3-2.1,3.9-6.6,3-7.8s-9,.5-11.6,1.1a21.37,21.37,0,0,0-6.5-1.6h-6.8a18.64,18.64,0,0,0-15.1,8.2c-.8-.3-2.4-.6-3.3.1a5.31,5.31,0,0,0-1.9,4.4c.1,1.3,2,2.2,2.5,2.5a19.48,19.48,0,0,0-.2,2.5,16.81,16.81,0,0,0,6.8,13.5c-.1,1.5-.5,5.6.1,6.2s7.8,1.6,8.5,1a10.87,10.87,0,0,0,1.3-3.4,6.6,6.6,0,0,1,1.4.1h5.8c.2.8.8,3.2,1.4,3.8s7.8,0,8.4-.7c.5-.5.6-3.8.7-5.7a17.85,17.85,0,0,0,6.3-6.5,31.19,31.19,0,0,0,4.3-1.5C49.87,2373,50.47,2367.5,49.87,2366.3Zm-21.4-10.6h-9.6a1.35,1.35,0,1,1-.1-2.7h9.6a1.42,1.42,0,0,1,1.5,1.3,1.27,1.27,0,0,1-1.2,1.4Zm12.2,9.6a1.77,1.77,0,0,1-2.5-2.5h0a1.77,1.77,0,0,1,2.5,2.5Z"/><path class="cls-4" d="M49.37,2468.3l-33.1,28.1a2.15,2.15,0,0,1-2.9-.2l-2.5-2.9a6,6,0,0,0-.5-7.3,6.15,6.15,0,0,0-7.2-1.6l-2.5-2.9a2.15,2.15,0,0,1,.2-2.9h0L34,2450.5a2.15,2.15,0,0,1,2.9.2l2.5,2.9a6,6,0,0,0,.5,7.3,6.15,6.15,0,0,0,7.2,1.6l2.5,2.9a2,2,0,0,1-.2,2.9Zm-26.6,6-2.3-1.8a31.08,31.08,0,0,0-.3-4.3c-.1-.9-.4-1.3-.7-1.3s-.5.5-.8,1.3a31.08,31.08,0,0,0-.3,4.3l-2.5,1.9-1,.8-1.7,1.3-1,.8a6.12,6.12,0,0,0-1.7,1.5,4.42,4.42,0,0,0-.6,1.6v.3c1.8-.9,3.5-1.6,4.9-2.2a13.09,13.09,0,0,1,2.8-.9c.4,0,.7.9.8,2.5a11.53,11.53,0,0,0,.3,2.6l-.8.8c-.4.3-1,.8-1.7,1.3,0,.3-.2.5-.2.8s-.1.5-.1.8a4.92,4.92,0,0,1,1.7-.6l1.5-.5a.9.9,0,0,0,.1.5c0,.2.1.3.1.5,0-.2.1-.3.1-.5s.1-.3.1-.5c.4.2,1,.3,1.5.5a8.52,8.52,0,0,0,1.7.6,4,4,0,0,0-.3-1.5v-.2c-.7-.6-1.4-1-1.8-1.3a3,3,0,0,1-.8-.8c.1-.8.2-1.6.3-2.5.1-1.8.4-2.7.8-2.7a6.22,6.22,0,0,1,2.6.9c1.4.6,3.1,1.3,4.9,2.2v-.3a2.77,2.77,0,0,0-.5-1.6,6.12,6.12,0,0,0-1.7-1.5l-1-.8-1.6-1.4Zm2.5-13.9-1.2,1,1.5,1.8,1.2-1Zm3.1,3.5-1.2,1,1.5,1.8,1.2-1Zm3,3.5-1.2,1,1.5,1.8,1.2-1Zm3.1,3.6-1.2,1,1.5,1.8,1.2-1Zm3,3.5-1.2,1,.7.8,1.2-1Z"/><path class="cls-4" d="M25.07,2678.6c-10.4-26.2-25-32.7-25-52.4,0-14.5,11.2-26.2,25-26.2s25,11.7,25,26.2C50.07,2645.8,35.47,2652.4,25.07,2678.6ZM43,2630.7a4.27,4.27,0,0,0-1-2.9,9.92,9.92,0,0,0-3.2-2.6l-1.9-1.3-3.2-2.4-1.9-1.3-4.4-3.1a64.65,64.65,0,0,0-.5-7.6c-.3-1.6-.8-2.4-1.4-2.4-.8,0-1,.8-1.6,2.4a38.85,38.85,0,0,0-.5,7.6l-4.8,3.4-1.9,1.3-3.2,2.4-1.9,1.3a9.92,9.92,0,0,0-3.2,2.6,5.69,5.69,0,0,0-1.1,2.9v.5c3.4-1.6,6.7-2.9,9.3-3.9a20.22,20.22,0,0,1,5.3-1.6c.8,0,1.4,1.6,1.6,4.4a40.47,40.47,0,0,0,.5,6,10.11,10.11,0,0,1-1.6,1.3,29.08,29.08,0,0,0-3.2,2.4c0,.5-.3.8-.3,1.3s-.3.8-.3,1.3a11.91,11.91,0,0,1,3.2-1l2.9-.8a1.14,1.14,0,0,0,.3.8c0,.3.3.5.3.8,0-.3.3-.5.3-.8s.3-.5.3-.8c.8.3,1.9.5,2.9.8a29.9,29.9,0,0,0,3.2,1,20,20,0,0,0-.5-2.6v-.2c-1.4-1-2.6-1.9-3.5-2.4a10.09,10.09,0,0,1-1.6-1.3c.3-1.6.3-3.4.5-5.8.3-3.2.8-4.7,1.6-4.7a18.22,18.22,0,0,1,5,1.6c2.6,1,5.8,2.4,9.3,3.9Z"/><path class="cls-4" d="M11.17,2875.2a13.87,13.87,0,0,1,13.7-14.1H25a13.85,13.85,0,0,1,13.7,14v.1a14.1,14.1,0,0,1-7.6,12.6v4.6a18.16,18.16,0,0,0-6.3-35.1,18.16,18.16,0,0,0-6.3,35.1v-4.6A14.37,14.37,0,0,1,11.17,2875.2Zm24.4,0a10.88,10.88,0,0,0-10.7-10.9,10.71,10.71,0,0,0-10.7,10.7v.2a10.73,10.73,0,0,0,6.9,10.1v16.2h7.6v-16.4A10.47,10.47,0,0,0,35.57,2875.2Zm-10.7,5a5.14,5.14,0,0,1-5.1-5.2,5.15,5.15,0,0,1,10.3,0,5.23,5.23,0,0,1-5.2,5.2Zm0-30.2a25,25,0,0,0-24.8,25.1,25.36,25.36,0,0,0,18.7,24.4v-4.4a21,21,0,0,1,6.3-41,21,21,0,0,1,6.3,41v4.4a25.36,25.36,0,0,0,18.7-24.4c-.4-13.8-11.4-25.1-25.2-25.1Z"/><path class="cls-4" d="M50,3033.4l-.2,7.6a3.33,3.33,0,0,1-3.2,2.3h-43a3.42,3.42,0,0,1-3.2-2.4l-.2-7.6c-.3-1.3.4-2.3,1.6-3.6,1-1,4-3.9,6.1-6,.2-.2.4-.3.6-.5l2.1,1.8h-.5l-5.7,6.3h10.7a.55.55,0,0,1,.5.3l1.3-5.5-7.8-6.7a1.06,1.06,0,0,1-.2-1.4.91.91,0,0,1,.8-.4l10.3-.8,4-9.6a1,1,0,0,1,1.3-.6.9.9,0,0,1,.6.6l4,9.6,10.3.8a1,1,0,0,1,1,1,1.23,1.23,0,0,1-.4.8l-7.8,6.7,1.5,6.5.4-.9a.68.68,0,0,1,.6-.4H46l-5.7-6.3h-.6l2.1-1.8a2.66,2.66,0,0,1,.6.5c2.2,2.1,5.1,4.9,6.1,6C49.67,3031.1,50.37,3032.1,50,3033.4Zm-25.1-1.4-7.3,4.5.2.4h15v-.1Zm11-16.3-4.4-.4-5.4-11a1.43,1.43,0,0,0-1.7-.7,1.58,1.58,0,0,0-.7.7l-5.4,11-4.4.4-4.1-3.5a1.07,1.07,0,0,1-.1-1.4.86.86,0,0,1,.6-.3l8.6-.8,5-9.1a1,1,0,0,1,1.3-.5,1.21,1.21,0,0,1,.5.5l5,9.1,8.6.8a1.17,1.17,0,0,1,.9,1.1.71.71,0,0,1-.3.6Z"/><path class="cls-4" d="M50.07,3133.7a6.07,6.07,0,0,1-.8,2.6,3.93,3.93,0,0,1-1.8,1.8,8,8,0,0,1-3.8,1,22.07,22.07,0,0,1-5.1-.5l-1-.2a16.51,16.51,0,0,0,6.8-1.6,4.69,4.69,0,0,0,.9-.6l.2-.1h0l.2-.2a1.84,1.84,0,0,0,.3-2,.35.35,0,0,0-.1-.2l-.1-.5h0v-.2a1,1,0,0,1-.1-.3,8.34,8.34,0,0,0-.8-1.2,13.14,13.14,0,0,0-2.5-2.2,30.92,30.92,0,0,0-6.5-3.4,53.41,53.41,0,0,0-5.5-2l.2-3.8,2.6-3.2c1.8.9,3.7,2,5.8,3.2a39,39,0,0,1,6.9,5.2,15.23,15.23,0,0,1,3,3.7,9.43,9.43,0,0,1,1,2.3c.1.2.1.4.2.6s0,.2.1.3l.1.4-.2,1.1Zm-10-16.6h-2.3a21.47,21.47,0,0,0-2.6-1.4h4.1a14.25,14.25,0,0,0-8.4-6,9.27,9.27,0,0,1,2.5,2.7c-.1,0-.2-.1-.3-.1l-1.6-.2h0a5.82,5.82,0,0,0-3.4-2.1v4l-1,.7-.5-.3V3110a6.14,6.14,0,0,0-3.8,2.5l-1.9-.9,2.2-3.3.8-1.2a16.76,16.76,0,0,1,19.7,13.1c0,.2.1.5.1.7-1-.8-2-1.5-2.9-2.1A7.66,7.66,0,0,0,40.07,3117.1Zm-22.4-6.4c-.3.7.9,1.7,3.3,2.9a34,34,0,0,1,5,2.6,7,7,0,0,0,1.7-.9c.7-.5,1.8-1.1,3.1-1.9.5.2.8,0,1.2.2s.8,0,1.2.2a14.33,14.33,0,0,0-2,2.3l-1.7,2.2a1,1,0,0,1,.6.5c.3.1.4.4.6.5-.3-.1-.5.1-.8,0s-.5.1-.8,0c0,.8-.2,1.8-.3,2.7s0,2.1-.2,3.1a9,9,0,0,1-2-1.4l-.3-.1c-.4-1.5-.7-2.9-.9-3.7a6.36,6.36,0,0,0-.6-1.8c-1.4-.3-3-1-5.1-1.6-2.8-.9-4.4-1-4.6-.4a15.61,15.61,0,0,0-.4,4.8c0,2.6,0,5.8.2,9.2l-.4-.2a3.92,3.92,0,0,1-2.1-1.9,9.4,9.4,0,0,1-1.1-3.6l-.5-2-.9-3.5-.5-2-1.1-5a54.57,54.57,0,0,1-6.4-3.2c-1.2-.8-1.8-1.5-1.6-2,.3-.7,1.1-.6,2.6-.5a37.82,37.82,0,0,1,6.7,2.3l4.6-2.8,1.8-1.1,3.1-1.9,1.8-1.1a10.62,10.62,0,0,1,3.3-1.8,5.33,5.33,0,0,1,2.8.1l.5.2c-2.5,2.3-4.8,4.6-6.6,6.4A23.4,23.4,0,0,0,17.67,3110.7Zm-3.2,22.2a1.8,1.8,0,0,0,1.5-.7,14.47,14.47,0,0,0,7.8,5.2,12.21,12.21,0,0,1-4.2-6h-3.2v-.2l.2-1.3h2.5a22.55,22.55,0,0,1-.8-5.8h-.9l.2-1.4h.7a26.36,26.36,0,0,1,.2-2.8l1.4.4a19.42,19.42,0,0,0-.2,2.4h5l.3,1.4h-5.2a19,19,0,0,0,.9,5.8h6v-3.2l.7.5a4.87,4.87,0,0,0,.7.3v2.4h6a13.1,13.1,0,0,0,.6-2.7l.5.2.9.4a16,16,0,0,1-.5,2.1h4.5c.4.3.8.5,1.2.8s.5.4.8.6a16.7,16.7,0,0,1-22.6,7,17.54,17.54,0,0,1-6.4-6l.2.2a1.59,1.59,0,0,0,1.2.4Zm24.8-1.5h-4.2a12.21,12.21,0,0,1-4.2,6A14,14,0,0,0,39.27,3131.4ZM28,3137.1c2.3-.4,4.3-2.5,5.5-5.7H28Zm-1.4,0v-5.7h-5.5c1.2,3.2,3.2,5.3,5.5,5.7Z"/><path class="cls-6" d="M25.07,3171c-5.4,0-25-16.6-25-16.6v.3c0-2.6,2.5-4.7,5.6-4.7h38.9c3.1,0,5.6,2.1,5.6,4.7h0C50.07,3154.7,30.77,3171,25.07,3171Zm0,4.1c5.9,0,25-15.7,25-15.7v24.5c0,2.6-2.5,4.7-5.6,4.7H5.67c-3.1,0-5.6-2.1-5.6-4.7v-24.5s19.6,15.7,25,15.7Z"/><path class="cls-4" d="M43.67,1959.1h0a.22.22,0,0,0-.2-.2c.1,0,.1.1.2.2a24.75,24.75,0,0,0-30.6-6.3h0a25.29,25.29,0,0,0-11.8,13.9h0v.1h0a24.53,24.53,0,0,0,30,31.3h0a24.51,24.51,0,0,0,17.4-18.9,24.18,24.18,0,0,0,.4-4.7A24.48,24.48,0,0,0,43.67,1959.1Zm-29.8-5.4a23.61,23.61,0,0,1,25.3,2.4,28.2,28.2,0,0,0-7.1-.9,32,32,0,0,0-21.2,8.4,3.33,3.33,0,0,0-1.7-1.4A19.35,19.35,0,0,1,13.87,1953.7ZM2,1980.4a23.32,23.32,0,0,1-.8-5.9,24.73,24.73,0,0,1,.8-6c.3.2.5.3.8.5a9.12,9.12,0,0,0,.4,6.3A21.1,21.1,0,0,0,2,1980.4Zm3.9-3.9a1.27,1.27,0,0,1-.6-.1c-2.1-.5-2.9-4-1.9-7.8.9-3.4,3-5.9,5-5.9a1.27,1.27,0,0,1,.6.1c2.1.5,2.9,4,1.9,7.8C9.87,1974,7.87,1976.5,5.87,1976.5Zm22.3,21a5,5,0,0,0,1.2.2,4.3,4.3,0,0,1-1.2-.2Zm3-.5c-8.3-.9-16-6.8-20.1-15.4a32.32,32.32,0,0,1-2.1-6.2,9.84,9.84,0,0,0,2-3.4c.5.2,1.1.4,1.7.6,8.3,2.9,22.3,7.9,32.6,7.9a12.75,12.75,0,0,0,2-.1,24,24,0,0,1-16.1,16.6Z"/><path class="cls-4" d="M25.07,871c-5.4,0-25-16.6-25-16.6v.3c0-2.6,2.5-4.7,5.6-4.7h38.9c3.1,0,5.6,2.1,5.6,4.7h0C50.07,854.7,30.77,871,25.07,871Zm0,4.1c5.9,0,25-15.7,25-15.7v24.5c0,2.6-2.5,4.7-5.6,4.7H5.67c-3.1,0-5.6-2.1-5.6-4.7V859.4s19.6,15.7,25,15.7Z"/><path class="cls-7" d="M35,3211.4l7.9-3.9-3.6,8.2Zm-9.8,26.9a12.9,12.9,0,1,1,12.9-12.9,12.93,12.93,0,0,1-12.9,12.9Zm-3.4-17.6a1.71,1.71,0,1,0,1.5,1.9v-.2a1.53,1.53,0,0,0-1.5-1.7Zm6.6,0a1.71,1.71,0,1,0,1.5,1.9v-.2a1.59,1.59,0,0,0-1.5-1.7Zm2,7.4a1,1,0,0,0-1.3-.3l-.1.1a5.78,5.78,0,0,1-7.6,0,.93.93,0,0,0-1.3.1l-.1.1a1.36,1.36,0,0,0,.2,1.6,7.6,7.6,0,0,0,10,0,1.36,1.36,0,0,0,.2-1.6Zm-5-28.1,2.8,8.4h-6.1Zm-17.7,7.1,7.9,3.9-4.3,4.3Zm.8,21.3-8.4-3.2,8.4-2.8Zm7.3,10.8-8.2,3.6,3.9-7.9Zm9.6,10.8-3.3-8.4h6Zm16.4-27.6,8.3,2.8-8.3,3.3Zm1.2,20.1-8.2-3.6,4.3-4.3Z"/><path class="cls-8" d="M50.07,3300.2l-24.8,16.4L.07,3300Z"/><polygon points="48.07 3352 47.17 3351 24.57 3373.6 2.07 3351 1.07 3352 23.67 3374.5 1.07 3397.1 2.07 3398 24.57 3375.5 47.17 3398 48.07 3397.1 25.57 3374.5 48.07 3352"/><path class="cls-6" d="M23.47,3400,.07,3420h10v16.7h10v-10h10v10h10V3420h10l-23.3-20Z"/><path class="cls-3" d="M23.47,3450,.07,3470h10v16.7h10v-10h10v10h10V3470h10l-23.3-20Z"/><path class="cls-4" d="M37.77,3545.7l-14.2-6.7-14.2,6.7,1.9-15.6L.57,3518.7l15.4-3,7.5-13.7,7.5,13.7,15.4,3-10.7,11.4Zm-8.2-27.1H27v6.3h-5.9v-6.3h-2.7v16.1h2.7v-7.2h6v7.2h2.6Zm-3-15.2,3.3-3.5,3.5,14.4-1-.2Zm-23.9,13-2.6-5,15.4,1.1-.9,1.6Zm6.4,14.9-1.4,11.1-6,1.1,5.7-14Zm24.2,15.3-.7,5.3-10.7-9.1,1.7-.8Zm16.8-21.7-12,7.4-.1-1,7.8-8.5Z"/><path id="Search-Icon" d="M47.47,3600.6l-11.1-11.1a18.58,18.58,0,1,0-4.4,4.4l11.1,11.1a2.35,2.35,0,0,0,3.3,0h0l1.1-1.1a2.35,2.35,0,0,0,0-3.3Zm-26.3-9.5a12.4,12.4,0,1,1,12.4-12.4h0a12.4,12.4,0,0,1-12.4,12.4Z"/></svg>