<?xml version="1.0" encoding="utf-8"?>
<!-- Generator: Adobe Illustrator 20.1.0, SVG Export Plug-In . SVG Version: 6.00 Build 0)  -->
<svg version="1.1" id="Layer_1" xmlns="http://www.w3.org/2000/svg" xmlns:xlink="http://www.w3.org/1999/xlink" x="0px" y="0px"
	 width="109.7px" height="116.4px" viewBox="0 0 109.7 116.4" style="enable-background:new 0 0 109.7 116.4;" xml:space="preserve"
	>
<style type="text/css">
	.st0{fill:#FCFCFC;}
	.st1{fill:#FFCD20;}
</style>
<path class="st0" d="M100.3,35.6"/>
<path class="st0" d="M108.7,63.9c0,0.9,0,1.8-0.2,2.7c0,0.9-0.3,2-0.3,2.9c-0.2,0.9-0.2,2-0.5,2.9c-0.2,0.9-0.5,2-0.6,2.9
	c-0.3,2-1.2,3.8-1.8,5.8c-0.3,1.1-0.8,1.8-1.2,2.9c-0.5,0.9-0.8,2-1.4,2.9c-1.1,1.8-2,3.8-3.3,5.5c-0.6,0.9-1.2,1.8-2,2.6
	c-0.8,0.8-1.4,1.7-2.1,2.4c-0.3,0.5-0.8,0.9-1.1,1.2L93,99.8c-0.8,0.8-1.7,1.5-2.4,2.3c-1.8,1.4-3.5,2.9-5.5,4
	c-3.8,2.6-8.1,4.4-12.5,5.9c-2.3,0.6-4.6,1.4-6.8,1.7c-1.2,0.2-2.3,0.5-3.5,0.6l-3.5,0.3h-0.9h-0.2c0.2,0-0.3,0-0.3,0h-0.2h-0.5H55
	c-1.2,0-2.3,0-3.5-0.2c-2.4-0.3-4.9-0.6-7.3-1.2c-9.4-2.1-18.1-7-25.1-13.5C12.3,93,7.2,84.6,4.8,75.7c-0.3-1.1-0.6-2.3-0.9-3.3
	c-0.2-1.1-0.5-2.3-0.6-3.3L3,67.4l-0.2-1.7c-0.2-1.1-0.2-2.3-0.3-3.3v-0.5v-0.2c0,0,0-0.5,0-0.3v-0.2v-0.8v-1.5c0-1.1,0-2,0.2-3
	c0.2-1.1,0.3-2.3,0.5-3.3l0.2-1.7c0.2-0.6,0.3-1.1,0.3-1.5c1.8-8.4,5.5-15.8,9.9-21.7c4.6-5.9,9.9-10.5,15.1-13.7s9.7-4.7,14-5.7
	c1.1-0.3,2.7-0.4,3.6-0.6c0.9-0.2,1.8-0.3,2.7-0.5c0.9-0.2,2.2-0.2,2.8,0c0.8,0.3,1.9,0.7,2.5,1c2.8,1.5,4,2.6,4,2.6
	c0.5,0.2,3.2-3.5,3.5-0.2c0.2,3.3-0.9,2.8-2.3,4.4l-1.3,1.2l-0.9,1.1c0,0-1.1,0-2.9,0.2c-0.5,0-1.1,0-1.5,0c-0.6,0-1.2,0.2-1.8,0.3
	c-0.6,0.2-1.4,0.2-2.1,0.3c-0.8,0.2-1.5,0.3-2.4,0.5c-3.5,0.6-7.5,2.1-11.9,4.6c-4.3,2.4-8.8,5.8-12.6,10.6c-4,4.7-7.1,10.6-9,17.5
	c-0.2,0.5-0.3,0.9-0.3,1.2l-0.2,1.2c-0.2,0.9-0.3,1.7-0.5,2.6c-0.2,0.9-0.2,2-0.3,2.9l-0.2,1.5v0.8v0.2c0,0.3,0-0.2,0-0.2v0.2v0.3
	c0,0.9,0,1.8,0.2,2.9v1.5l0.2,1.4c0.2,0.9,0.3,2,0.3,2.9c0.2,0.9,0.5,1.8,0.6,2.9c1.7,7.6,5.8,14.9,11.4,21
	c5.8,5.9,13.2,10.6,21.4,12.8c2.1,0.6,4.1,0.9,6.1,1.4c1.1,0.2,2.3,0.2,3.3,0.3l1.7,0.2h0.5h0.2c0,0-0.2,0,0,0h0.2h0.8l3.2-0.2
	c1.1,0,2.1-0.3,3.2-0.3c2.1-0.2,4.1-0.8,6.2-1.2c4.1-1.2,8.1-2.7,11.6-5c1.8-0.9,3.5-2.3,5.2-3.5c0.8-0.6,1.5-1.4,2.3-2l1.2-1.1
	c0.3-0.3,0.8-0.8,1.1-1.1c0.8-0.8,1.4-1.5,2.1-2.3c0.6-0.8,1.2-1.5,1.8-2.4c1.4-1.5,2.3-3.3,3.3-5c0.6-0.8,0.9-1.7,1.4-2.6
	s0.9-1.7,1.2-2.6c0.6-1.8,1.5-3.5,2-5.5c0.3-0.9,0.5-1.8,0.8-2.7c0.3-0.9,0.8-1.8,1-2.7c0.2-0.9,0.3-1.3,0.5-2.3
	c0-0.9,1.5-2.6,1.5-3.5"/>
<path class="st0" d="M100.5,35.2"/>
<path class="st1" d="M99.5,41.2L99.5,41.2c-1.1,0.8-4.3-0.1-4.3-0.1l-11.5-7.2L60.1,44.5l-2.8-2l15.1-12l1.4-3l-13.6-8.5l-10.1,2.8
	l-0.7-0.4l6.8-6.9l-0.3-1l-0.1-0.2l0.3,0l0.9-0.1L60,3.7l0.6,0.6l2.2,10.4l13.6,8.5l2-2.6l3.7-19.1l3,1.6l1.3,26.3l11.5,7.2
	C97.9,36.6,101,40.2,99.5,41.2z"/>
</svg>
