<?xml version="1.0" encoding="utf-8"?>
<!-- Generator: Adobe Illustrator 20.1.0, SVG Export Plug-In . SVG Version: 6.00 Build 0)  -->
<svg version="1.1" id="Layer_1" xmlns="http://www.w3.org/2000/svg" xmlns:xlink="http://www.w3.org/1999/xlink" x="0px" y="0px"
	 width="36.8px" height="35.8px" viewBox="0 0 36.8 35.8" style="enable-background:new 0 0 36.8 35.8;" xml:space="preserve">
<style type="text/css">
	.st0{fill:#FFFFFF;}
</style>
<g>
	<path class="st0" d="M5.3,22l0.9,2.2c0,0-2.2,4.8-1.9,5l2.8,2.8c0.2,0.2,5-2,5-2l2.2,0.9c0,0,1.9,4.8,2.2,4.8h3.9
		c0.3,0,2.1-4.9,2.1-4.9l2.2-0.9c0,0,4.9,2.1,5.1,1.9l2.8-2.8c0.2-0.2-2.1-4.9-2.1-4.9l0.9-2.2c0,0,5-1.9,5-2.2v-3.9c0-0.3-5-2-5-2
		l-0.9-2.2c0,0,2.2-4.8,1.9-5l-2.8-2.8c-0.2-0.2-5,2-5,2L22.6,5c0,0-1.9-4.8-2.2-4.8h-3.9c-0.3,0-2.1,4.9-2.1,4.9L12.1,6
		c0,0-4.9-2.1-5.1-1.9L4.1,6.8c-0.2,0.2,2,4.9,2,4.9l-0.9,2.2c0,0-5,1.9-5,2.2v3.9C0.4,20.2,5.3,22,5.3,22z M18.5,11.7
		c3.5,0,6.4,2.8,6.4,6.3s-2.9,6.3-6.4,6.3s-6.4-2.8-6.4-6.3C12.1,14.4,15,11.7,18.5,11.7z"/>
</g>
</svg>
