<?xml version="1.0" encoding="utf-8"?>
<!-- Generator: Adobe Illustrator 20.1.0, SVG Export Plug-In . SVG Version: 6.00 Build 0)  -->
<svg version="1.1" id="Layer_1" xmlns="http://www.w3.org/2000/svg" xmlns:xlink="http://www.w3.org/1999/xlink" x="0px" y="0px"
	 width="82.8px" height="8.5px" viewBox="0 0 82.8 8.5" style="enable-background:new 0 0 82.8 8.5;" xml:space="preserve">
<style type="text/css">
	.st0{fill:#FFCD20;}
	.st1{fill:#CCC3B9;}
</style>
<path class="st0" d="M8.8,3.6c0-0.1-0.1-0.1-0.1-0.1L6.2,3.1L5.1,0.9C5,0.8,5,0.8,4.9,0.8s-0.1,0-0.1,0.1L3.7,3.1L1.2,3.5
	c-0.1,0-0.1,0-0.1,0.1s0,0.1,0,0.2l1.8,1.7L2.5,7.9c0,0.1,0,0.1,0.1,0.2h0.1c0,0,0,0,0.1,0L5,6.9l2.2,1.2c0.1,0,0.1,0,0.2,0
	c0,0,0.1-0.1,0.1-0.2L6.9,5.5l1.8-1.7C8.8,3.7,8.8,3.6,8.8,3.6z"/>
<path class="st0" d="M16.6,3.6c0-0.1-0.1-0.1-0.1-0.1L14,3.1l-1.1-2.2c0-0.1-0.1-0.1-0.1-0.1c-0.1,0-0.1,0-0.1,0.1l-1.1,2.2L9.1,3.5
	C9,3.5,9,3.5,9,3.6s0,0.1,0,0.2l1.8,1.7l-0.4,2.4c0,0.1,0,0.1,0.1,0.2h0.1c0,0,0,0,0.1,0l2.2-1.2L15,8.1c0.1,0,0.1,0,0.2,0
	s0.1-0.1,0.1-0.2l-0.4-2.4l1.8-1.7C16.6,3.7,16.6,3.6,16.6,3.6z"/>
<path class="st0" d="M24.5,3.6c0-0.1-0.1-0.1-0.1-0.1l-2.5-0.4l-1.1-2.2c0-0.1-0.1-0.1-0.1-0.1s-0.1,0-0.1,0.1l-1.1,2.2L17,3.5
	c-0.1,0-0.1,0-0.1,0.1s0,0.1,0,0.2l1.8,1.7l-0.4,2.4c0,0.1,0,0.1,0.1,0.2h0.1c0,0,0,0,0.1,0l2.2-1.2L23,8.1c0.1,0,0.1,0,0.2,0
	s0.1-0.1,0.1-0.2l-0.4-2.4l1.8-1.7C24.5,3.7,24.5,3.6,24.5,3.6z"/>
<path class="st0" d="M32.3,3.6C32.3,3.5,32.2,3.5,32.3,3.6l-2.6-0.5l-1.1-2.2c0-0.1-0.1-0.1-0.1-0.1s-0.1,0-0.1,0.1l-1.1,2.2
	l-2.5,0.4c-0.1,0-0.1,0-0.1,0.1s0,0.1,0,0.2l1.8,1.7l-0.4,2.4c0,0.1,0,0.1,0.1,0.2h0.1c0,0,0,0,0.1,0l2.2-1.2l2.2,1.2
	c0.1,0,0.1,0,0.2,0c0,0,0.1-0.1,0.1-0.2l-0.4-2.4l1.8-1.7C32.3,3.7,32.4,3.6,32.3,3.6z"/>
<path class="st0" d="M40.2,3.6C40.2,3.5,40.1,3.5,40.2,3.6l-2.6-0.5l-1.1-2.2c0-0.1-0.1-0.1-0.1-0.1s-0.1,0-0.1,0.1l-1.1,2.2
	l-2.5,0.4c-0.1,0-0.1,0-0.1,0.1s0,0.1,0,0.2l1.8,1.7L34,7.9C34,8,34,8,34,8.1h0.1c0,0,0,0,0.1,0l2.2-1.2l2.2,1.2c0.1,0,0.1,0,0.2,0
	s0.1-0.1,0.1-0.2l-0.4-2.4l1.8-1.7C40.2,3.7,40.2,3.6,40.2,3.6z"/>
<path class="st1" d="M49.3,3.6C49.3,3.5,49.2,3.5,49.3,3.6l-2.6-0.5l-1.1-2.2c0-0.1-0.1-0.1-0.1-0.1c-0.1,0-0.1,0-0.1,0.1l-1.1,2.2
	l-2.5,0.4c-0.1,0-0.1,0-0.1,0.1s0,0.1,0,0.2l1.8,1.7l-0.4,2.4c0,0.1,0,0.1,0.1,0.2h0.1c0,0,0,0,0.1,0l2.2-1.2l2.2,1.2
	c0.1,0,0.1,0,0.2,0s0.1-0.1,0.1-0.2l-0.4-2.4l1.8-1.7C49.3,3.7,49.3,3.6,49.3,3.6z"/>
<path class="st1" d="M57.6,3.6C57.6,3.5,57.5,3.5,57.6,3.6L55,3.1l-1.1-2.2c0-0.1-0.1-0.1-0.1-0.1c-0.1,0-0.1,0-0.1,0.1l-1.1,2.2
	l-2.5,0.4c-0.1,0-0.1,0-0.1,0.1s0,0.1,0,0.2l1.8,1.7l-0.4,2.4c0,0.1,0,0.1,0.1,0.2h0.1c0,0,0,0,0.1,0l2.2-1.2L56,8.1
	c0.1,0,0.1,0,0.2,0s0.1-0.1,0.1-0.2l-0.4-2.4l1.8-1.7C57.6,3.7,57.6,3.6,57.6,3.6z"/>
<path class="st1" d="M65.9,3.6C65.9,3.5,65.8,3.5,65.9,3.6l-2.6-0.5l-1.1-2.2c0-0.1-0.1-0.1-0.1-0.1c-0.1,0-0.1,0-0.1,0.1l-1.1,2.2
	l-2.5,0.4c-0.1,0-0.1,0-0.1,0.1s0,0.1,0,0.2L60,5.5l-0.4,2.4c0,0.1,0,0.1,0.1,0.2h0.1c0,0,0,0,0.1,0l2.2-1.2l2.2,1.2
	c0.1,0,0.1,0,0.2,0c0,0,0.1-0.1,0.1-0.2l-0.4-2.4L66,3.8C65.9,3.7,65.9,3.6,65.9,3.6z"/>
<path class="st1" d="M73.7,3.6C73.7,3.5,73.6,3.5,73.7,3.6l-2.6-0.5L70,0.9c0-0.1-0.1-0.1-0.1-0.1s-0.1,0-0.1,0.1l-1.1,2.2l-2.5,0.4
	c-0.1,0-0.1,0-0.1,0.1s0,0.1,0,0.2l1.8,1.7l-0.4,2.4c0,0.1,0,0.1,0.1,0.2h0.1c0,0,0,0,0.1,0L70,6.9l2.2,1.2c0.1,0,0.1,0,0.2,0
	s0.1-0.1,0.1-0.2l-0.4-2.4l1.8-1.7C73.7,3.7,73.8,3.6,73.7,3.6z"/>
<path class="st1" d="M82,3.6C82,3.5,81.9,3.5,82,3.6l-2.6-0.5l-1.1-2.2c0-0.1-0.1-0.1-0.1-0.1c-0.1,0-0.1,0-0.1,0.1L77,3.1l-2.5,0.4
	c-0.1,0-0.1,0-0.1,0.1s0,0.1,0,0.2l1.8,1.7l-0.4,2.4c0,0.1,0,0.1,0.1,0.2H76c0,0,0,0,0.1,0l2.2-1.2l2.2,1.2c0.1,0,0.1,0,0.2,0
	s0.1-0.1,0.1-0.2l-0.4-2.4L82,3.7V3.6z"/>
</svg>
