<?xml version="1.0" encoding="utf-8"?>
<!-- Generator: Adobe Illustrator 20.1.0, SVG Export Plug-In . SVG Version: 6.00 Build 0)  -->
<svg version="1.1" id="Layer_1" xmlns="http://www.w3.org/2000/svg" xmlns:xlink="http://www.w3.org/1999/xlink" x="0px" y="0px"
	 width="44px" height="44px" viewBox="0 0 44 44" style="enable-background:new 0 0 44 44;" xml:space="preserve">
<style type="text/css">
	.st0{fill:#FF6D00;}
	.st1{fill:#FFFFFF;}
</style>
<rect x="-0.3" y="-0.4" class="st0" width="44.6" height="45.1"/>
<path class="st1" d="M22,11.6c-0.1,0-0.2,0-0.3,0c-1.4,0.2-2.7,1.3-2.6,3.1c0,0.2,0,0.3,0,0.4c-0.1,0-0.2,0-0.3,0
	c-0.4,0-0.7,0.4-0.7,0.7c0,0.4,0.4,0.7,0.7,0.7h0.4c0,0.3,0,0.5,0,0.7c0,0.6-0.1,1-0.5,1.7c-0.2,0.2-0.2,0.5,0,0.7
	c0.1,0.2,0.4,0.4,0.6,0.4H24c0.4,0,0.7-0.3,0.7-0.7s-0.3-0.7-0.7-0.7h-3.6c0.2-0.5,0.3-0.9,0.3-1.4c0-0.2,0-0.5,0-0.7h1.7
	c0.4,0,0.7-0.3,0.7-0.7c0-0.4-0.3-0.7-0.7-0.7h-1.9c0-0.2,0-0.3,0-0.5l0,0c-0.1-1,0.6-1.5,1.4-1.6c0.4,0,0.7,0,1,0.2
	c0.3,0.2,0.5,0.5,0.5,1c0,0.4,0.4,0.7,0.8,0.7c0.4,0,0.7-0.4,0.7-0.8c-0.1-0.9-0.5-1.6-1.1-2C23.2,11.8,22.6,11.6,22,11.6z"/>
<path class="st1" d="M19.5,29.8c0.4,0,0.8-0.1,1.2-0.2l-4,10.1c-0.1,0.3-0.5,0.3-0.7,0l-1.9-3.3c-0.1-0.1-0.2-0.2-0.3-0.1l-3.6,1.1
	c-0.3,0.1-0.6-0.2-0.5-0.5l3.8-9.5c0.5,0.2,1.1,0.4,1.7,0.4c0.2,0,0.5,0,0.7-0.1H16l0,0.1C16.7,29,18.1,29.8,19.5,29.8z M30.3,27.4
	c-0.5,0.2-1.1,0.4-1.7,0.4c-0.2,0-0.5,0-0.7-0.1h-0.1l0,0.1c-0.7,1.3-2.1,2.1-3.5,2.1c-0.4,0-0.8-0.1-1.2-0.2l4,10.1
	c0.1,0.3,0.5,0.3,0.7,0l1.9-3.3c0.1-0.1,0.2-0.2,0.3-0.1l3.6,1.1c0.3,0.1,0.6-0.2,0.5-0.5L30.3,27.4z"/>
<path class="st1" d="M33.5,14.9c0.7,0.7,0.7,1.8,0,2.4l-0.5,0.4c-0.5,0.5-0.7,1.2-0.4,1.8l0.2,0.6c0.4,0.9-0.1,1.9-1,2.2l-0.6,0.2
	c-0.7,0.2-1.1,0.8-1.2,1.5l0,0.6c0,1-0.9,1.7-1.9,1.5L27.5,26c-0.7-0.1-1.4,0.2-1.7,0.8l-0.3,0.5c-0.5,0.9-1.6,1.1-2.4,0.5l-0.5-0.4
	c-0.5-0.4-1.3-0.4-1.9,0l-0.5,0.3c-0.8,0.5-1.9,0.3-2.3-0.5l-0.3-0.5c-0.3-0.6-1-0.9-1.7-0.8l-0.6,0.1c-1,0.2-1.8-0.5-1.9-1.5l0-0.6
	c0-0.7-0.5-1.3-1.2-1.5l-0.6-0.2c-0.9-0.3-1.4-1.3-1-2.2l0.2-0.6c0.3-0.6,0.1-1.4-0.4-1.8l-0.5-0.4c-0.7-0.7-0.7-1.8,0-2.4l0.5-0.4
	c0.5-0.5,0.7-1.2,0.4-1.8l-0.2-0.6c-0.4-0.9,0.1-1.9,1-2.2l0.6-0.2c0.7-0.2,1.1-0.8,1.2-1.5l0-0.6c0-1,0.9-1.7,1.9-1.5l0.6,0.1
	c0.7,0.1,1.4-0.2,1.7-0.8L18,4.9c0.5-0.9,1.6-1.1,2.4-0.5l0.5,0.4c0.5,0.4,1.3,0.4,1.9,0l0.5-0.3c0.8-0.5,1.9-0.3,2.3,0.5l0.3,0.5
	c0.3,0.6,1,0.9,1.7,0.8l0.6-0.1c1-0.2,1.8,0.5,1.9,1.5l0,0.6c0,0.7,0.5,1.3,1.2,1.5l0.6,0.2c0.9,0.3,1.4,1.3,1,2.2l-0.2,0.6
	c-0.3,0.6-0.1,1.4,0.4,1.8L33.5,14.9z M29.6,16.1c0-4.3-3.5-7.9-7.9-7.9s-7.9,3.5-7.9,7.9s3.5,7.9,7.9,7.9S29.6,20.5,29.6,16.1z"/>
</svg>
